<svg xmlns="http://www.w3.org/2000/svg" viewBox="0 0 1692.5 522.8"><g fill="#ff6900"><path d="M1574 0c-93 0-120 26-120 117s28 117 120 117 119-26 119-117S1667 0 1574 0Zm-1 37c66 0 84 10 84 80 0 66-15 80-82 80s-85-11-85-80 19-80 83-80Z"/><path d="M1634 100h-44V59h-33v41h-44v34h44v41h33v-41h44v-34zM230 333l28 79h71L204 96l-9-26h-61L0 412h70l95-259 44 123h-56l-21 57h98ZM99 333"/></g><g fill="#746661"><path d="M754 202c-19-29-51-49-89-49h-25a77 77 0 0 0-57 30v-26h-62v366h66V388a76 76 0 0 0 53 24h25c38 0 70-20 89-50 9-16 15-42 15-62v-43c0-20-6-39-15-55Zm-41 96c0 31-25 56-56 56h-18c-31 0-56-25-56-56v-31c0-32 25-57 56-57h18c31 0 56 25 56 57v31ZM823 394c-14-12-21-31-21-57V70h67v263c0 8 1 14 5 17 4 4 9 6 17 6h26v56h-31c-29 0-50-6-63-18ZM962 390a99 99 0 0 1-23-69V153h66v169c1 12 3 27 22 35 14 6 31 6 46 2 8-2 15-8 19-12 15-14 18-37 19-50V153h66v259h-61v-31c-8 10-17 19-28 25-3 2-8 4-14 5-20 5-42 6-62 1-20-4-40-11-50-22ZM1267 326h-61s-2 62 51 80c45 15 109 8 128 4 18-4 32-14 42-30 5-7 8-17 10-28 7-46-21-71-21-71s-13-16-48-21l-77-14-9-4c-5-4-10-10-8-21 1-15 10-17 24-19h48c20 2 28 12 31 27v5h62s2-62-51-79c-46-16-110-8-128-4s-33 13-43 30c-4 7-8 16-10 28-7 45 21 71 21 71s13 16 49 21l76 14c4 0 7 2 10 4 4 3 9 9 8 21-2 16-18 17-25 18-14 2-36 2-48 0-20-2-27-12-30-27l-1-4v-1ZM480 355h-9c-31 0-56-26-56-57v-31c0-32 25-57 56-57h17v-57h-16a77 77 0 0 0-57 30v-26h-62v366h66V388a76 76 0 0 0 53 24h16v-58h-8Z"/></g></svg>