<svg xmlns="http://www.w3.org/2000/svg" width="2500" height="2500" viewBox="0 0 89.96 89.96"><circle cx="44.98" cy="44.98" r="44.98" fill="#304296"/><path fill="#fff22d" d="m44.98 2.97-.9 2.8H41.1l2.43 1.8-.95 2.87 2.4-1.77 2.4 1.77-.93-2.87 2.41-1.8h-3L45 2.96zM27.71 6.64l.31 2.92-2.73 1.21 2.96.67.3 3 1.48-2.59 2.91.64-2.02-2.24L32.4 7.6l-2.74 1.22-1.94-2.2zM13.4 17.02l1.48 2.54-2 2.22 2.98-.6 1.5 2.62.29-2.96 2.92-.6L17.82 19l.27-3-2 2.22-2.67-1.21zM4.6 32.32l2.38 1.72-.93 2.83 2.48-1.75 2.44 1.79-.95-2.83 2.43-1.74H9.42l-.98-2.85-.92 2.85-2.93-.03zM2.74 49.87l2.87.6.31 2.97 1.55-2.6 2.96.63-2.02-2.2 1.51-2.57-2.76 1.23-2.05-2.21.32 2.98-2.7 1.17zm5.45 16.8 2.88-.62 1.49 2.59.35-3.02 2.96-.61-2.73-1.2.33-2.96-2.02 2.24-2.77-1.18 1.5 2.6-1.99 2.16zM20.01 79.8l2.38-1.73 2.4 1.76-.9-2.9 2.46-1.76-2.98.02-.9-2.85-.94 2.88-3.01.04 2.42 1.76L20 79.8zM36.15 87l1.46-2.55 2.92.62-2-2.27 1.52-2.62-2.72 1.24-1.98-2.23.32 3-2.74 1.27 2.93.62.29 2.92zm17.66 0 .3-2.92 2.92-.62-2.76-1.27.33-3-1.98 2.23-2.72-1.23 1.51 2.61-1.98 2.27 2.93-.62 1.45 2.55zm16.13-7.18-.91-2.8 2.41-1.75-3.03-.03-.92-2.88-.9 2.84-2.99-.02 2.45 1.77-.89 2.89 2.42-1.76 2.36 1.74zm11.82-13.13L79.8 64.5l1.5-2.58-2.79 1.2-2.01-2.25.33 2.96-2.73 1.2 2.95.62.36 3 1.5-2.6 2.86.64zm5.46-16.8-2.68-1.18.3-2.97-2.05 2.23-2.75-1.24 1.5 2.57-2 2.2 2.95-.63 1.54 2.6.32-2.98 2.87-.6zm-1.84-17.56h-2.94l-.92-2.83-.97 2.87-3.02-.01 2.42 1.74-.94 2.83 2.44-1.78 2.47 1.73-.93-2.84 2.39-1.7zm-8.83-15.3-2.68 1.2-2-2.21.28 3.01-2.76 1.22 2.92.6.29 2.97 1.5-2.61 2.97.58-2-2.23 1.48-2.52zM62.26 6.65 60.3 8.83l-2.73-1.22 1.49 2.65-2.03 2.23 2.9-.63 1.48 2.59.32-3 2.94-.68-2.74-1.21.33-2.92z"/><path fill="#fff" d="M19.48 44.98a20.46 20.46 0 0 1 20.44-20.43h2.02v4.03h-2.02c-9.04 0-16.4 7.36-16.4 16.4s7.36 16.4 16.4 16.4h2.02v4.03h-2.02A20.46 20.46 0 0 1 19.5 44.98zm25.13 0a20.46 20.46 0 0 1 20.44-20.43h2.02v4.03h-2.02c-8 0-14.96 5.97-16.2 13.89l-.07.5h13.05v4.02H48.78l.08.5a16.51 16.51 0 0 0 16.2 13.9h2.01v4.02h-2.02a20.46 20.46 0 0 1-20.44-20.43z"/></svg>