<svg xmlns="http://www.w3.org/2000/svg" width="1024" height="361" viewBox="-153 -46 1024 361"><path fill="#2b4088" d="m-153 136 511.1 178.6L871 136.2 357.6-45.6Z"/><path fill="#fff" d="m357.5-41.1-498 177.2 498.9 174 499.6-174zm.6 3.2 493.6 173.4-493.6 172-493.4-172z"/><path fill="#2b4088" d="M640.8 62.3v78.9h39.9V207h65.9v-65.8H788V62.3Z"/><path fill="#c9c8cb" d="M653.6 75.1v51.7h40v68.8h41.5v-68.8h40.2V75.1Z"/><path fill="#fff" d="M645 66.6v70.3h40.1v65.9h57.2v-65.9h41.5V66.6h-.7zm4.3 4.2h130.2v60.3h-40.1v68.7h-50v-68.7h-40.1V73z"/><path fill="#2b4088" d="M588.5 63.8 523.7 207h162.5L621.3 63.8Z"/><path fill="#c9c8cb" d="m595.7 78-51 117.6h44.5v-68.7H620.8v68.7h45.9L613 78Z"/><path fill="#fff" d="m591.3 68.1-61 134.7h67.5v-65.9H610.7v65.9h69L618.7 68h-.1zm1.5 5.6h22.9l1.5 3.5L672 196.8l1.4 3h-57v-68.7h-23v68.7H538l1.4-2.8L592.3 75z"/><path fill="#2b4088" d="M512.4 61c-38 0-68.8 33.8-68.8 75 0 41.3 30.7 75.1 68.8 75.1 38.1 0 68.8-33.8 68.8-75 0-41.4-30.8-75.2-68.8-75.2z"/><path fill="#c9c8cb" d="M512 74.8c-30 0-54.9 27.6-54.9 61.8 0 34.3 24.7 61.7 55 61.7 30.1 0 55-27.6 55-61.7 0-34.2-24.7-61.7-55-61.8zm-14.3 17.5h25.6v86h-25.6z"/><path fill="#fff" d="M512.4 65.7c-35.3 0-64 31.4-64 70.3 0 39 28.7 70.4 64 70.4s64-31.4 64-70.4c0-38.9-28.9-70.3-64-70.3zm-.3 4.3c33.2.2 59.7 30 59.7 66.6 0 36.4-26.7 66.5-59.7 66.5-33.2 0-59.8-29.9-59.8-66.5 0-36.5 26.8-66.6 59.8-66.6zm-10 26.8V174h17V96.8Zm2.6 3h11.5v71.6h-11.5z"/><path fill="#2b4088" d="M414.8 61.1c-38.1 0-68.8 33.8-68.8 75.1s30.7 75.1 68.8 75.1c38.1 0 68.8-33.8 68.8-75 0-41.4-30.7-75.2-68.8-75.2z"/><path fill="#c9c8cb" d="M414.8 74.8c-30.1 0-55 27.6-55 61.8 0 34.3 24.7 61.7 55 61.7 26.1 0 48.3-20.8 53.7-48.6H406v-27.1h62.2c-5.7-27.4-27.6-47.7-53.5-47.8Z"/><path fill="#fff" d="M414.8 65.9c-35.3 0-64 31.4-64 70.3 0 43 32.8 70.3 64 70.3 30 0 61.6-25.1 63.9-66h-64.8v-10h64.7c-2.7-36.3-30.3-64.6-63.8-64.6Zm0 4c30 .3 54.8 25 59 57h-63.4v18.5H474c-4 32.4-28.9 57.7-59.2 57.7-33.2 0-59.7-29.9-59.7-66.5C355 100 381.8 70 414.8 70z"/><path fill="#2b4088" d="M346.2 18.1c-18.3 0-33 15.3-33 33.8V58H379V52a33.5 33.5 0 0 0-32.8-33.8zm-33 45.7V207H379V63.8Z"/><path fill="#c9c8cb" d="M346 31.8c-8 0-15.3 6-18.1 14.8h36.4c-2.9-8.7-10-14.7-18.3-14.8zM327.6 78v117.6h38.6V78Z"/><path fill="#fff" d="M346.2 22.9a29 29 0 0 0-28.7 29v1.9h57.2v-1.9c0-16-13.2-29-28.5-29zm-.2 4c11 .2 20.2 8.5 23.3 19.7v4.3h-46.4v-4.3C325.9 35.4 335 27 346 27Zm-28.5 41.2v134.7h57.2V68Zm5.6 5.6h47.3V200h-47.3z"/><path fill="#2b4088" d="M230.1 63.8V207h97.5v-73H296V63.9h-63.7z"/><path fill="#c9c8cb" d="M243.1 77.5v118.1h70.1v-47.3h-30V77.5z"/><path fill="#fff" d="M234.6 68.1v134.7H323v-64.5h-31.3V68h-2.3zm4.2 5.1h48.7V144.1h30v55.7H239V73.8z"/><path fill="#2b4088" d="m166.6 63.8-.5 1.2-63 139-1.3 3h162.5l-1.4-3-62.8-139-.7-1.2H168z"/><path fill="#c9c8cb" d="m173.6 78-51 117.6h44.7v-68.7h31.4v68.7h46L191 78Z"/><path fill="#fff" d="m169.3 68.1-60.8 134.7h67.4v-65.9h12.7v65.9h69L196.6 68Zm1.6 5.6H193.8L250 196.8l1.4 3h-57v-68.7h-23v68.7h-55.4l1.4-2.8L170.4 75z"/><path fill="#2b4088" d="M11.3 63.8v70.7c0 41.4 31.5 75 70.2 75 38.6 0 70-33.6 70.1-74.8V63.9H87.3V131H80V63.9H13.5Z"/><path fill="#c9c8cb" d="M94.2 71.7V78v-6.3ZM24.3 78v56c0 34.3 25.9 61.8 57.2 61.8 31.2 0 56.7-27.5 56.8-61.7v-56H98.7v64.4H67.2V78Z"/><path fill="#fff" d="M15.6 68.1V134.5c0 36.4 26.1 66.1 58.8 70H76c1.8.2 3.6.3 5.5.3 36 0 65.8-31.3 65.8-70.3V68.1H91.5v67.2H75.7V68.2h-5zm4.3 5.6h51.5v64.6h22.9V73.7H143v61c-.4 36.3-27.7 65.8-61.6 65.8-34.1 0-61.6-29.9-61.6-66.5V76Z"/><path fill="#2b4088" d="M-22.3 133.3H-8v97.5h-14.3Z"/><path fill="#2b4088" stroke="#2b4088" stroke-width="2.8" d="M51.8 134.2a66.4 72.7 0 0 1-66.4 72.7A66.4 72.7 0 0 1-81 134.2a66.4 72.7 0 0 1 66.4-72.7 66.4 72.7 0 0 1 66.4 72.7z"/><path fill="#c9c8cb" d="M-14.8 72.4c-30.2 0-55 27.5-55 61.8 0 27.6 16.2 50.9 38.3 58.8v-67.5H1.4v67.7c22.4-7.7 38.8-31.1 38.8-59 0-34.3-24.8-61.8-55-61.8Z"/><path fill="#fff" d="M-14.6 63.8c-35.3 0-64 31.4-64 70.4 0 36 24.6 65.6 56.3 69.8v-3.8c-29.5-4.2-52.2-32.3-52.2-66 0-36.6 26.6-66.6 59.7-66.6S45 97.6 45 134.2c0 6.1-.7 12-2.1 17.8l-.6 4-1.5 2.9A61.2 61.2 0 0 1-8 200.3v3.8c32.2-3.6 57.4-33.4 57.4-70 0-39-28.8-70.3-64-70.3zm-12.6 66v64.5c1.6.5 3.2.8 4.9 1v-62H-8v62.2l5.2-1v-64.8z"/></svg>