<svg xmlns="http://www.w3.org/2000/svg" width="1024" height="1024" viewBox="0 0 1024 1024"><g fill="#1961ac"><path d="M48 787.8v-9.4h61v9.4z"/><path d="M64.7 749.7h43.7v9H48v-12l36.5-10H48v-8.3h61v9.9z"/><path d="M48 711.2v-29.8h8.8v10H109v9.3H56.8v10H48z"/><path d="M73.5 654.8v-13.5h8.9v13H100v-16.6h8.9v26H48v-26h8.8v16.6h16.7z"/><path d="M109 599a17.3 17.3 0 0 1-7.3 1.1h-9.4c-5.7 0-7.8 2-7.8 6.2v3.2H109v9.3H48v-14a12.2 12.2 0 0 1 14-14h4.7a12.6 12.6 0 0 1 12.5 6.2c2-4.7 6.8-6.3 13-6.3h9.4a15.5 15.5 0 0 0 7.3-1v9.4zm-52.2 10.5h18.8v-3.7c0-3.6-1.6-5.7-6.2-5.7h-5.8q-6.3 0-6.3 4.7v4.7z"/><path d="M64.7 562.6h43.7v8.3H48v-12l36.5-9.9H48v-8.3h61v9.9z"/><path d="M109 490.1v9.4L98 501v11.5l11 1.6v8.8l-61-8.8v-14ZM89.7 512v-9.4l-30.8 4.7z"/><path d="M48 475.5v-29.7h8.8v9.9H109v9.4H56.8v9.9H48z"/><path d="M48 428.6v-9.4h61v9.4z"/><path d="M62.6 400a13.4 13.4 0 0 1-15.2-14.7 13.6 13.6 0 0 1 15.2-14.6h31.8a13.4 13.4 0 0 1 15.1 14.6A13.6 13.6 0 0 1 94.4 400zm32.3-9.5c4.2 0 5.7-2 5.7-4.6 0-3.2-1.5-5.3-5.7-5.3H62c-4.1 0-5.7 2.1-5.7 5.3 0 3 1.6 4.6 5.7 4.6z"/><path d="M64.7 343h43.7v9H48v-12l36.5-10H48v-8.3h61v9.9z"/><path d="M109 270.6v9.4l-11 1.5V293l11 1.6v8.8l-61-9.3V280zm-19.3 21.9v-9.4l-30.8 4.7z"/><path d="M48 252.9v-9.4H100v-15.7h8.9v25z"/><path d="M230 62.6a13.4 13.4 0 0 1 14.5-15.2 13.6 13.6 0 0 1 14.6 15.2v31.3a13.3 13.3 0 0 1-2 8.3c.5 1 1 1 2.6 1h1v8.4h-1a8.9 8.9 0 0 1-8.4-4.2 26.4 26.4 0 0 1-6.8 1 13.6 13.6 0 0 1-14.6-15zm9.8 31.8c0 4.2 2.1 5.7 4.7 5.7 3.1 0 4.7-1.5 4.7-5.7v-33c0-4-2-5.6-4.7-5.6-3.1 0-4.7 1.5-4.7 5.7z"/><path d="M287.3 48v46.9c0 4.2 2 5.7 4.7 5.7 3 0 4.6-1.5 4.6-5.7v-47h9v46c0 9.9-4.8 15-14.1 15a13.2 13.2 0 0 1-14-15v-46Z"/><path d="M356.6 108.4h-9.3l-1.6-10.9h-12l-1.6 11h-8.8l9.9-61h14zm-21.4-19.2h9l-4.8-30.8z"/><path d="M374.4 48h9.3V100h15.6v8.9h-25z"/><path d="M416.6 48h9.3v61h-9.3z"/><path d="M443.7 48h29.7v8.8h-9.9V109h-9.9V56.8h-10z"/><path d="m499.5 88.6-12-40.6h9.9l7.3 27.6L512 48h8.9l-12 40.6V109h-9.4z"/><path d="M564.1 48h9.4V100h15.6v8.9h-25z"/><path d="M637.6 108.4h-9.3l-1.6-10.9h-11.4l-1.6 11h-8.9l9.9-61h14zm-21.9-19.2h9.4l-4.7-30.8Z"/><path d="M684 61.5v2c0 6.3-2 10.5-6.2 12a12.5 12.5 0 0 1 7.3 13.1v5.2a13 13 0 0 1-14.6 14.6h-15.1V48H670c9.4 0 14 4.1 14 13.5zm-19.2-5.2v16.2h3.6c3.7 0 5.8-1.6 5.8-6.3v-3.6q0-6.3-4.7-6.3zm0 25v18.8h5.2c3.1 0 4.7-1.6 4.7-6.2v-5.3c0-5.7-2.1-7.2-6.3-7.2z"/><path d="M713.2 73.5h13v8.9h-13V100H730v8.9h-26V48h26v8.8h-16.7z"/><path d="M748.7 48h9.4V100h15.6v8.9h-25z"/><path d="M957.3 243v12.4h-8.9V243h-25v-9.3h61v25h-8.9V243z"/><path d="M969.3 275.8a13.4 13.4 0 0 1 15 14.6 13.6 13.6 0 0 1-15 14.6h-31.9a13.4 13.4 0 0 1-15-14.6 13.6 13.6 0 0 1 15-14.6zm-31.9 9.4c-4.1 0-5.7 2-5.7 4.7 0 3 1.6 5.2 5.7 5.2h32.9c4.2 0 5.7-2.1 5.7-5.2 0-3.2-1.5-4.7-5.7-4.7z"/><path d="M923.4 343.6a17.3 17.3 0 0 1 7.3-1h9.3c5.8 0 7.8-2.1 7.8-6.3v-3.1h-24.4v-9.4h61v14.6a12.2 12.2 0 0 1-14 14h-4.7a12.6 12.6 0 0 1-12.5-6.2c-2.1 4.7-6.8 6.2-13 6.2h-9.4a15.5 15.5 0 0 0-7.3 1zm52.1-10.4h-18.8v3.6c0 3.7 1.6 5.8 6.3 5.8h5.7q6.3 0 6.3-4.7v-4.7z"/><path d="M923.4 429.1v-9.4l10.9-1.5v-11.5l-11-1.6v-8.8l61 9.9v14zm19.3-21.9v9.4l30.7-4.7z"/><path d="M967.2 455.2h-43.8v-8.9h61v12.5l-36.5 9.9h36.5v8.3h-61v-9.8z"/><path d="M969.3 495.8a13.4 13.4 0 0 1 15 14.6 13.6 13.6 0 0 1-15 14.6h-31.9a13.4 13.4 0 0 1-15-14.6 13.6 13.6 0 0 1 15-14.6zm-31.9 10c-4.1 0-5.7 2-5.7 4.6 0 3.1 1.6 5.2 5.7 5.2h32.9c4.2 0 5.7-2 5.7-5.2 0-3.1-1.5-4.7-5.7-4.7z"/><path d="M983.9 544.3v15.1c0 9.4-5.3 14-15.2 14h-30.2c-10 0-15.1-4.6-15.1-14v-15zm-8.4 9.4h-43.3v5.2c0 3.1 1.6 4.7 5.8 4.7h31.8c4.2 0 5.7-2.1 5.7-4.7z"/><path d="M983.9 592.8v9.4h-61v-9.4z"/><path d="M984.9 635a13.2 13.2 0 0 1-15.1 14.1h-2.1v-8.9h2.6c4.2 0 5.7-1.5 5.7-4.6 0-3.2-1.5-4.7-5.7-4.7-12.5 0-14.6 18.7-32.3 18.7-10 0-15.1-4.6-15.1-14a13.2 13.2 0 0 1 15-14h3.7v8.8h-4.1c-4.2 0-5.8 2.1-5.8 4.7 0 3.1 1.6 5.2 5.8 5.2 12.4 0 14.6-18.8 32.3-18.8a12.6 12.6 0 0 1 15.1 13.5z"/><path d="M983.9 667.9v9.4h-61v-9.4z"/><path d="M967.2 706h-43.8V697h61v12l-36.5 9.9h36.5v8.3h-61v-9.9z"/><path d="M957.3 761.7v13.6H938c-10 0-15.1-4.7-15.1-14a13.2 13.2 0 0 1 15-14h31.9c9.9 0 15.1 4.6 15.1 14a13.2 13.2 0 0 1-15.1 14H964v-8.9h6.2c4.2 0 5.7-2 5.7-5.2 0-3.1-1.5-4.7-5.7-4.7h-32.9c-4.1 0-5.7 2.1-5.7 4.7 0 3.1 1.6 5.2 5.7 5.2h11v-4.1h8.8z"/><path d="M1024 1024H0V0h1024ZM5.2 1018.8h1013.6V5.2H5.2Z"/><path d="M230 932.2a13.4 13.4 0 0 1 14.5-15 13.6 13.6 0 0 1 14.6 15v31.9a13.3 13.3 0 0 1-2 8.3c.5 1 1 1 2.6 1h1v8.4h-1a8.9 8.9 0 0 1-8.4-4.2 26.4 26.4 0 0 1-6.8 1 13.6 13.6 0 0 1-14.6-15zm9.8 32.4c0 4.1 2.1 5.7 4.7 5.7 3.1 0 4.7-1.6 4.7-5.7v-32.9c0-4.2-2-5.7-4.7-5.7-3.1 0-4.7 1.5-4.7 5.7z"/><path d="M287.3 917.6v47c0 4.1 2 5.7 4.7 5.7 3 0 4.6-1.6 4.6-5.7v-47h9V964c0 10-4.8 15.2-14.1 15.2a13.2 13.2 0 0 1-14-15.2v-46.4z"/><path d="M356.6 978.1h-9.3l-1.6-10.9h-12l-1.6 11h-8.8l9.9-61h14zm-21.4-19.3h9l-4.8-30.7z"/><path d="M374.4 917.6h9.3v52.2h15.6v8.8h-25z"/><path d="M416.6 917.6h9.3v61h-9.3z"/><path d="M443.7 917.6h29.7v9h-9.9v52h-9.9v-52h-10z"/><path d="m499.5 958.3-12-40.7h9.9l7.3 27.7 7.3-27.7h8.9l-12 40.7v20.3h-9.4z"/><path d="M564.1 917.6h9.4v52.2h15.6v8.8h-25z"/><path d="M637.6 978.1h-9.3l-1.6-10.9h-11.4l-1.6 11h-8.9l9.9-61h14zm-21.8-19.3h9.3l-4.7-30.8z"/><path d="M684 931.7v2c0 6.3-2 10.5-6.2 12a12.5 12.5 0 0 1 7.3 13.1v5.2a13 13 0 0 1-14.6 14.6h-15.1v-61H670a12.4 12.4 0 0 1 14 14zm-19.2-5.7V942h3.6c3.7 0 5.8-1.5 5.8-6.2v-3.1q0-6.3-4.7-6.3h-4.7zm0 25v18.7h5.2c3.1 0 4.7-1.5 4.7-6.2v-5.2c0-5.7-2.1-7.3-6.3-7.3z"/><path d="M713.2 943.2h13v8.9h-13v17.7H730v8.9h-26v-61h26v8.8h-16.7z"/><path d="M748.7 917.6h9.4v52.2h15.6v8.8h-25z"/><path d="M442.1 240.9a196.6 196.6 0 0 0-61.5 38c-.5 1-.5 1.6-1 2.6-.6 3.2 5.2.6 5.2.6l6.2 3 7.8-3a23.7 23.7 0 0 1 7.3-7.8c5.2-3.7 4.2-4.2 6.3-7.3 2-3.1 0 0 9.3-10 9.4-9.8 14.7-9.9 14.7-9.9s3.1-3.6 5.7-6.2z"/><path d="M638.7 511.5s-8.9 3.6-9.4 6.2c-.5 3.1-1.5 7.3-1.5 7.3a70.3 70.3 0 0 0-4.2 11c-.5 3 1 8.8 3.1 7.7 2.1-.5 5.7-5.2 7.8-6.2a33.4 33.4 0 0 0 6.8-10 86.3 86.3 0 0 1 3.1-10.8 92 92 0 0 0 1.6-11 40.3 40.3 0 0 0-.5-5.2z"/><path d="M393.6 518.3c-3.6-.6-9.9-7.3-12.4-7.3a16.5 16.5 0 0 1-7.8-3.2c-2.1-1.5-6.8-3-7.8-5.2a50.3 50.3 0 0 1-5.3-9.3 23.6 23.6 0 0 0-6.7-10c-5.8-6.7-4.2-5.2-8.9-7.2-4.2-2.1-5.7-4.2-9.4-5.8a20.6 20.6 0 0 1-7.8-5.2 23.2 23.2 0 0 0-4.2-2.6 192 192 0 0 0 56.3 97.5c3 1 3.6-1 6.8-1a18.4 18.4 0 0 0 7.2-3.7l-3-8.9 3-11 3.7-9.8c0 .5 0-6.8-3.7-7.3z"/><path d="M480.2 288.3v7.8l12.5-3.1 3.1-4.2-7.8-9.4-4.2-8.3-3.6 3.7v13.5l-10-3.1-3 6.8 2.6 4.1zm-5.7-.5z"/><path d="M332.1 369.1c1.6-3.6 7.8-13 11.5-18.7 3.7-5.8-.5-3.7-4.2-1.6-3.6 2.1 2.1-5.7 4.2-7.3 2-1.5 14.6-9.9 14.6-9.9s4.2-4.2-.5-13.5c-4.2-7.3 0-7.8 0-11a1.6 1.6 0 0 1-1-.5 193.3 193.3 0 0 0-37.6 109 64 64 0 0 0 2.6-13 94.7 94.7 0 0 1 1.6-16.8c0-4.7 7.3-13 8.8-16.7z"/><path d="M616.8 415a117 117 0 0 1-5.2-13.5 75.4 75.4 0 0 0-5.2-13 66.6 66.6 0 0 0-7.3-11c-1.6-2-6.8-3.6-9.4-5.7a130.2 130.2 0 0 0-20.9-5.8s-5.7-3.6-7.3-2c-7.3 5.7-24 2-27.6.5-3.6-1.6-5.7-3.7-5.7-5.7a108.2 108.2 0 0 0-3.2-12.5s-7.2 1-9.3 1a39.3 39.3 0 0 1-7.8-2 33 33 0 0 0-10 2 58 58 0 0 1-10.8 4.2l-7.9 1.5c-6.7-3-11.4 4.2-13 7.3-1.5 3.2-4.2 4.2-4.2 7.3 0 3.2-5.2 7.3-7.3 8.9a60 60 0 0 0-12.4 9.4 55.9 55.9 0 0 0-5.3 11.4 77.1 77.1 0 0 0-.5 11.5 100.1 100.1 0 0 0 0 12.5 63 63 0 0 0 11 18.8 59.2 59.2 0 0 0 9.9 9.9 89.7 89.7 0 0 1 8.8 6.2 7.2 7.2 0 0 0 8.9 2.1 88.7 88.7 0 0 0 16.7-5.2c5.2-2.6 13-6.3 13-2.1 0 4.2 3.1 7.3 7.3 5.7 4.2-1.5 11.5-5.2 11 0a96.1 96.1 0 0 0 1.5 14.6c0 2.6-.5 5.8 1.5 7.8 2.1 2.1 7.8 5.8 7.8 7.8a39.2 39.2 0 0 0 2.1 12.5c1.6 3.1 3.1 7.3 1.6 10-1.6 3-4.2 10.9-4.2 10.9a39.8 39.8 0 0 0-.5 8.8 23 23 0 0 0 6.2 8.9c3.7 3.6 3.7 7.8 5.8 11 2 3 6.2 11.4 6.2 11.4l4.2 7.3v6.9s12.5-2 15.1-3.1a40.3 40.3 0 0 0 13.6-8.9c3-3.1 2-5.2 5.7-7.8 3.7-2.6 10.4-7.8 10.4-7.8l-.5-11 8.9-11.4 6.8-6.8s5.7-7.8 5.2-10.9c-.6-3.1-2.1-17.2-2.1-17.2a65.4 65.4 0 0 1 5.2-9.3c2-3.2 2-6.8 6.8-10a55.5 55.5 0 0 0 9.3-10.9c2.1-3 6.8-8.8 7.8-10.9a36.4 36.4 0 0 0 3.2-8.9l-13 2.1a278.4 278.4 0 0 1-21-26.8z"/><path d="M612.6 257c-3.1 1.6-8.3 5.2-10.4 3.1a77.3 77.3 0 0 0-7.3-5.7c4.2-3.1-8.9-8.9-8.9-8.9l-15-1h-11c-2 0-6.8.6-9.9.6a101.4 101.4 0 0 0-15.1 6.2 88 88 0 0 1-12.5 4.2c-3.1 0-7.3 5.7-7.3 5.7s-5.2 9.4-.5 7.8c4.2-1.5 9.9-1.5 11 .5 1 2.1 2 5.8 3 7.8.6 2.1 11 3.2 11 3.2a48.6 48.6 0 0 1 3.6-6.8l4.2-6.8a92.7 92.7 0 0 1 4.2 9.4 30.2 30.2 0 0 1-1.6 8.8 42.5 42.5 0 0 1-10 5.2 88.5 88.5 0 0 1-14.5-10.9 61 61 0 0 0-7.8 3.7c-5.2 5.2-10 9.3-10 9.3a42.1 42.1 0 0 0-7.2 3.7c-3.1 2-9.4 2.6-11 5.2a6.2 6.2 0 0 0 1.6 8.9l-4.1 5.7-4.2 2-10.4 2.2-6.3 1a39.8 39.8 0 0 1-.5 8.9v12.5a108.2 108.2 0 0 0 12.5 3c2 0 7.8 1.1 10.4-2a115.8 115.8 0 0 0 8.9-11.5 16 16 0 0 1 7.8-5.7c4.1-1.6 5.2-3.7 7.3-4.2 2-.5 10.9-2 10.9-2s5.2 3.6 7.8 5.1c1 .6-6.2 3.2 8.3 5.3v5.7l9-.5-5.3-5.8h-.5l-8.4-8.3-.5-6.8s8.9 5.2 12 6.8a90.4 90.4 0 0 1 8.9 5.7l4.1 10 5.8 6.7c-2.1-2.6-6.8-9.3 1-9.3a48.8 48.8 0 0 0 8.9 0 25.4 25.4 0 0 0 6.8-3.2c3-1.5-1-6.7 1.5-9.9a17.8 17.8 0 0 1 8.9-5.7 92.7 92.7 0 0 0 9.4-4.2l7.8 1.6c-3.7 3.1-7.8 7.3-5.3 6.8a25.8 25.8 0 0 1 12.5 5.2c3.2 2 .6 7.3.6 7.3a126 126 0 0 1-13-1.6 71 71 0 0 0-13.1.5l-6.3 3.7s-4.1 1.5-3.6 5.2a31.3 31.3 0 0 0 6.2 11.5c3.2 3.6 5.3 7.8 7.3 6.7 2.1-1.5 9.4-5.7 9.4-5.7a19.3 19.3 0 0 0-.5 8.9 77.6 77.6 0 0 1 .5 8.8s-7.3 0-5.2 1.6a57 57 0 0 1 6.8 8.9c7.3 9.9 22.4 32.8 24 35.4 1.5 3.1 1 7.3 3 9.4 4.2 4.2 13.1 0 15.2-1.6 2-1.5 9.4-5.2 11.5-7.3a20 20 0 0 1 5.7-4.1c4.2-3.2 7.3-5.3 5.2-7.3a85.6 85.6 0 0 1-6.8-10c-6.2 1.6-13-2-13-4.1a52.2 52.2 0 0 0-5.7-11s.5-1.5 5.7 1.6 9.4 8.9 13.6 8.9a23.8 23.8 0 0 1 11.4 4.2c5.2 3 7.3 6.7 10 7.8a30.5 30.5 0 0 1 7.2 7.3s4.2 9.9 5.2 13a107 107 0 0 0 4.2 9.9c0-3.7.5-7.3.5-11A191.4 191.4 0 0 0 612.6 257Z"/><path d="M705 731.5a17.3 17.3 0 0 0-13.6 5.7 33.9 33.9 0 0 0 0 34.5 18.9 18.9 0 0 0 27 0 33.9 33.9 0 0 0 0-34.5 15.8 15.8 0 0 0-13.5-5.7z"/><path d="M416 760.2a13.7 13.7 0 0 0-7.7 3.6 10 10 0 0 0-2.6 6.8 11.3 11.3 0 0 0 2.6 7.3 9 9 0 0 0 6.7 2.6 18.1 18.1 0 0 0 15.2-6.8 22.7 22.7 0 0 0 2-3.6 17.7 17.7 0 0 0 .6-5.2V756a48.5 48.5 0 0 1-9.4 3.1z"/><path d="M530.8 760.2a13.7 13.7 0 0 0-7.8 3.6 10 10 0 0 0-2.6 6.8 11.3 11.3 0 0 0 2.6 7.3 9 9 0 0 0 6.8 2.6 18.1 18.1 0 0 0 15-6.8 22.7 22.7 0 0 0 2.2-3.6 17.7 17.7 0 0 0 .5-5.2V756a48.5 48.5 0 0 1-9.4 3.1z"/><path d="M238.3 701.3a25.3 25.3 0 0 0-20.9 8.8 41.6 41.6 0 0 0-6.8 26.6 65.7 65.7 0 0 0 4.2 25 23.3 23.3 0 0 0 23 13 22.8 22.8 0 0 0 22.4-11.4 58.2 58.2 0 0 0 4.7-26 49.4 49.4 0 0 0-5.8-25 21.4 21.4 0 0 0-20.8-11z"/><path d="M793 732a14.8 14.8 0 0 0-12.5 6.3 28 28 0 0 0-4.7 17.1 26.5 26.5 0 0 0 4.7 16.7 15.6 15.6 0 0 0 25 0 28.7 28.7 0 0 0 4.7-17.7 24.9 24.9 0 0 0-4.7-16.2A13.7 13.7 0 0 0 793 732z"/><path d="M146 146v732.5h732.5V146Zm150.7 647.5h-48.5a153.4 153.4 0 0 1-18.2-.5c-3.1-.5-7.3-1-12-2a37.6 37.6 0 0 1-26-21 68.8 68.8 0 0 1-6.3-30.7c0-20.8 5.2-36 15-44.8a52.5 52.5 0 0 1 37.1-11.5 63.6 63.6 0 0 1 27.6 5.7 36 36 0 0 1 12 9 48.7 48.7 0 0 1 7.8 13.5 79.4 79.4 0 0 1 4.7 26.6 56.5 56.5 0 0 1-12 36h18.3v19.7zm74-2H352V780a9.4 9.4 0 0 1-2.6 3.6A25.2 25.2 0 0 1 328 793a25.5 25.5 0 0 1-18.8-7.3 27 27 0 0 1-6.8-19.8v-51.1h19.8v47.4a14.7 14.7 0 0 0 3.1 10.5 12.7 12.7 0 0 0 9.4 3.1 15 15 0 0 0 12-4.7 21 21 0 0 0 4.2-13.5v-42.8h19.8v76.6zm85.5-1.6v2.6h-21.9a29 29 0 0 1-1.5-8.9 31 31 0 0 1-24.6 11 22.8 22.8 0 0 1-16.6-6.3 21.2 21.2 0 0 1-6.3-15.6 24.9 24.9 0 0 1 5.8-16.7 26.5 26.5 0 0 1 16.6-7.8l13-1.5a17.5 17.5 0 0 0 8.4-2.6 3.7 3.7 0 0 0 2.1-2.6 8.9 8.9 0 0 0 .5-3.7 10.8 10.8 0 0 0-3.1-5.2 17.5 17.5 0 0 0-9.9-2 15 15 0 0 0-8.9 2.5 13.7 13.7 0 0 0-3.6 7.8h-19.3a26.3 26.3 0 0 1 8.8-19.8 41.5 41.5 0 0 1 24.5-6.8 40.8 40.8 0 0 1 22.4 5.7 20 20 0 0 1 8.4 16.2v42.2a21.6 21.6 0 0 0 1 7.3 15.7 15.7 0 0 0 4.2 4.2zm32.3 2.6h-19.8V684h19.9zM571 790v2.6H549a29 29 0 0 1-1.5-8.9 31 31 0 0 1-24.5 11 22.8 22.8 0 0 1-16.7-6.3 21.2 21.2 0 0 1-6.3-15.6 24.9 24.9 0 0 1 5.8-16.7 26.5 26.5 0 0 1 16.6-7.8l13-1.5a17.5 17.5 0 0 0 8.4-2.6 3.7 3.7 0 0 0 2.1-2.6 10.1 10.1 0 0 0 .5-3.7 10.8 10.8 0 0 0-3-5.2 17.5 17.5 0 0 0-10-2 15 15 0 0 0-8.9 2.5 13.7 13.7 0 0 0-3.6 7.8h-19.3a26.3 26.3 0 0 1 8.8-19.8 41.5 41.5 0 0 1 24.5-6.8 40.8 40.8 0 0 1 22.5 5.8 20 20 0 0 1 8.3 16.1v42.3a21.6 21.6 0 0 0 1 7.3 15.7 15.7 0 0 0 4.2 4.1zm82.4 2.6h-19.8v-47.4a14.7 14.7 0 0 0-3.1-10.5 12.7 12.7 0 0 0-9.4-3 15 15 0 0 0-12 4.6 21 21 0 0 0-4.2 13.6v42.7h-20.3V717h18.7v11.5a22 22 0 0 1 2.7-3.7 25.2 25.2 0 0 1 21.3-9.3 25.5 25.5 0 0 1 18.8 7.3 27 27 0 0 1 6.8 19.8v50zM511 630.4a210.6 210.6 0 1 1 210.6-210.7A211 211 0 0 1 511 630.4Zm222 153.2a36.2 36.2 0 0 1-28 10.5 38.2 38.2 0 0 1-28.2-10.5 40.3 40.3 0 0 1-10.5-28.6 39.9 39.9 0 0 1 10.5-29.2 41.7 41.7 0 0 1 56.3 0 41.6 41.6 0 0 1 10.4 29.2 40.3 40.3 0 0 1-10.4 28.6zm96 9h-19.8v-10l-.5.5a26.7 26.7 0 0 1-22 11 28 28 0 0 1-23.4-11.5 47 47 0 0 1-8.9-29.7 44.3 44.3 0 0 1 9-28.2 27.8 27.8 0 0 1 23.4-10.4 24.8 24.8 0 0 1 20.8 11l1 1v-42.8h19.9v109z"/></g></svg>