<svg xmlns="http://www.w3.org/2000/svg" viewBox="0 0 108.55 27.12"><path fill="#fff" d="M27.95.32h80.27v26.47H27.95zM.32.32h26.69v26.47H.32z"/><path d="M27.63 0h80.92v27.12H27.63V0Zm.37.32v26.47h80.27V.32ZM0 0h27.34v27.12H0V0Zm.32.32v26.47H27V.32Z" fill="#8a8a8d" fill-rule="evenodd"/><path d="M69.05 11v6.18a1.69 1.69 0 1 0 3.36 0V11h2a1.24 1.24 0 0 0 1.38-1.36c0-.8-.42-1.36-1.49-1.36h-7.16c-1.07 0-1.49.55-1.49 1.36A1.23 1.23 0 0 0 67 11Zm7.67 6.18a1.69 1.69 0 1 0 3.36 0V9.9a1.69 1.69 0 1 0-3.36 0v7.28Zm9-1 4.5-5a2 2 0 0 0 .67-1.42 1.38 1.38 0 0 0-1.53-1.48H83c-1.1 0-1.61.53-1.61 1.31S81.9 10.9 83 10.9h3.27l-4.21 4.68c-.73.8-.94 1.18-.94 1.74a1.44 1.44 0 0 0 1.65 1.48h6.72c1 0 1.54-.45 1.54-1.31s-.53-1.32-1.54-1.32Zm13.37-2.63c0 1.71-.67 2.88-2.08 2.88s-2.08-1.17-2.08-2.88.67-2.88 2.08-2.88 2.08 1.17 2.08 2.88Zm-7.51 0a5.44 5.44 0 1 0 10.87 0 5.44 5.44 0 1 0-10.87 0ZM55.8 17.23a1.64 1.64 0 1 0 3.27 0v-2.17h1.32c.79 0 1.37.25 1.47 1.1l.14 1.38c.12 1 .88 1.45 1.86 1.45a1.42 1.42 0 0 0 1.51-1.29 10.87 10.87 0 0 0-.15-1.47l-.12-.88c-.15-1.11-.88-1.47-1.94-1.55a2.48 2.48 0 0 0 2.13-2.54c0-1.61-1.15-3-3.73-3h-3.7c-1.45 0-2.06.6-2.06 2v7Zm3.27-4.37v-2h1.68c1 0 1.37.31 1.37 1s-.39 1-1.37 1Zm-25.75.67A5.12 5.12 0 0 0 38.76 19c1.87 0 4.38-1.12 4.38-3a1.51 1.51 0 0 0-2.79-.78c-.67.93-1 1.11-1.59 1.11-1.4 0-2.07-1.17-2.07-2.88s.85-2.88 1.9-2.88a1.68 1.68 0 0 1 1.65.91c.45.75.66.88 1.29.88A1.46 1.46 0 0 0 43.12 11c0-1.52-1.87-3-4.36-3a5.21 5.21 0 0 0-5.43 5.51Zm10.39 0A5.12 5.12 0 0 0 49.15 19a5.13 5.13 0 0 0 5.44-5.51 5.44 5.44 0 1 0-10.87 0Zm7.51 0c0 1.71-.67 2.88-2.08 2.88s-2.08-1.17-2.08-2.88.67-2.88 2.08-2.88 2.09 1.18 2.09 2.89ZM10.94 4.42c1.84-3.44 7-.68 5.16 2.76L7.78 22.72c-1.84 3.44-7 .68-5.16-2.76Z" fill="#8a8a8d" fill-rule="evenodd"/><path d="M19.34 22.72 16 16.52h-4.9l3.14-5.86h5.28l5 9.29c1.82 3.44-3.34 6.21-5.18 2.77Z" fill="#5d89b4" fill-rule="evenodd"/><path d="m6.65 12.42.32-.6a2.79 2.79 0 0 1 2.39-1.16h4.88l-3.14 5.86H9.36a2.91 2.91 0 0 1-2.71-4.1Z" fill="#276092" fill-rule="evenodd"/></svg>