<svg xmlns="http://www.w3.org/2000/svg" viewBox="0 0 512 133"><path d="M75.5,27c-15.6,0-36.8.6-36.8.6v74.2H53.8V72.4H75.7c11.5,0,19.1-12.5,19.1-23.3S89.7,27,75.5,27ZM72,60.2H52.9V39.4H71.6c6.6,0,8.8,4.8,8.8,10.4S76.3,60.2,72,60.2Z"/><path d="M151,68.4h0c9.4-3,18.2-10.9,18.2-20.7S164,27,149.9,27c-15.7,0-42,.6-42,.6v74.2H123V69.7h9.5c6.3,0,24.2,31.1,24.2,31.1h18.2C169.2,89.2,163.1,79.5,151,68.4ZM122.1,57.9V39.4h23.8c6.7,0,8.8,3.4,8.8,9s-4.1,9.5-8.4,9.5Z"/><polygon points="332.4 101.8 332.4 28.5 354.6 28.5 367.3 77.8 381.3 28.5 403.4 28.5 403.4 101.8 389.9 101.8 389.9 43.7 375.4 101.8 360.2 101.8 345.3 43.4 345.3 101.8 332.4 101.8"/><path d="M470.1,101.8h15.5L456.5,28.5h-16l-28.9,73.3h16.3l5.9-16.3h30.1ZM438.3,73l10.3-28.2L459.2,73Z"/><circle cx="249.2" cy="66.5" r="66.3" fill="#dba153"/><path d="M0,107.7l5.3,3.4,10.8.7,2.8,1.7H29.6l1.5,1.5,4.5,3.3H48.7l2.3,3.5,4.4,2.9H221.2L242,90.9s7.2,3,23.7,3c19.9,0,40.1-20.8,40.1-46.1,0-12.4-3-20.2-6.5-24.7H470.4l1.8-3.9h9l1.6-3.6,2.8-2.8h7.6l.9-2.8h5l1.6-3.9L512,1.5H261.9S280.2,5,280.2,31.9c0,24.6-18.8,38.4-35.3,38.4a63.6,63.6,0,0,1-11-1.2l-30.5,45.3-7.7-8.9Z" fill="#7da51c"/></svg>