<svg xmlns="http://www.w3.org/2000/svg" viewBox="0 0 512 512"><path d="M0,0V512H512V0Z" fill="#fff"/><path d="M243.7,110.9a149.1,149.1,0,0,0-78.6,32.7,202.7,202.7,0,0,0-26.2,26.2,153,153,0,0,0-31.4,72.1,189.4,189.4,0,0,0,.7,52.1,151.6,151.6,0,0,0,30.7,67.9,232.9,232.9,0,0,0,27.2,27.2,150.6,150.6,0,0,0,68.2,31c45,7.8,87.4-3.2,124.6-32.3,6.7-5.3,13.2-10.9,19.4-16.8.3-.7-1-2.3-6.5-7.1l-6.8-6.5-8.1,7.8a124.8,124.8,0,0,1-23.9,19,132.6,132.6,0,0,1-56,18.5,230.4,230.4,0,0,1-36.2-.7,131.2,131.2,0,0,1-75.4-39.1A132.8,132.8,0,0,1,126,250.3,126.3,126.3,0,0,1,154.4,184a255.4,255.4,0,0,1,24.3-24.5,138.1,138.1,0,0,1,67.9-29.8,189.1,189.1,0,0,1,35.3.6,146.8,146.8,0,0,1,68.5,30.8,139.7,139.7,0,0,1,29.8,34.3c5.2,8.7,12.3,25.2,12.3,28.1s-10.4,1-101.6,1H189.4v19H416.7l-1.2-7.7a154.7,154.7,0,0,0-28.2-63.1,227.3,227.3,0,0,0-28.4-28.8,151.2,151.2,0,0,0-72.8-32,200.4,200.4,0,0,0-42.4-.6Z"/><path d="M0,0V512H512V0ZM493.9,256.5v238H18.1V18.4H493.9Z" fill="#c72020"/></svg>