<svg xmlns="http://www.w3.org/2000/svg" xml:space="preserve" width="595.3" height="544" viewBox="0 0 595.3 544"><g fill="#00539f"><path d="M168.9 192.2v-42.6H57.6v42.6h25.6v91.1H57.6V326h111.3v-42.7h-25.5v-91.1zM291.6 217.3c-6.9-2-42.2-12.2-48.4-14.2s-11-4.8-11-8.5 5.6-7.5 17-7.5c35.8 0 53 22.2 53 22.2l2.6 3.5h34.6v-60.4h-37.1v11c-2.9-2-23.8-15.7-56.3-15.7-42.9 0-66.7 22.3-66.7 55.6s30 47 38.5 50.4 41 12.8 55 17.2 19.2 7.5 19.2 9.7-6.1 8.1-23.6 8.1c-30.5 0-46.2-18-49-21.4a113.4 113.4 0 0 1-4.2-6h-34.6v64.5h38.8v-13.5c4.6 3 27.7 17.5 55.5 17.5 31 0 70.5-13.5 70.5-55.7s-46.9-54.9-53.8-56.9zM444 147.2c-51.6 0-94 25.8-94 91.8s46 90.6 94.3 90.6 93.8-24.5 93.8-90-45.6-92.4-94-92.4zm.5 138.4c-17.7 0-29-4-29-46.9 0-42.8 8.4-47.3 29.7-47.3 12.9 0 28.5.9 28.5 46s-11.5 48.2-29.2 48.2z"/><path d="M131.8 130.1a194.7 194.7 0 0 1 42.2-45c6.7 5 13.7 9.4 21.1 13.3a415.9 415.9 0 0 0-25.3 31.7h7.4a403 403 0 0 1 23.4-28.8 193 193 0 0 0 33.8 12.7c-3.1 6.7-5.5 12.5-7 16.1h6.5c1.5-3.7 3.7-8.8 6.4-14.5 15 3.6 30.9 5.7 47 6v8.5h6v-8.4c16-.2 31.7-2 46.7-5.4 2.6 5.4 4.6 10.3 6 13.8h6.5c-1.3-3.4-3.6-9-6.5-15.3 12-3.1 23.5-7.3 34.4-12.4 9.3 10.4 18.1 22 22.4 27.7h7.5c-1.8-2.5-12.4-17-24.3-30.5 8.2-4.2 16-9 23.3-14.5a194.6 194.6 0 0 1 42.3 45h7.2a199 199 0 0 0-334.3 0h7.3zM237 108.5c-11.3-3-22-7-32.2-11.8a158 158 0 0 1 4.1-4.2c14-13.4 36.8-28.1 41.8-31.3a74 74 0 0 0 13.3 5.6 388 388 0 0 0-18.7 27c-3.1 4.8-5.9 9.9-8.3 14.7zm50.2 7.1c-15.2-.3-30-2.2-44.3-5.5 2.3-4.4 4.7-8.9 7.4-13 9-14.3 17.2-25 20-28.5 5.3 1.2 11 2 16.9 2.3v44.7zm6 0V71c5.8-.1 11.4-.7 16.9-1.8 3 4 10.8 14.3 19.4 27.8a167 167 0 0 1 7.7 13.7c-14.1 3.2-29 4.8-44 5zm50-6.3c-2.5-5-5.4-10.4-8.6-15.5a390.5 390.5 0 0 0-18.2-26.2 77 77 0 0 0 14.2-5.4c7 4.5 27.4 18 40.3 30.3l5.1 5.2a189.4 189.4 0 0 1-32.8 11.6zm61-28c-7 5.2-14.6 9.7-22.5 13.7-2.2-2.4-4.5-4.7-6.7-6.8a288.4 288.4 0 0 0-38.6-29.4c3-2 5.7-4 8.1-6.4 21.7 6.2 41.8 16.1 59.7 29zM291.7 45c15.8 0 31.2 2 46 5.6a74 74 0 0 1-46 14.4 73.8 73.8 0 0 1-46-14.4c14.7-3.6 30.1-5.6 46-5.6zm-53 7.4c2 2 4.1 3.7 6.5 5.3-8 5.1-27.5 18.1-40.3 30.5l-5.6 5.7c-7-3.8-13.9-8-20.2-12.5 17.8-12.9 38-22.8 59.6-29zM451.6 346a194.7 194.7 0 0 1-41.3 44.1A172 172 0 0 0 386 375a418.6 418.6 0 0 0 23.1-29h-7.5a403.1 403.1 0 0 1-21.2 26.2 194.3 194.3 0 0 0-34.4-12.5 257 257 0 0 0 5.9-13.7h-6.5c-1.4 3.4-3.2 7.7-5.4 12.3a217 217 0 0 0-46.7-5.4V346h-6v7c-16.2.3-32 2.3-47 6a256 256 0 0 1-5.7-13H228c1.4 3.7 3.6 8.8 6.3 14.5a192.8 192.8 0 0 0-33.8 12.8c-9-9.8-17.4-20.9-22.2-27.3h-7.5c3.6 5 13.4 18.1 24.2 30.2-7.8 4.1-15.2 8.8-22.1 14a194.6 194.6 0 0 1-41.2-44.2h-7.3a199 199 0 0 0 334.3 0h-7.2zm-108.3 19.2a189 189 0 0 1 32.8 11.5L371 382a298.5 298.5 0 0 1-40.3 30.4c-4.3-2.3-9-4-14.1-5.5 3.8-5 10.6-14.4 18-26.1a177 177 0 0 0 8.7-15.5zm-50-6.4c15.1.1 29.9 1.8 44 5-2.3 4.5-4.9 9.2-7.7 13.7a377 377 0 0 1-19.4 27.8c-5.4-1-11-1.7-16.9-1.8v-44.7zm-6 0v44.8a93 93 0 0 0-17 2.3 373.3 373.3 0 0 1-19.9-28.4c-2.7-4.3-5.1-8.7-7.4-13 14.2-3.5 29-5.3 44.3-5.6zm-50.2 7.1c2.4 4.9 5.2 10 8.3 14.8a388 388 0 0 0 18.7 27 73.3 73.3 0 0 0-13.3 5.5c-5-3.1-27.9-17.9-41.8-31.3l-4-4.1c10-4.9 20.8-8.8 32-11.9zM178 394a166 166 0 0 1 21.3-13.3l5.6 5.7a295.8 295.8 0 0 0 40.3 30.5c-2.9 2-5.4 4.1-7.7 6.5a192.5 192.5 0 0 1-59.5-29.4zM291.7 431c-16.4 0-32.3-2-47.5-5.9a73.3 73.3 0 0 1 47.5-15.6c18.7 0 36.3 5.9 47.4 15.6-15.2 3.9-31 6-47.4 6zm54.2-7.7a54.1 54.1 0 0 0-9.4-7.6 288 288 0 0 0 38.6-29.4 180 180 0 0 0 6.7-6.8 167 167 0 0 1 23.6 14.4c-17.8 13-37.9 23-59.5 29.4z"/><path d="M69 500.7c.4 5 2.3 8.4 5.8 10.3A14 14 0 0 0 92 507c3-3.6 5.2-10.9 6.5-21.8-2 3.1-4.5 5.4-7.5 6.6-2.9 1.3-6 2-9.5 2-6.9 0-12.3-2.2-16.3-6.5s-6-9.8-6-16.5c0-6.5 2-12.2 5.9-17.2s9.8-7.3 17.5-7.3c10.5 0 17.7 4.6 21.6 14a49.6 49.6 0 0 1 3.3 19.4c0 8.8-1.3 16.5-4 23.3-4.3 11.2-11.7 16.9-22.1 16.9-7 0-12.3-1.9-16-5.5a18.8 18.8 0 0 1-5.4-13.8h9zm23.5-18.2c3-2.4 4.4-6.5 4.4-12.3 0-5.3-1.3-9.2-4-11.8a14 14 0 0 0-10-3.9c-4.5 0-8 1.5-10.5 4.5-2.6 2.9-4 6.8-4 11.8 0 4.6 1.2 8.3 3.5 11 2.3 2.8 5.9 4.2 10.8 4.2 3.6 0 6.9-1.2 9.8-3.5zM160.2 457.9c3.2 5.9 4.8 14 4.8 24.2 0 9.8-1.5 17.8-4.4 24.2-4.2 9-11 13.7-20.6 13.7-8.6 0-15-3.8-19.1-11.2a51.2 51.2 0 0 1-5.3-25.1 62 62 0 0 1 3.2-21c3.9-10.8 11-16.2 21.3-16.2 9.3 0 16 3.8 20 11.4zm-9 47.7c2.7-4.2 4-11.9 4-23.1a57 57 0 0 0-3-20c-2-5.3-5.8-8-11.6-8-5.3 0-9.2 2.5-11.6 7.5-2.5 5-3.7 12.3-3.7 22a54 54 0 0 0 2.4 17.6c2.4 6.8 6.5 10.2 12.3 10.2 4.6 0 8.4-2.1 11.1-6.2zM217 457.9c3.3 5.9 4.9 14 4.9 24.2 0 9.8-1.5 17.8-4.4 24.2-4.2 9-11 13.7-20.5 13.7-8.6 0-15-3.8-19.2-11.2a51.2 51.2 0 0 1-5.3-25.1 62 62 0 0 1 3.2-21c3.9-10.8 11-16.2 21.3-16.2 9.3 0 16 3.8 20 11.4zm-9 47.7c2.8-4.2 4.2-11.9 4.2-23.1a57 57 0 0 0-3-20c-2-5.3-5.9-8-11.7-8-5.3 0-9.2 2.5-11.6 7.5-2.5 5-3.7 12.3-3.7 22a54 54 0 0 0 2.4 17.6c2.4 6.8 6.5 10.2 12.3 10.2 4.7 0 8.4-2.1 11.1-6.2zM236 467.3v-6.9c6.5-.6 11-1.6 13.6-3.1 2.6-1.5 4.5-5 5.8-10.5h7V518H253v-50.7H236zM294.5 465.2h10.4V476h-10.4v-11zm0 42h10.4V518h-10.4v-10.9zM318.6 502a31 31 0 0 1 13-12.5l9.6-5.6a45 45 0 0 0 9-6.4c2.7-2.7 4.1-6 4.1-9.5 0-4.2-1.2-7.5-3.7-10a13.6 13.6 0 0 0-10-3.6c-6.2 0-10.5 2.3-12.8 7-1.3 2.5-2 6-2.1 10.4h-9.2c.1-6.2 1.3-11.3 3.5-15.2 3.9-7 10.8-10.4 20.6-10.4 8.2 0 14.2 2.2 18 6.6 3.8 4.5 5.7 9.4 5.7 14.8 0 5.8-2 10.7-6 14.7a59.2 59.2 0 0 1-12.6 8.6l-6.9 3.8a44.4 44.4 0 0 0-7.7 5.2 18.7 18.7 0 0 0-6.3 9.6H364v8.5h-49.1c.3-6.2 1.6-11.5 3.8-16zM416.3 457.9c3.2 5.9 4.8 14 4.8 24.2 0 9.8-1.5 17.8-4.4 24.2-4.2 9-11 13.7-20.6 13.7-8.6 0-15-3.8-19.2-11.2a51.3 51.3 0 0 1-5.2-25.1 62 62 0 0 1 3.1-21c4-10.8 11-16.2 21.4-16.2 9.2 0 16 3.8 20 11.4zm-9 47.7c2.7-4.2 4-11.9 4-23.1a57 57 0 0 0-3-20c-2-5.3-5.8-8-11.6-8-5.3 0-9.2 2.5-11.6 7.5-2.5 5-3.7 12.3-3.7 22a54 54 0 0 0 2.3 17.6c2.4 6.8 6.6 10.2 12.4 10.2 4.6 0 8.3-2.1 11.1-6.2zM435.2 467.3v-6.9c6.5-.6 11-1.6 13.6-3.1 2.6-1.5 4.5-5 5.7-10.5h7.1V518H452v-50.7h-16.8zM495 499.8c.6 5.1 3 8.6 7.1 10.6 2.1 1 4.6 1.5 7.4 1.5 5.3 0 9.3-1.7 11.9-5 2.5-3.5 3.8-7.2 3.8-11.4a14.8 14.8 0 0 0-15.5-15.7c-3.1 0-5.8.6-8 1.8a17 17 0 0 0-5.7 5l-7.8-.4 5.5-38.5h37.1v8.6h-30.4l-3 20c1.6-1.3 3.2-2.3 4.7-3 2.7-1 5.8-1.6 9.3-1.6 6.5 0 12 2.2 16.6 6.4a21 21 0 0 1 6.9 16c0 6.8-2.1 12.8-6.3 18-4.2 5.1-10.8 7.7-20 7.7-5.8 0-11-1.6-15.5-5-4.4-3.2-7-8.2-7.5-15h9.4z"/></g></svg>