<svg xmlns="http://www.w3.org/2000/svg" width="920" height="1276" viewBox="0 0 9200 12760"><path fill="#003197" d="m385 12754-70-14c-29-6-75-27-109-50-32-22-63-40-67-40-5 0-9-7-9-15 0-7-6-18-13-22s-29-33-50-63c-73-109-67 469-65-6207C5 748 6 332 22 293A475 475 0 0 1 315 19C367 7 952 5 4605 5c3452 0 4239 2 4281 13 28 7 76 31 108 52 31 21 60 40 65 42 15 6 102 138 119 181 16 39 17 419 17 6082 0 5790-1 6042-18 6092-10 28-29 63-42 78-14 14-25 29-25 34 0 28-135 132-210 162-30 12-660 14-4265 15-2326 1-4239 0-4250-2z"/><path fill="#fafafd" d="M4600 125c-4196 0-4256 0-4294 19a501 501 0 0 0-162 162c-19 38-19 116-22 6044-1 4238 1 6020 8 6057 19 89 128 201 217 222 22 5 1772 8 4273 8 4192-2 4235-2 4275-22 54-26 151-127 167-173 11-30 13-1090 13-6067 0-5955 0-6030-19-6069a501 501 0 0 0-162-162c-38-19-98-19-4294-19zm1588 236a600 600 0 0 1 323 101l59 47c67 51 141 173 192 316 32 91 30 96-47 115l-90 25c-81 24-147 36-162 31-7-3-13-18-13-33 0-40-42-124-86-172a303 303 0 0 0-287-101 337 337 0 0 0-221 153c-30 46-45 84-89 227-15 48-24 324-15 441 22 281 116 453 278 507 76 26 104 27 175 7 121-36 214-148 247-300 16-70 29-82 75-68 61 17 243 89 254 100 15 15-54 212-104 301a567 567 0 0 1-517 298c-139 4-220-9-304-50a700 700 0 0 1-197-148 1021 1021 0 0 1-214-449c-34-165-37-207-32-379 10-353 98-610 267-779 88-88 139-122 236-156 71-25 175-37 272-34zm-2588 39v280h-407c-323 1-412 3-425 14-16 12-18 37-18 259v247l398 2 397 3v270l-379 3c-337 2-382 4-398 19-17 15-18 35-16 277l3 261 440 5c343 4 440 8 439 18-1 6-2 68-2 137l-2 125h-600c-471 0-602-3-605-12-3-7-4-438-3-958l3-945 588-3 587-2zm4400 0h320v1920h-320v-840l-306 2-306 3-1 415-2 415-163 3c-124 2-164 0-167-10-3-7-4-438-3-958l3-945h330l2 395 1 395 306 3 306 2V400zm-7150 5h905l87 29c73 23 95 36 135 76 68 68 113 148 140 249 54 203 12 429-108 574a607 607 0 0 1-214 129c-27 9-51 21-53 26-2 6 17 24 43 42 84 58 147 154 321 490 64 124 126 240 136 258 16 26 17 33 6 37-8 3-97 4-198 3l-184-3-59-105-97-175c-37-68-70-128-161-289-63-112-136-189-198-210-59-19-117-20-149-3l-23 13-2 385-2 384-162 3c-90 1-163-1-163-5V405zm3478 0h347l91 275 214 650 221 670 102 305c1 6-63 10-177 10h-179l-8-25-111-352-31-98h-595l-7 33c-4 17-15 57-25 87l-45 150-46 150-18 55-170 3c-131 2-171 0-171-10 0-7 17-64 39-128a22026 22026 0 0 0 141-440l70-220 75-235a24945 24945 0 0 0 145-455l65-205 60-185 13-35zM1403 681c-97 0-193 3-206 8-17 6-18 25-18 276l1 273c0 1 80 2 178 2 231 0 327-17 376-67 69-72 94-258 46-360-26-56-70-101-108-108l-58-15c-17-5-115-8-211-9zm3097 221c-8-1-15 10-22 33a15248 15248 0 0 1-68 225l-89 293c-11 37-21 76-21 87 0 20 6 20 203 18 173-3 202-5 198-18-6-29-37-132-81-275-45-145-73-242-88-303-10-39-21-59-32-60zM360 2680h8400v7760H360V2680zm3040 8278 258 3 257 4 50 32c98 63 159 221 137 355-16 94-51 166-105 215-60 56-121 73-257 73-59 0-117 5-131 12l-24 11v372l-92 3-93 3v-1083zm1000 1v921l228 2 227 3v150l-318 3c-249 2-319 0-322-10-3-7-4-249-3-538l3-525 93-3 92-3zm2520 0v1082l-97-3-98-3-150-297c-111-220-155-298-167-298-17 0-18 19-19 263l-2 297-2 35-92 3-93 3v-1081h190l170 340c94 187 171 340 173 340 1 0 2-152 2-337v-338l93-3 92-3zm1720 1v160h-227c-174 1-232 4-245 14-16 11-18 31-18 139v127l233 2 232 3v150l-210 2c-137 2-218 7-232 15-22 11-23 16-23 160v148l253 2 252 3v150l-342 3c-189 1-343-1-343-5v-1068l335-3 335-2zm-1191 2c23-1 45-1 67 1 132 10 230 83 285 212 35 83 36 103 7 115-32 13-149 31-159 24-5-3-9-20-9-39 0-47-76-130-132-146-79-21-163 20-213 105-42 72-67 273-46 371l22 102c23 108 135 188 228 163 52-14 100-65 131-142 35-83 43-87 121-53 90 40 92 43 75 91-42 122-95 189-185 237-45 25-66 29-149 32-116 5-149-2-222-41-132-71-220-265-220-484 0-58 7-136 15-173 25-118 101-259 159-297l60-39c31-20 98-35 165-39zm-6529 3c109 0 118 2 170 30 29 17 69 45 87 63 56 55 118 201 96 223-13 13-151 42-169 35-8-3-14-17-14-31 0-72-100-165-177-165-48 0-126 47-154 92-48 78-54 110-54 298 1 161 3 179 24 227 44 99 137 156 218 134 64-17 127-93 142-171 7-33 16-60 21-60s44 16 87 35l78 34-2 40c-1 25-17 69-39 112-39 73-76 108-159 152-58 30-220 35-292 9-70-25-122-62-165-119-78-104-109-204-115-377-10-246 87-455 246-533 51-26 66-28 171-28zm890 0c122 0 127 1 190 33 75 37 92 50 142 113 74 90 112 224 111 389 0 167-32 279-106 385a378 378 0 0 1-219 145c-57 11-175 11-228 1-61-13-136-58-184-112-97-108-130-214-130-419 0-149 14-224 58-314 38-78 108-152 180-189 59-30 66-31 186-32zm565 0h289l13 60c12 53 24 114 64 315l30 142c10 48 19 95 19 106 0 10 8 41 17 68l17 49 22-130 43-230 70-345 6-35h290v1070h-190l-3-303c-2-281-4-303-19-300-11 2-20 17-24 38a8264 8264 0 0 0-59 300l-32 163-22 107h-88c-48 0-89-4-92-9-9-13-85-397-109-551-10-64-15-75-32-75-19 0-20 8-23 318l-2 317h-90c-64 0-92-4-95-12-3-7-4-249-2-538l2-525zm2595 0h180l1 535 2 535-92 3c-50 1-91-1-91-5v-1068zm609 0h204l42 125c24 69 71 213 105 320l95 295c57 175 105 325 105 331 0 2-46 3-102 2l-102-3-41-135-42-135-165-3-166-2-22 72-44 138-22 65-95 3c-52 1-98 0-102-4-3-4-2-14 2-23 5-9 57-162 116-341l171-515 63-190zm-1916 155c-36 0-64 3-68 10-5 8-9 295-6 343 1 4 36 7 79 7 175 0 239-54 230-198-5-89-30-126-100-147-33-10-90-15-135-15zm-1843 2c-15 0-31 5-60 13-72 22-112 58-149 135-25 53-26 62-26 225 0 156 2 174 23 221 28 63 94 128 147 148 50 18 56 19 113 4 65-16 131-84 160-164 18-51 22-83 23-205 1-126-2-151-21-203-31-82-88-141-156-163-25-8-39-12-54-11zm3858 128c-4 0-19 39-34 88-14 48-37 119-50 159-13 39-24 78-24 87 0 14 16 16 111 16 85 0 110-3 106-12l-53-175c-27-90-52-163-56-163z"/><path fill="#ffd301" d="M4637 3568c-11 0-21 21-32 60-31 109-57 187-67 200-7 8-49 12-144 12-73 0-135 4-138 8-3 5 44 44 105 87 60 43 112 82 115 86 4 8-77 256-91 280-17 27 58-17 156-92 43-32 86-59 97-59 18 0 79 41 178 119 72 57 91 54 58-11-28-54-77-225-69-238 5-7 178-132 232-167 14-9-14-12-139-12l-157-1-15-28c-8-16-23-64-34-108-23-92-40-136-55-136zm-1293 382c-13 0-26 6-28 13l-36 114c-37 120-34 119-188 108-84-6-100-5-111 9-8 9-12 18-10 20l111 80 106 76-49 142-49 145 18-4c22-8 58-34 150-105 40-32 79-58 87-58 7 0 26 11 42 24l107 80c84 60 115 71 96 36-20-38-90-251-85-259 2-5 57-46 121-91 139-99 137-103-44-96-64 3-123 1-133-4-14-8-53-115-73-202-5-22-12-28-32-28zm2585 5c-18 0-25 8-35 45-43 157-50 174-75 181-13 3-69 4-124 1-89-4-102-2-117 14-16 18-12 22 92 97l109 78-49 140c-33 94-45 139-36 139 7 0 62-36 122-80s113-80 119-80 50 30 99 68c155 118 163 119 123 15-47-126-68-193-62-202 3-5 57-46 120-91s118-86 121-92c5-8-32-10-127-6-74 3-145 2-159-1-21-6-30-22-61-116-32-98-39-110-60-110zm951 925c-14 0-24 18-40 73-43 145-51 165-66 171-9 3-74 6-144 6-71 0-131 4-134 9s46 46 109 91c63 46 115 87 115 93 0 5-20 68-45 139s-45 131-45 134c0 17 58-18 157-96 42-33 83-60 93-60 9 0 65 36 124 80 58 44 111 80 116 80 13 0 13-37 0-45s-80-223-74-238c4-11 54-48 198-147l51-35-160-5-160-5-17-50-38-122c-17-55-27-73-40-73zm-4485 10c-18 0-26 15-55 110-18 60-38 114-45 120-6 5-71 11-145 12-78 2-135 7-136 13-2 6 42 41 97 80 142 99 135 84 95 191-18 50-37 105-41 122-3 17-11 34-16 37-5 4-9 10-9 16 0 22 49-5 155-86 47-36 92-65 101-65 15 0 30 10 160 107 90 68 111 70 79 10-17-33-75-211-75-231 0-7 43-44 96-82s108-79 122-91l27-22-151-1c-109 0-154-4-162-12-5-7-25-61-43-120-28-94-35-108-54-108zm4829 1271c-10 0-18 19-29 56a713 713 0 0 1-72 199c-12 12-40 14-149 12-73-1-136 0-139 3s46 43 109 88c64 45 118 86 121 90 3 5-17 73-44 150-27 78-46 141-43 141 9 0 66-40 166-114 92-69 78-71 224 39 56 43 105 75 108 72 4-4-2-28-14-54-11-26-29-78-41-116-11-37-25-76-31-87-8-16-4-24 27-49 42-33 170-129 200-148 14-9-11-12-127-13-80 0-151-4-158-9-8-5-30-64-51-132-26-88-42-129-57-128zm-5177 19c-20 0-26 7-31 33-14 77-55 191-72 204-14 10-51 13-146 12-70-2-131 0-134 4-5 5 158 131 212 163 17 10 16 18-25 140-24 71-48 137-53 147-9 17-8 17 19 4 15-8 73-47 127-86 55-39 102-71 105-71 9 0 52 29 145 98 46 34 89 62 94 62 7 0 7-10 2-27l-45-133c-19-58-35-109-35-115 0-5 13-19 29-30l121-85 92-65-134-2c-73-2-142-5-153-8-17-3-28-27-54-112l-37-120c-2-7-14-13-27-13zm347 1271c-10 1-19 27-33 72-42 135-63 186-78 191-8 3-70 6-138 6s-126 4-129 9 43 44 104 87c60 44 112 85 115 92 2 7 0 20-5 30-5 9-25 62-43 117l-42 118c-4 9-4 17 0 17 9 0 108-65 177-117 31-24 65-43 75-43 11 0 68 36 127 80 60 44 113 80 117 80 13 0 11-23-5-46-19-27-79-222-73-238 3-7 58-51 122-97l117-84-148-3c-81-1-153-7-159-12-7-6-22-45-34-88-35-121-52-172-67-171zm4482 1c-11 2-21 33-35 85-14 48-34 108-45 133l-21 45-134 5c-77 3-136 9-137 15-2 6 45 44 104 86 88 62 107 80 106 100a1861 1861 0 0 1-91 269c15 0 84-43 154-97 47-34 93-63 104-63 18 0 200 127 214 149 11 18 35 12 35-8 0-11-4-22-9-25-5-4-21-45-36-94l-37-115c-7-17-7-32-2-37s62-47 128-94l119-85-159-3-158-3-24-75c-42-134-61-191-76-188zm-3532 968c-19 0-25 8-34 43-21 80-62 192-73 200-7 4-55 7-107 6-143-1-170 0-170 10 0 5 51 45 114 90l114 80-48 141c-27 79-43 140-37 140 13 0 68-37 160-107 38-29 74-53 81-53 6 0 60 36 120 80 112 82 146 98 126 60-6-11-29-72-51-136-29-85-37-119-29-129 6-7 41-33 78-59 37-25 78-54 92-66 14-11 30-20 36-20s17-7 24-15c11-13-5-15-138-15-118 0-152-3-162-14-11-14-25-58-57-178-14-50-19-58-39-58zm2588 2h-4c-17 2-24 14-34 53-6 28-19 70-28 94s-16 52-16 63c0 30-44 39-182 37-71 0-131 0-133 2s52 44 120 92l124 88-49 139c-34 96-45 140-36 140 7 0 62-36 122-80s113-80 119-80 59 36 118 80c58 44 111 80 117 80 14 0 13-26-3-58-26-51-78-212-72-221 4-8 175-131 232-168 14-9-12-12-133-12-109-1-154-5-162-13-7-10-48-126-78-226-2-6-11-11-22-10zm-1295 318c-8 0-21 28-31 63-32 108-57 182-68 194-7 8-54 13-144 15-79 2-135 7-136 13s48 45 108 88c60 42 111 82 113 88s-2 21-8 32c-6 12-26 67-45 122l-41 119c-8 17-6 17 23 2 17-9 73-48 123-86 50-39 99-70 108-70s65 36 123 80 111 80 117 80c16 0 14-27-4-54-15-23-75-200-75-222 0-7 56-52 124-101l125-88-157-5-156-5-18-45-43-132c-15-51-31-88-38-88z"/></svg>