<svg xmlns="http://www.w3.org/2000/svg" viewBox="0 0 512 182"><path fill="#1c733c" d="M74.69 180.87c-6.2-.9-18.9-5.12-25.55-8.47-14.72-7.43-30.15-22.71-38.65-38.27C-3.02 109.38-3.53 75.35 9.26 50.7 22.42 25.32 44.87 7.8 70.9 2.62 77.8 1.25 123.8.76 123.8.76l45.01-.28.45 75.74-47.2.28 46.95 29.28-.13 8.6-84-51.53.4 11.2 83.47 50.99.12 9.03-83.8-51.68.22 11.06 83.55 51.42.5 8.38-84.17-50.08.12 9.22 84.39 51.91-.04 8.86-84.03-50.64.22 9.1 80.4 50.2s-61.79.65-91.54-.95zm107.73-.2-.08-7 85.58-.51v7.5zM384.76 74.5h-42.4v-8.66H512v8.66h-42.41v106.46h-84.83zm-202.19 89.66.09-7 85.26-.45v7.52zm.05-16.32.04-7.13 85.26-.48v7.84zm.26-15.83-.16-7.3 85.15-.7.15 7.61zm0-16.45L182.23.05 512 .2v6.76l-169.05.45.18 9.08H512v7.8H343.11l.1 8.65H512v7.78l-168.89.44.01 8.22H512v7.8l-169.7.37V54.9l-74.62.2.13 6.4h50.3v53.67z"/></svg>