<svg xmlns="http://www.w3.org/2000/svg" viewBox="0 0 132 29.2"><path fill="#E73843" d="M5.2 14.1c-.6-.5-1.1-1.1-1.4-1.8-.3-.7-.5-1.6-.5-2.6s.2-1.9.5-2.6c.3-.7.8-1.3 1.4-1.8a7 7 0 0 1 1-.8V1.2c-.2.1-.4.1-.6.2-.8.3-1.6.8-2.3 1.2A8.17 8.17 0 0 0 .4 6.8C.1 7.7 0 8.6 0 9.7a8.57 8.57 0 0 0 3.3 7c.9.6 1.8 1.1 2.9 1.5v-3.4c-.3-.2-.7-.4-1-.7"/><path fill="#77777A" d="M40.8 9.5c-2.1.1-3.9.3-5.5.5-1.7.2-3.2.6-4.3.9-1 .3-1.7.7-2.2 1.1-.3.3-.5.6-.5 1 0 .3.1.6.2.9.2.3.4.5.8.7.4.2.9.4 1.5.5.6.1 1.4.2 2.2.2.5 0 1 0 1.5-.1s1-.1 1.6-.2c.5-.1 1.1-.2 1.5-.4.5-.1 1-.3 1.4-.4.4-.2.8-.3 1.2-.5.2-.1.3-.2.5-.3V9.5zm-8.1 9c-1.1 0-2.1-.1-3-.3-.9-.2-1.7-.5-2.4-1s-1.3-1-1.6-1.7c-.4-.7-.6-1.5-.6-2.4 0-.9.2-1.7.7-2.4.4-.7 1.1-1.2 1.8-1.7.7-.4 1.6-.8 2.6-1.1 1-.3 2.1-.5 3.3-.7 1.2-.2 2.5-.4 3.9-.5l3.5-.3V6a2 2 0 0 0-.2-.9c-.1-.3-.3-.5-.6-.7l-.9-.6c-.4-.2-.8-.3-1.3-.4-.5-.1-1-.2-1.5-.2-.6 0-1.1-.1-1.7-.1-.7 0-1.4 0-2 .1-.6.1-1.2.2-1.7.3-.5.1-1.1.3-1.5.4l-1.5.6-1.4.5V1.3l.7-.2c1.1-.3 2.3-.6 3.5-.8 1.3-.2 2.7-.3 4.1-.3 1.2 0 2.4.1 3.4.3 1.1.2 2.1.6 2.9 1.1a5.57 5.57 0 0 1 2.9 5v11.8h-3.3V17c-.2.1-.4.2-.7.3-.7.3-1.5.5-2.3.7-.8.2-1.7.3-2.5.4-.9 0-1.7.1-2.6.1M53.6 18.1 44.7.3h3.7l6.9 13.9L62.2.3h3.7l-9 17.8zM67.9.3h3.3v17.9h-3.3zM84.8 3.1c-1.3 0-2.5.1-3.5.4-1 .3-1.8.7-2.4 1.2-.6.5-1.1 1.1-1.4 1.9a7.08 7.08 0 0 0 0 5.2c.3.7.8 1.3 1.4 1.8.6.5 1.4.9 2.4 1.2 1 .3 2.2.4 3.5.4 1.3 0 2.5-.1 3.5-.4 1-.3 1.8-.7 2.4-1.2.6-.5 1.1-1.1 1.4-1.9.3-.8.5-1.6.5-2.6s-.2-1.9-.5-2.7c-.3-.7-.8-1.3-1.4-1.8-.6-.5-1.4-.9-2.4-1.2-1-.1-2.2-.3-3.5-.3m0 15.4c-1.5 0-2.9-.2-4.3-.5-1.3-.4-2.5-1-3.5-1.7-1-.8-1.8-1.7-2.4-2.9-.6-1.2-.9-2.6-.9-4.1A9.25 9.25 0 0 1 75.2 4a8.36 8.36 0 0 1 4.1-3c.8-.3 1.7-.6 2.6-.7.9-.2 1.9-.3 2.9-.3 1.5 0 2.9.2 4.2.5 1.3.4 2.5.9 3.5 1.7 1 .8 1.8 1.7 2.4 2.9.6 1.2.9 2.6.9 4.1a8.57 8.57 0 0 1-3.3 7c-1 .7-2.2 1.3-3.5 1.7-1.3.4-2.7.6-4.2.6M128.7 13.4c-.1.1-.3.2-.5.3-.3.2-.7.3-1.2.5-.4.2-.9.3-1.4.4-.5.1-1 .3-1.5.4-.5.1-1 .2-1.6.2-.5.1-1 .1-1.5.1-.8 0-1.5-.1-2.2-.2-.6-.1-1.1-.3-1.5-.5-.4-.2-.6-.4-.8-.7-.2-.2-.2-.5-.2-.9s.2-.7.5-1c.4-.4 1.2-.8 2.2-1.1 1.1-.4 2.5-.7 4.3-.9 1.5-.2 3.4-.4 5.5-.5v3.9zm2.5-10c-.5-.8-1.2-1.5-2.1-2-.8-.5-1.8-.8-2.9-1.1-1.1-.2-2.2-.3-3.4-.3-1.4 0-2.8.1-4.1.3-1.2.2-2.4.5-3.5.8l-.7.2V5l1.3-.5 1.5-.6c.5-.2 1-.3 1.5-.4.5-.1 1.1-.2 1.7-.3.6-.1 1.3-.1 2-.1.5 0 1.1 0 1.7.1.6.1 1.1.1 1.5.2.5.1.9.2 1.3.4s.7.3.9.6c.2.2.4.4.6.7.1.3.2.6.2.9v.4l-3.5.3c-1.4.1-2.6.3-3.9.5-1.2.2-2.3.5-3.3.7-1 .3-1.9.7-2.6 1.1-.8.5-1.4 1.1-1.8 1.7-.5.7-.7 1.5-.7 2.4 0 .4.1.9.2 1.3-.1 0-.1 0-.2.1-.5.2-1 .3-1.5.4-.5.1-1.1.2-1.7.3-.6.1-1.3.1-2 .1-.5 0-1.1 0-1.7-.1-.5 0-1-.1-1.5-.2s-.9-.2-1.3-.4-.7-.3-.9-.6c-.2-.2-.4-.4-.5-.7-.1-.3-.2-.6-.2-.9v-1.2l-.1-5.7h5.6V2.1h-5.5V.3h-3.3v11.8a5.57 5.57 0 0 0 2.9 5c.8.5 1.8.8 2.9 1.1 1.1.2 2.2.3 3.4.3 1.4 0 2.8-.1 4.1-.3 1.3-.2 2.4-.5 3.5-.8l.3-.1c.6.4 1.4.7 2.3.9.9.2 1.9.3 3 .3.8 0 1.7-.1 2.6-.2.9-.1 1.7-.3 2.5-.4.8-.2 1.6-.4 2.3-.7.2-.1.5-.2.7-.3v1.2h3.3V6.4c-.1-1.2-.4-2.2-.9-3M22 17.2V.3h-3.3v2.3c-1-.7-2.2-1.3-3.5-1.6C13.9.7 12.5.5 11 .5c-.6 0-1.2 0-1.8.1v3.1c.6-.1 1.1-.1 1.8-.1 1.3 0 2.5.1 3.5.4.9.3 1.7.7 2.4 1.2.6.5 1.1 1.1 1.4 1.8a7.08 7.08 0 0 1 0 5.2c-.3.7-.8 1.3-1.4 1.8-.6.5-1.4.9-2.4 1.2-1 .3-2.2.4-3.5.4-.6 0-1.2 0-1.8-.1v3.1a18.6 18.6 0 0 0 6-.4c1.3-.4 2.5-.9 3.5-1.6v.8c-.1 1.7-.6 2.1-1 2.5l-.1.1c-.2.2-.7.3-1.1.5-.5.2-1.1.3-1.7.4-.6.1-1.3.2-2 .2s-1.4.1-2.1.1c-1 0-1.8 0-2.6-.1-.7-.1-1.5-.2-2.1-.3-.6-.1-1.3-.3-1.9-.4-.7-.2-1.3-.4-1.9-.6L1 19.4V23l.7.2a48.33 48.33 0 0 0 9.2 1c1.5 0 2.9-.1 4.2-.3 1.1-.2 2.5-.4 3.6-1 3.4-1.6 3.4-4.4 3.3-5.7M34.3 27.8l-.1-4.2h-1.3s-.1 0-.1-.1v-.6s0-.1.1-.1h3.6s.1 0 .1.1v.6s0 .1-.1.1h-1.3v4.2s0 .1-.1.1h-.8zM39.7 27.8c-.1 0-.1 0 0 0l-.1-2.1c0-.5-.2-.8-.7-.8-.4 0-.7.3-.7.8v2.1s0 .1-.1.1h-.7s-.1 0-.1-.1v-4.9s0-.1.1-.1h.7s.1 0 .1.1v1.7c.2-.2.5-.4.9-.4.8 0 1.2.6 1.2 1.3v2.3s0 .1-.1.1h-.5zM41.5 26.9c-.1-.2-.1-.5-.1-.9s0-.7.1-.9c.2-.6.8-1 1.5-1s1.3.4 1.5 1c.1.3.1.5.1 1.1 0 0 0 .1-.1.1h-2.2c0 .1 0 .2.1.3.1.3.4.5.8.5s.7-.1.8-.3h.1l.4.4v.1c-.3.4-.8.6-1.5.6s-1.3-.3-1.5-1m2.2-1.6c-.1-.3-.4-.5-.7-.5-.3 0-.6.2-.7.5v.3h1.4v-.3M47.2 27.3v-.1l.5-.5h.1c.3.3.8.5 1.4.5.6 0 1-.3 1-.7 0-.4-.2-.6-.9-.7H49c-1-.1-1.5-.6-1.5-1.4 0-.9.7-1.5 1.7-1.5.6 0 1.2.2 1.6.5v.1l-.4.6h-.1c-.4-.3-.8-.4-1.2-.4-.5 0-.8.3-.8.7 0 .3.2.6.9.7h.3c1 .1 1.5.6 1.5 1.5s-.6 1.6-1.9 1.6c-.8-.3-1.5-.6-1.9-.9M54.1 27.8l-.1-.3c-.2.2-.5.4-.9.4-.8 0-1.2-.6-1.2-1.3v-2.3s0-.1.1-.1h.7s.1 0 .1.1v2.1c0 .5.2.8.7.8.4 0 .7-.3.7-.8v-2.1s0-.1.1-.1h.7s.1 0 .1.1v3.4s0 .1-.1.1h-.9zM58.4 27.8c-.1 0-.1 0 0 0l-.1-2.1c0-.5-.2-.8-.7-.8-.4 0-.7.3-.7.8v2.1s0 .1-.1.1h-.7s-.1 0-.1-.1v-3.4s0-.1.1-.1h.7s.1 0 .1.1v.3c.2-.2.5-.4.9-.4.8 0 1.2.6 1.2 1.3v2.3s0 .1-.1.1h-.5zM63 25c-.4-.5-.6-.8-.6-1.2 0-.7.6-1.2 1.3-1.2.7 0 1.2.5 1.2 1.1 0 .5-.2.8-.9 1.3l.8 1 .5-.6h.1l.4.3v.1l-.6.7.2.2c.1.1.2.2.3.2h.1s.1 0 .1.1v.6s0 .1-.1.1h-.2c-.3 0-.5-.1-.7-.4l-.1-.2c-.4.4-.8.6-1.3.6-.9 0-1.4-.6-1.4-1.4 0-.3.2-.7.9-1.3m.5 2.2c.3 0 .5-.1.8-.5l-.9-1.1c-.5.4-.6.7-.6.9 0 .4.3.7.7.7m.7-3.4c0-.2-.2-.4-.5-.4s-.5.2-.5.5c0 .2.1.3.4.7.5-.4.6-.5.6-.8M68.7 27.3v-.1l.5-.5h.1c.3.3.8.5 1.4.5.6 0 1-.3 1-.7 0-.4-.2-.6-.9-.7h-.3c-1-.1-1.5-.6-1.5-1.4 0-.9.7-1.5 1.7-1.5.6 0 1.2.2 1.6.5v.1l-.4.6h-.1c-.4-.3-.8-.4-1.2-.4-.5 0-.8.3-.8.7 0 .3.2.6.9.7h.3c1 .1 1.5.6 1.5 1.5s-.6 1.6-1.9 1.6c-.8-.3-1.5-.6-1.9-.9M75.7 27.8c-.1 0-.1 0 0 0l-.1-2.1c0-.5-.2-.8-.7-.8-.4 0-.7.3-.7.8v2.1s0 .1-.1.1h-.7s-.1 0-.1-.1v-4.9s0-.1.1-.1h.7s.1 0 .1.1v1.7c.2-.2.5-.4.9-.4.8 0 1.2.6 1.2 1.3v2.3s0 .1-.1.1h-.5zM79.8 27.8s-.1 0 0 0l-.1-.3c-.2.2-.5.4-.9.4-.8 0-1.2-.6-1.2-1.3v-2.3s0-.1.1-.1h.7s.1 0 .1.1v2.1c0 .5.2.8.7.8.4 0 .7-.3.7-.8v-2.1s0-.1.1-.1h.7s.1 0 .1.1v3.4s0 .1-.1.1h-.9zM82.8 27.9c-.7 0-1-.3-1-1V25h-.2s-.1 0-.1-.1v-.5s0-.1.1-.1h.2v-1s0-.1.1-.1h.7s.1 0 .1.1v1h.5s.1 0 .1.1v.5s0 .1-.1.1h-.5v1.9c0 .3.1.3.3.3h.2s.1 0 .1.1v.6s0 .1-.1.1h-.4zM85.3 27.9c-.7 0-1-.3-1-1V25H84s-.1 0-.1-.1v-.5s0-.1.1-.1h.2v-1s0-.1.1-.1h.7s.1 0 .1.1v1h.5s.1 0 .1.1v.5s0 .1-.1.1h-.5v1.9c0 .3.1.3.3.3h.2s.1 0 .1.1v.6s0 .1-.1.1h-.3zM86.7 26.9c-.1-.2-.1-.5-.1-.9s0-.7.1-.9c.2-.6.8-1 1.5-1s1.3.4 1.5 1c.1.3.1.5.1 1.1 0 0 0 .1-.1.1h-2.2c0 .1 0 .2.1.3.1.3.4.5.8.5s.7-.1.8-.3h.1l.4.4v.1c-.3.4-.8.6-1.5.6-.8 0-1.3-.3-1.5-1m2.2-1.6c-.1-.3-.4-.5-.7-.5-.3 0-.6.2-.7.5v.3h1.4v-.3M90.8 27.8l-.1-3.5s0-.1.1-.1h.7s.1 0 .1.1v.3c.2-.3.5-.5.9-.5.3 0 .6.1.8.3v.1l-.4.5h-.1c-.2-.1-.3-.2-.5-.2-.5 0-.7.3-.7.9v1.9s0 .1-.1.1h-.7zM95.6 27.3v-.1l.5-.5h.1c.3.3.8.5 1.4.5.6 0 1-.3 1-.7 0-.4-.2-.6-.9-.7h-.3c-1-.1-1.5-.6-1.5-1.4 0-.9.7-1.5 1.7-1.5.6 0 1.2.2 1.6.5v.1l-.4.6h-.1c-.4-.3-.8-.4-1.2-.4-.5 0-.8.3-.8.7 0 .3.2.6.9.7h.3c1 .1 1.5.6 1.5 1.5s-.6 1.6-1.9 1.6c-.7-.3-1.5-.6-1.9-.9M100.4 29.2l-.1-4.9s0-.1.1-.1h.7s.1 0 .1.1v.3c.2-.2.5-.4 1-.4.6 0 1.1.3 1.2.9.1.3.1.5.1 1s0 .7-.1 1c-.2.6-.6.9-1.2.9-.5 0-.8-.2-1-.4v1.6s0 .1-.1.1h-.7zm2.2-2.5c.1-.2.1-.3.1-.7 0-.3 0-.5-.1-.7-.1-.3-.3-.5-.7-.5-.3 0-.6.2-.7.5-.1.2-.1.3-.1.7 0 .3 0 .5.1.7.1.3.3.5.7.5.4 0 .6-.2.7-.5M104.5 26.9c-.1-.2-.1-.5-.1-.9s0-.7.1-.9c.2-.6.8-1 1.5-1s1.3.4 1.5 1c.1.3.1.5.1 1.1 0 0 0 .1-.1.1h-2.2c0 .1 0 .2.1.3.1.3.4.5.8.5s.7-.1.8-.3h.1l.4.4v.1c-.3.4-.8.6-1.5.6-.8 0-1.3-.3-1.5-1m2.1-1.6c-.1-.3-.4-.5-.7-.5-.3 0-.6.2-.7.5v.3h1.4c.1-.1.1-.2 0-.3M108.4 26.9c-.1-.2-.1-.5-.1-.9s0-.7.1-.9c.2-.6.8-1 1.5-1 .5 0 1 .2 1.2.6v.1l-.5.4h-.1a.9.9 0 0 0-.7-.3c-.3 0-.6.2-.7.5-.1.2-.1.4-.1.7 0 .3 0 .5.1.7.1.3.3.5.7.5.3 0 .5-.1.7-.3h.1l.5.4v.1c-.3.3-.7.6-1.2.6-.7-.2-1.2-.5-1.5-1.2M112.2 23.6l-.1-.7s0-.1.1-.1h.7s.1 0 .1.1v.6s0 .1-.1.1h-.7zm0 4.2-.1-3.5s0-.1.1-.1h.7s.1 0 .1.1v3.4s0 .1-.1.1h-.7zM116.3 27.8l-.1-.3c-.2.2-.5.4-1 .4-.7 0-1.2-.3-1.2-1.1s.6-1.1 1.4-1.1h.7v-.2c0-.4-.2-.6-.8-.6-.4 0-.6.1-.8.2h-.1l-.3-.5v-.1c.3-.2.7-.3 1.3-.3 1.1 0 1.5.4 1.5 1.3v2.3s0 .1-.1.1h-.5zm0-1.2v-.3h-.6c-.5 0-.8.1-.8.5 0 .3.2.4.6.4.5.1.8-.1.8-.6M119.2 27.9c-.7 0-1-.3-1-1v-4s0-.1.1-.1h.7s.1 0 .1.1v4c0 .2.1.3.3.3h.2s.1 0 .1.1v.6s0 .1-.1.1h-.4zM120.6 23.6c-.1 0-.1 0 0 0l-.1-.7s0-.1.1-.1h.7s.1 0 .1.1v.6s0 .1-.1.1h-.7zm0 4.2c-.1 0-.1 0 0 0l-.1-3.5s0-.1.1-.1h.7s.1 0 .1.1v3.4s0 .1-.1.1h-.7zM122.3 27.4v-.1l.4-.4h.1c.3.2.7.4 1 .4.4 0 .7-.2.7-.4s-.1-.4-.6-.4h-.4c-.7-.1-1.1-.4-1.1-1.1 0-.7.5-1.1 1.4-1.1.6 0 1 .2 1.3.4v.1l-.4.4h-.1c-.2-.2-.6-.3-.9-.3s-.5.2-.5.4.1.3.6.4h.4c.8.1 1.1.5 1.1 1 0 .7-.5 1.2-1.5 1.2-.7 0-1.2-.3-1.5-.5M127.4 27.9c-.7 0-1-.3-1-1V25h-.2s-.1 0-.1-.1v-.5s0-.1.1-.1h.2v-1s0-.1.1-.1h.7s.1 0 .1.1v1h.5s.1 0 .1.1v.5s0 .1-.1.1h-.5v1.9c0 .3.1.3.3.3h.2s.1 0 .1.1v.6s0 .1-.1.1h-.4zM128.6 27.4v-.1l.4-.4h.1c.3.2.7.4 1 .4.4 0 .7-.2.7-.4s-.1-.4-.6-.4h-.4c-.7-.1-1.1-.4-1.1-1.1 0-.7.5-1.1 1.4-1.1.6 0 1 .2 1.3.4v.1l-.4.4h-.1c-.2-.2-.6-.3-.9-.3-.4 0-.5.2-.5.4s.1.3.6.4h.4c.8.1 1.1.5 1.1 1 0 .7-.5 1.2-1.5 1.2-.7 0-1.2-.3-1.5-.5"/></svg>