<svg xmlns="http://www.w3.org/2000/svg" viewBox="0 0 512 173"><g fill="#090909"><path d="M94.8,33c2.4-.1,3.9-.6,5.4,1.4,3.9,4.8,13.7,2.6,12.6-5.5-25.1,13-24.6-35.9.1-20.3.7-3,2.6-2.3,4.9-1.9-1.5,10.3,5.5,31.5-9.3,33.3C103.1,41.1,95.5,40,94.8,33Zm18.4-15.1C113.7,7.3,98.3,6,98.8,18s15.1,12.4,14.4-.1Z"/><path d="M174.2,28.6V39.3l-3.7.3c-1-1.2-1.3-26.3-.4-33.1,1.7,0,3.8-1.2,4.1,1.5C200.8-5.5,198.7,42.2,174.2,28.6Zm14.4-9.9c1.5-9.5-11.2-13.3-13.7-4.1-4.4,13.2,12.3,18.5,13.7,4.1Z"/><path d="M209.5,5.7c17.1-.9,16.9,25.8.2,25.3S192.8,5.2,209.5,5.7Zm7.8,12c-1.1-15.3-20.3-7.6-14.2,5.2,3.6,7.7,15,4.6,14.2-5.2Z"/><path d="M163.2,30.2c-2-.2-4.3,1.3-4.6-2.4-5.6,5.4-17.7,4.3-17.1-5.2-.1-5.3,0-10.6,0-16.1h4.7c1,5.6-3.1,18.6,3.6,20.5,11.7,1.8,8.4-12.9,8.9-20.4l4.5-.2Z"/><path d="M128.8,30.1h-4.1c-.8-3-1-18.3-.3-23.5h3.7l.5,2.6c2.5-2,4.7-4.3,8.5-3.2l.2,3.4c-5.8,1.7-8.8,2-8.5,8.9Z"/><path d="M512,126.6c-8.4,1.5-18.3,1.1-17.9-10-13.1,16.6-57.1,18.9-56.6-9,1.1-30.2,51.6-12.6,55.8-26.8,2.2-16-18.8-15.7-29.7-14.3s-13.2,6-14.6,13.7h-8.4c.5-23.9,30.7-25,48.3-20.3,11.7,2.6,13.7,13,13.4,23.6v27.9c-.7,7.7,2.7,9.1,9.7,8.4Zm-18.7-35c-12,5.3-46.2-.6-46.3,16.6s23.7,15.2,34.5,9.6S494.5,102.2,493.3,91.6Z"/><path d="M265.7,78.9h-7.8c-1.9-23.3,28.5-26.3,45.5-21.6,9.2,2.4,13.6,7.3,14.3,16.9.6,12.5.2,25,.3,37.5-.7,7.2,3.1,8.6,9.6,8v6.2c-10.6,4-16.2,1-17.9-9.6-13.6,19.8-61.3,17.4-54.7-13.5,5.3-25.1,48.9-9.8,54-22.9,3.3-16.5-17.4-16.7-28.6-15.3S267.7,69.1,265.7,78.9Zm43.2,11.7c-12.1,5.9-46.4-1.1-45,17.9.9,15.4,22.6,14.9,33.1,9.4S310.1,101.6,308.9,90.6Z"/><path d="M359.8,105.8h8.6c3.3,18.1,26.3,16.1,40.2,13,8.7-1.3,12.9-15.6,2.9-18.4-16.7-6.4-57.4-.3-48.4-29.4,8.2-20.6,63.6-17.6,61,8.7h-8.5c-2.3-7.3-6.9-12.2-14.7-13.1-9.5-1-26.1-2.7-28.9,9.3s29.2,11.2,37.9,14.4c19.5,2,24,24.3,7.3,33.8-5.5,3-11.4,4-17.5,4.5C384,129.8,358.5,126.8,359.8,105.8Z"/><path d="M241.2,129h-9.6c-.4-14.8-.1-29.5-.2-44.3.6-9-4.1-16.7-13.9-17.9-43.1-5.4-32.1,33.5-33.4,62.1h-9.3V60h9V72.2c9.9-13,23.9-16.5,39.6-13.1,12.4,2.3,18.1,13.9,18,25.6C241.3,99.5,241.7,114.2,241.2,129Z"/><rect x="148.4" y="60.1" width="9.8" height="69.04"/><rect x="338.1" y="33.6" width="9.7" height="95.42"/></g><rect fill="#c2393a" y="129.1" width="43.7" height="43.74"/><polygon fill="#c1c2c7" points="86.4 43.9 86.4 86.5 43.7 86.5 43.7 129.1 129 129.1 129 43.9 86.4 43.9"/><polygon fill="#1a7eba" points="43.7 43.9 86.4 43.9 86.4 0.1 0 0.1 0 86.5 43.7 86.5 43.7 43.9"/></svg>