<svg xmlns="http://www.w3.org/2000/svg" viewBox="0 0 355.19 90"><g fill="#2d5d93"><path d="M118.59,58.49l-.93,1.83h-1.18l4.31-8.51h.8l4.28,8.51h-1.24l-.92-1.83Zm.5-1h4.12l-2.06-4.1Z"></path><path d="M127.86,51.76h1v8.51h-1Z"></path><path d="M130.64,54.16h1v3.93c0,1,.44,1.45,1.32,1.45a1.82,1.82,0,0,0,1.27-.42,1.56,1.56,0,0,0,.45-1.18V54.16h1v6.11h-1v-.82a2.32,2.32,0,0,1-1.91.92,2.11,2.11,0,0,1-1.58-.59,2.27,2.27,0,0,1-.57-1.65Z"></path><path d="M137.52,54.16h1v.78a2.69,2.69,0,0,1,.86-.67,2.31,2.31,0,0,1,1-.21,3.54,3.54,0,0,1,.69.06,1.76,1.76,0,0,1,.55.22,1.92,1.92,0,0,1,.43.38,3.54,3.54,0,0,1,.37.59,2.2,2.2,0,0,1,.89-.92,2.64,2.64,0,0,1,1.32-.33,2.51,2.51,0,0,1,1.06.21,1.79,1.79,0,0,1,.73.63,2,2,0,0,1,.26.59,3.63,3.63,0,0,1,.07.81v4h-1v-4a1.37,1.37,0,0,0-.34-1,1.39,1.39,0,0,0-1-.33,2,2,0,0,0-1,.25,2.09,2.09,0,0,0-.73.83v4.27h-1v-4a1.23,1.23,0,0,0-1.4-1.38A1.7,1.7,0,0,0,138.53,56v4.27h-1Z"></path><path d="M148.5,52.76v-1h1v1Zm0,1.4h1v6.11h-1Z"></path><path d="M151.33,54.16h1V55a2.54,2.54,0,0,1,2-1,2.72,2.72,0,0,1,.86.14,1.9,1.9,0,0,1,.68.41,1.36,1.36,0,0,1,.41.63,2.8,2.8,0,0,1,.12.9v4.13h-1v-4a1.47,1.47,0,0,0-.32-1,1.3,1.3,0,0,0-1-.34,2,2,0,0,0-1.3.4,1.38,1.38,0,0,0-.48,1.11v3.84h-1Z"></path><path d="M158.2,52.76v-1h1v1Zm0,1.4h1v6.11h-1Z"></path><path d="M163.75,60.37a3.08,3.08,0,0,1-2.28-.81,3.21,3.21,0,0,1-.8-2.33,3.91,3.91,0,0,1,.21-1.33,2.74,2.74,0,0,1,.6-1,2.63,2.63,0,0,1,1-.63,3.44,3.44,0,0,1,1.28-.22,3.07,3.07,0,0,1,2.3.82,3.76,3.76,0,0,1,0,4.66A3,3,0,0,1,163.75,60.37Zm0-5.4c-1.37,0-2.06.76-2.06,2.27s.67,2.25,2,2.25a1.94,1.94,0,0,0,1.52-.55,2.48,2.48,0,0,0,.49-1.7C165.75,55.73,165.1,55,163.79,55Z"></path><path d="M169.37,51.76h6.69v1.05h-2.77v7.46h-1.15V52.81h-2.77Z"></path><path d="M180.91,60a3.84,3.84,0,0,1-.92.26,6.3,6.3,0,0,1-1.08.09,3.46,3.46,0,0,1-1.21-.21,3.07,3.07,0,0,1-1-.6,2.83,2.83,0,0,1-.71-1,3.83,3.83,0,0,1-.21-1.35,3.76,3.76,0,0,1,.2-1.29,3,3,0,0,1,.58-1,2.61,2.61,0,0,1,.9-.63,3,3,0,0,1,1.19-.22,2.92,2.92,0,0,1,1.08.19,2.39,2.39,0,0,1,.83.56,2.47,2.47,0,0,1,.54.85,3.1,3.1,0,0,1,.19,1.12v.82h-4.45a1.85,1.85,0,0,0,.63,1.39,2.27,2.27,0,0,0,1.54.5,3.87,3.87,0,0,0,.92-.1,5.54,5.54,0,0,0,1-.32Zm-2.34-5.12a1.61,1.61,0,0,0-1.25.5,2,2,0,0,0-.49,1.38h3.48a2.26,2.26,0,0,0-.52-1.39A1.55,1.55,0,0,0,178.57,54.9Z"></path><path d="M182.67,51.76h1V57l3.24-2.85h1.46L185,57.05l3.37,3.22H187l-3.29-3.11v3.11h-1Z"></path><path d="M189.09,54.16h1V55a2.54,2.54,0,0,1,2.05-1,2.72,2.72,0,0,1,.86.14,1.9,1.9,0,0,1,.68.41,1.36,1.36,0,0,1,.41.63,2.8,2.8,0,0,1,.12.9v4.13h-1v-4a1.47,1.47,0,0,0-.32-1,1.3,1.3,0,0,0-1-.34,2,2,0,0,0-1.3.4,1.38,1.38,0,0,0-.48,1.11v3.84h-1Z"></path><path d="M196,52.76v-1h1v1Zm0,1.4h1v6.11h-1Z"></path><path d="M201.5,59.44a4.11,4.11,0,0,0,.86-.08,3,3,0,0,0,.78-.24V60a5.51,5.51,0,0,1-.85.27,4.71,4.71,0,0,1-.88.08,2.86,2.86,0,0,1-2.19-.84,3.21,3.21,0,0,1-.79-2.3,3.58,3.58,0,0,1,.22-1.3,2.77,2.77,0,0,1,.64-1,2.8,2.8,0,0,1,1-.63,3.49,3.49,0,0,1,1.29-.23,4.12,4.12,0,0,1,.81.08,4.31,4.31,0,0,1,.76.23v1a2.84,2.84,0,0,0-.73-.29,3.48,3.48,0,0,0-.76-.08,2.11,2.11,0,0,0-1.6.57,2.31,2.31,0,0,0-.56,1.67,3,3,0,0,0,.18,1.06,1.76,1.76,0,0,0,.48.74,1.55,1.55,0,0,0,.58.31A2.86,2.86,0,0,0,201.5,59.44Z"></path><path d="M207.05,60.37a3,3,0,0,1-2.27-.81,3.17,3.17,0,0,1-.81-2.33,3.67,3.67,0,0,1,.22-1.33,2.74,2.74,0,0,1,.6-1,2.59,2.59,0,0,1,1-.63,3.49,3.49,0,0,1,1.29-.22,3.08,3.08,0,0,1,2.3.82,3.79,3.79,0,0,1,0,4.66A3.05,3.05,0,0,1,207.05,60.37Zm0-5.4c-1.37,0-2.05.76-2.05,2.27s.67,2.25,2,2.25a1.92,1.92,0,0,0,1.52-.55,2.48,2.48,0,0,0,.5-1.7C209.06,55.73,208.4,55,207.09,55Z"></path><path d="M116.48,29.63h2.61L125.62,38,132,29.63h2.58V43.5h-3V34.93c0-.27,0-.76.11-1.48a9.64,9.64,0,0,1-.81,1.45l-5.21,6.93h-.65l-5.21-7a6,6,0,0,1-.83-1.42c0,.56.08,1,.08,1.48V43.5h-2.61Z"></path><path d="M141.4,29.63h14.19V32h-11v3.09H151v2.36h-6.39v3.44h11.1V43.5H141.4Z"></path><path d="M161.7,29.63h8.92c5.19,0,7.93,2.55,7.93,6.85a6.7,6.7,0,0,1-3.07,5.94c-1.34.84-3.22,1.08-5.69,1.08H161.7Zm7.39,11.26c4.08,0,6.13-1,6.13-4.46,0-2.82-1.54-4.33-4.57-4.33h-5.73v8.79Z"></path><path d="M184.47,29.63h3.22V43.5h-3.22Z"></path><path d="M201.24,43.5H198V32.1h-6.37V29.63h16V32.1h-6.4Z"></path><path d="M211.59,29.63h14.19V32h-11v3.09h6.39v2.36h-6.39v3.44h11.1V43.5H211.59Z"></path><path d="M231.89,29.63h11.88c2.12,0,3.11.75,3.11,2.69v3.25c0,1.94-1,2.69-3.11,2.69h-1.83l6.4,5.24h-4.63l-5.59-5.24h-3.06V43.5h-3.17ZM235.06,32v3.87h7.26c1,0,1.45-.18,1.45-1.1V33.13c0-.92-.46-1.11-1.45-1.11Z"></path><path d="M253.45,29.63h11.88c2.12,0,3.11.75,3.11,2.69v3.25c0,1.94-1,2.69-3.11,2.69H263.5l6.4,5.24h-4.63l-5.59-5.24h-3.06V43.5h-3.17ZM256.62,32v3.87h7.25c1,0,1.46-.18,1.46-1.1V33.13c0-.92-.46-1.11-1.46-1.11Z"></path><path d="M279.2,29.63h3.12l7.95,13.87h-3.63l-1.66-3h-8.79l-1.61,3h-3.23ZM283.63,38l-3-5.64L277.56,38Z"></path><path d="M294.71,29.63h2.21l9.75,8.17a11.91,11.91,0,0,1,1.59,1.51c-.08-1.16-.14-2-.14-2.4V29.63H311V43.5h-2.21l-10.18-8.57a11.18,11.18,0,0,1-1.16-1.13,21.83,21.83,0,0,1,.13,2.2v7.5h-2.9Z"></path><path d="M318.1,29.63h14.19V32h-11v3.09h6.39v2.36h-6.39v3.44h11.09V43.5H318.1Z"></path><path d="M341.54,29.63h10.21c2.61,0,3.44.67,3.44,3.28v7.31c0,2.61-.83,3.28-3.44,3.28H341.54c-2.61,0-3.44-.67-3.44-3.28V32.91C338.1,30.3,338.93,29.63,341.54,29.63ZM352,40.89V32.1H341.33v8.79Z"></path><rect width="90" height="90"></rect></g><path fill="#fff" d="M61.8,40c0,2.83.08,5.24,0,7.65-.09,2,.86,2.63,2.69,2.5.94-.07,1.9,0,2.85,0A4.58,4.58,0,0,1,72,54.69v.21c0,3.7-.34,7.43.1,11.07.46,3.88-3.12,6.24-6.15,6.33s-6.34.12-9.5,0-6.5-2.42-6.1-6.38c.43-4.32.09-4.35-4.16-4.36H40.61c-.35,2-.54,3.79-1,5.47-.92,3.84-2.5,5.17-6.33,5.29-3.06.09-6.13.07-9.19,0S17.48,69.77,18,66c.44-3.53.08-7.16.1-10.75,0-3.35,1.81-4.94,5.23-5.16,1.76-.11,4.71-.42,5-1.31.75-2.39.45-5.15.3-7.74,0-.39-1.47-.83-2.32-1-1.72-.34-3.75,0-5.13-.88a6.48,6.48,0,0,1-3-4.16,118.61,118.61,0,0,1-.13-12.65,4.53,4.53,0,0,1,4.51-4.55h0c3.48-.05,7,.24,10.45-.08,5.44-.5,7.09,2.64,7.05,6.85,0,3.69,1.44,4.38,4.48,4a8.62,8.62,0,0,1,1.9,0c2.82.26,4.19-.91,3.92-3.81a15.06,15.06,0,0,1,0-1.9c0-3.2,1.82-5,5-5.06H66.81c3.41,0,5.17,1.75,5.19,5.13s0,7,0,10.45c0,4.42-1.87,6.38-6.3,6.58C64.51,40,63.36,40,61.8,40ZM29,22.22c-6.54,0-6.54,0-6.54,6.56v.64c0,6.07-.58,5.46,5.38,5.48,3.53,0,5.35,1.88,5.39,5.43V49.2c0,3.61-1.71,5.31-5.32,5.33-5.45,0-5.42,0-5.46,5.43-.06,7.64-.42,7.31,7.13,7.25,5.44,0,5.44,0,5.55-5.34.08-3.55,1.87-5.38,5.41-5.43q4.44-.06,8.87,0c3.52.05,5.31,1.9,5.38,5.46.1,5.3.1,5.28,5.26,5.31,7.85.05,7.48.52,7.42-7.28,0-5.36,0-5.36-5.49-5.4-3.59,0-5.27-1.73-5.29-5.36V42.52c0-6.44,1-7.5,7.33-7.6,2.36,0,3.57-.92,3.45-3.35V28.72c0-6.5,0-6.45-6.61-6.52-4.83-.05-6.53-.46-6.13,5.79.2,3.13-2,5-5,5H40.21a4.75,4.75,0,0,1-5-4.51,2.18,2.18,0,0,1,0-.25,13.59,13.59,0,0,1,0-2.21c.27-2.92-1.12-4.07-3.93-3.81C30.52,22.27,29.77,22.22,29,22.22Z"></path></svg>