<svg xmlns="http://www.w3.org/2000/svg" viewBox="0 0 894.4 319.7"><path d="M138.5 194.7v17.6c0 2.1 1.7 3.8 3.8 3.8h70.6c1.8 0 3.2-1.4 3.2-3.2V39.1c0-3.2-1.3-6.3-3.6-8.6L200 18a12.2 12.2 0 0 0-8.6-3.6H39.1c-3.2 0-6.3 1.3-8.6 3.6L17.9 30.5a12.2 12.2 0 0 0-3.6 8.6v174.5c0 1.3 1.1 2.4 2.4 2.4h69.9c2.9 0 5.3-2.4 5.3-5.3v-15.4c0-2-1.7-3.7-3.7-3.7H50.9c-6.7 0-12.2-5.5-12.2-12.2V59.6c0-3.2 1.3-6.3 3.6-8.6l8.6-8.6c2.3-2.3 5.4-3.6 8.6-3.6h111.2c3.2 0 6.3 1.3 8.6 3.6l8.6 8.6c2.3 2.3 3.6 5.4 3.6 8.6v119.9c0 6.7-5.5 12.2-12.2 12.2h-38.1c-1.4 0-2.7 1.3-2.7 3M88.6 53.2H65.3c-6.7 0-12.2 5.5-12.2 12.2v109.4c0 1.4 1.1 2.5 2.5 2.5h38.5c6.7 0 12.2 5.5 12.2 12.2v28.8c0 6.7-5.5 12.2-12.2 12.2h-82c-6.7 0-12.2-5.5-12.2-12.2V31.7c0-3.2 1.3-6.3 3.6-8.6L23 3.6C25.3 1.3 28.4 0 31.6 0h167.2c3.2 0 6.3 1.3 8.6 3.6L226.9 23c2.3 2.3 3.6 5.4 3.6 8.6v186.7c0 6.7-5.5 12.2-12.2 12.2h-82c-6.7 0-12.2-5.5-12.2-12.2v-28.8c0-6.7 5.5-12.2 12.2-12.2h39.5c.9 0 1.5-.7 1.5-1.5V65.4c0-6.7-5.5-12.2-12.2-12.2H88.6z" fill="#f18a00"/><g fill="#101820"><path d="M491.8.2c5.8 0 10.6 4.7 10.6 10.6v194.6c0 13.9-11.2 25.1-25.1 25.1H277.9a10.6 10.6 0 0 1 0-21.2h195.8c4.1 0 7.5-3.4 7.5-7.5v-191c0-5.9 4.7-10.6 10.6-10.6M267.3 85.6c0-10.3 8.5-18.8 18.8-18.8h63.1a10.6 10.6 0 0 1 0 21.2h-56.5c-2.3 0-4.2 1.9-4.2 4.2v38.7a10.6 10.6 0 0 1-21.2 0V85.6"/><path d="M338.6 169.5V145c0-2-1.6-3.5-3.5-3.5h-30.4a10.6 10.6 0 0 1 0-21.2H341c10.3 0 18.8 8.5 18.8 18.8v35.3c0 11.3-9.2 20.5-20.5 20.5h-61.4a10.6 10.6 0 0 1 0-21.2h56.5c2.3 0 4.2-1.9 4.2-4.2M661.8 66.7c10.3 0 18.8 8.5 18.8 18.8M445.5 169.5V92.2c0-2.3-1.9-4.2-4.2-4.2h-57.6a10.6 10.6 0 0 1 0-21.2h64.1c10.3 0 18.8 8.5 18.8 18.8v92.8c0 9.1-7.4 16.4-16.4 16.4h-59.6c-9.1 0-16.4-7.4-16.4-16.4v-41.8c0-9.1 7.4-16.4 16.4-16.4h28.6c7.7 0 17.9 10.1 17.9 18.2a3 3 0 0 1-3 3h-34.6c-2.3 0-4.2 1.9-4.2 4.3v23.8c0 2.3 1.9 4.2 4.2 4.2h41.7c2.4 0 4.3-1.9 4.3-4.2"/><path d="M609.9 169.5c0 2.3 1.9 4.2 4.2 4.2h57.4a10.6 10.6 0 0 1 0 21.2h-64a18.9 18.9 0 0 1-18.8-18.8V83.3c0-9.1 7.4-16.4 16.4-16.4h59.6c9.1 0 16.4 7.4 16.4 16.4V125c0 9.1-7.4 16.4-16.4 16.4h-28.6c-7.7 0-17.9-10.1-17.9-18.2a3 3 0 0 1 3-3h34.5c2.3 0 4.3-1.9 4.3-4.2V92.2c0-2.3-1.9-4.2-4.2-4.2h-41.7c-2.3 0-4.2 1.9-4.2 4.2v77.3zM694.7 98.3v77.8c0 10.3 8.5 18.8 18.8 18.8h62.9a10.6 10.6 0 0 0 0-21.2H720c-2.3 0-4.2-1.9-4.2-4.2V77.4a10.6 10.6 0 0 0-21.2 0v20.9z"/><path d="M766.1 92.2c0-2.3-1.9-4.2-4.2-4.2h-29.7a10.6 10.6 0 0 1 0-21.2h38.7c9.1 0 16.4 7.4 16.4 16.4V113a10.6 10.6 0 0 1-21.2 0V92.2zM552.5 123.6V92.1c0-2.3-1.9-4.2-4.2-4.2h-29.7a10.6 10.6 0 0 1 0-21.2h38.7c9.1 0 16.4 7.4 16.4 16.4v117.6c0 4.7 3.8 8.6 8.6 8.6H884a10.6 10.6 0 0 1 0 21.2H572.2c-10.9 0-19.7-8.8-19.7-19.7v-87.2z"/><path d="M839.3 194.9a10.6 10.6 0 0 1 0-21.2h29.8c2.3 0 4.2-1.9 4.2-4.2V92.2c0-2.3-1.9-4.2-4.2-4.2h-41.7c-2.3 0-4.2 1.9-4.2 4.2v92.2a10.6 10.6 0 0 1-21.2 0V83.3c0-9.1 7.4-16.4 16.4-16.4H878c9.1 0 16.4 7.4 16.4 16.4V176.1c0 10.3-8.5 18.8-18.8 18.8h-36.3zM18.8 278c2.8 0 5.1.3 7 1 1.9.7 3.3 1.9 4.4 3.6.3.4.5.9.6 1.3.2.4.3.9.5 1.5.1.3.1.5.1.8 0 .3-.1.5-.2.7-.1.1-.2.1-.3.2-.1.1-.2.1-.3.2-.2.1-.4.1-.6.1h-.6c-.3.1-.7.1-1.2 0s-.8-.1-1-.3c-.3-.2-.5-.5-.6-.8-.1-.3-.2-.6-.4-1-.3-.6-.8-1.2-1.4-1.7-.4-.3-.9-.5-1.4-.7-.5-.2-1-.3-1.6-.5-.2-.1-.4-.1-.6-.1h-.6c-.2-.1-.5-.1-.9-.1-.3 0-.6 0-.9.1h-.3c-.2 0-.4.1-.6.1-.2 0-.4 0-.6.1-1 .2-1.8.6-2.5 1s-1.1 1.1-1.3 2.1c-.1.3-.1.5 0 .8.1.3.1.5.2.7.2.6.5 1 .8 1.2.3.3.7.5 1.2.8.6.4 1.3.7 2.1.8l2.3.6c.5.2 1 .3 1.5.3l1.5.3c.8.2 1.6.5 2.4.7.8.2 1.5.5 2.3.8.2.1.4.2.6.2l.6.3c.8.5 1.4 1 2 1.6.6.6 1.1 1.3 1.4 2.2.1.3.2.6.2 1.1.1.3.1.5.1.8v1.6c-.1.3-.1.5-.1.8 0 .3 0 .5-.1.8-.1.4-.3.8-.4 1.2-.2.4-.3.7-.5 1-.6 1-1.4 1.8-2.4 2.4-1 .6-2 1.1-3.2 1.5-.3.1-.7.2-1.1.3-.4.1-.7.1-1.1.3-.4.1-.8.1-1.2.1-.4 0-.8 0-1.2.1h-.6c-.2 0-.5.1-.8.1-.3 0-.6 0-.8-.1h-.6c-.2-.1-.5-.1-.7-.1-.3 0-.5 0-.7-.1-.2 0-.4-.1-.8-.1-.3-.1-.6-.1-.9-.2-.3-.1-.6-.1-.9-.3-1.2-.4-2.2-.9-3.1-1.4-.9-.6-1.7-1.3-2.3-2.2-.3-.5-.6-1-.9-1.6-.2-.5-.4-1.1-.6-1.8-.1-.2-.1-.5-.1-.8 0-.3.1-.6.1-.8.1-.2.3-.3.6-.5.2-.1.5-.1.8-.1h1c.3 0 .7.1 1 .1.3.1.6.1.7.2.3.2.5.5.5.8.1.4.2.7.4 1 .4.8.9 1.5 1.6 2 .5.3 1 .6 1.6.8l1.8.6 1.2.2h.3c.3.1.6.1 1.1.1.4 0 .8 0 1.1-.1.3 0 .5 0 .6-.1.2 0 .5-.1.7-.1.2 0 .4 0 .6-.1 1.1-.3 2-.7 2.7-1.2.7-.5 1.1-1.3 1.4-2.5.1-.2.1-.4.1-.6 0-.2-.1-.4-.1-.5-.2-.7-.5-1.3-.8-1.6-.3-.4-.8-.7-1.3-1-.3-.2-.7-.4-1.2-.6-.4-.2-.8-.3-1.3-.5-.1 0-.2-.1-.3-.1-.1 0-.2 0-.3-.1-1.3-.4-2.7-.7-4.1-1-1.4-.2-2.7-.6-4-1.1-.4-.2-.7-.3-1.1-.4-.3-.1-.7-.3-1-.5-.7-.4-1.4-.9-2-1.4-.6-.5-1.1-1.2-1.4-2-.1-.3-.2-.5-.3-.8-.1-.3-.1-.6-.2-.9-.1-.5-.2-1-.1-1.6 0-.6.1-1.1.2-1.5.1-.2.1-.4.1-.5 0-.1.1-.3.1-.4.3-.9.8-1.7 1.4-2.3.6-.7 1.3-1.2 2-1.7.6-.3 1.2-.6 1.9-.8.7-.2 1.4-.4 2.2-.6.3 0 .5-.1.8-.1.2 0 .5-.1.8-.1h.5c.6.2.8.2.8.1M40 273c-.3-.2-.5-.6-.5-1.2V269c0-.3.1-.6.2-.9.2-.3.5-.5.9-.7h.6c.7 0 1.3 0 1.8.1.6 0 1 .3 1.2.7.1.2.2.5.2.8v3c0 .6-.3 1-.8 1.2-.2.1-.4.1-.6.1h-2c-.4-.1-.7-.2-1-.3m4.3 32.7v1.2c0 .4-.1.7-.3 1-.1.2-.3.4-.5.4-.2.1-.5.1-.8.2h-.9c-.5 0-.9 0-1.3-.1s-.6-.2-.8-.5c-.2-.2-.2-.5-.2-.9v-26.7c0-.4.1-.7.3-1 .1-.2.3-.3.5-.3s.4-.1.6-.2H43c.5 0 .9.2 1.1.5.2.2.3.5.3.9v25.5zM61.7 278c2.8 0 5.1.3 7 1 1.9.7 3.3 1.9 4.4 3.6.3.4.5.9.6 1.3.2.4.3.9.5 1.5.1.3.1.5.1.8 0 .3-.1.5-.2.7-.1.1-.2.1-.3.2-.1.1-.2.1-.3.2-.2.1-.4.1-.6.1h-.6c-.3.1-.7.1-1.2 0s-.8-.1-1-.3c-.3-.2-.5-.5-.6-.8-.1-.3-.2-.6-.4-1-.3-.6-.8-1.2-1.4-1.7-.4-.3-.9-.5-1.4-.7-.5-.2-1-.3-1.6-.5-.2-.1-.4-.1-.6-.1h-.6c-.2-.1-.5-.1-.9-.1-.3 0-.6 0-.9.1h-.3c-.2 0-.4.1-.6.1-.2 0-.4 0-.6.1-1 .2-1.8.6-2.5 1s-1.1 1.1-1.3 2.1c-.1.3-.1.5 0 .8.1.3.1.5.2.7.2.6.5 1 .8 1.2.3.3.7.5 1.2.8.6.4 1.3.7 2.1.8l2.3.6c.5.2 1 .3 1.5.3l1.5.3c.8.2 1.6.5 2.4.7.8.2 1.5.5 2.3.8.2.1.4.2.6.2l.6.3c.8.5 1.4 1 2 1.6.6.6 1.1 1.3 1.4 2.2.1.3.2.6.2 1.1.1.3.1.5.1.8v1.6c-.1.3-.1.5-.1.8 0 .3 0 .5-.1.8-.1.4-.3.8-.4 1.2-.2.4-.3.7-.5 1-.6 1-1.4 1.8-2.4 2.4-1 .6-2 1.1-3.2 1.5-.3.1-.7.2-1.1.3-.4.1-.7.1-1.1.3-.4.1-.8.1-1.2.1-.4 0-.8 0-1.2.1h-.6c-.2 0-.5.1-.8.1-.3 0-.6 0-.8-.1h-.6c-.2-.1-.5-.1-.7-.1-.3 0-.5 0-.7-.1-.2 0-.4-.1-.8-.1-.3-.1-.6-.1-.9-.2-.3-.1-.6-.1-.9-.3-1.2-.4-2.2-.9-3.1-1.4-.9-.6-1.7-1.3-2.3-2.2-.3-.5-.6-1-.9-1.6-.2-.5-.4-1.1-.6-1.8-.1-.2-.1-.5-.1-.8 0-.3.1-.6.1-.8.1-.2.3-.3.6-.5.2-.1.5-.1.8-.1h1c.3 0 .7.1 1 .1.3.1.6.1.7.2.3.2.5.5.5.8.1.4.2.7.4 1 .4.8.9 1.5 1.6 2 .5.3 1 .6 1.6.8l1.8.6 1.2.2h.3c.3.1.6.1 1.1.1.4 0 .8 0 1.1-.1.3 0 .5 0 .6-.1.2 0 .5-.1.7-.1.2 0 .4 0 .6-.1 1.1-.3 2-.7 2.7-1.2.7-.5 1.1-1.3 1.4-2.5.1-.2.1-.4.1-.6 0-.2-.1-.4-.1-.5-.2-.7-.5-1.3-.8-1.6-.3-.4-.8-.7-1.3-1-.3-.2-.7-.4-1.2-.6-.4-.2-.8-.3-1.3-.5-.1 0-.2-.1-.3-.1-.1 0-.2 0-.3-.1-1.3-.4-2.7-.7-4.1-1-1.4-.2-2.7-.6-4-1.1-.4-.2-.7-.3-1.1-.4-.3-.1-.7-.3-1-.5-.7-.4-1.4-.9-2-1.4-.6-.5-1.1-1.2-1.4-2-.1-.3-.2-.5-.3-.8-.1-.3-.1-.6-.2-.9-.1-.5-.2-1-.1-1.6 0-.6.1-1.1.2-1.5.1-.2.1-.4.1-.5 0-.1.1-.3.1-.4.3-.9.8-1.7 1.4-2.3.6-.7 1.3-1.2 2-1.7.6-.3 1.2-.6 1.9-.8.7-.2 1.4-.4 2.2-.6.3 0 .5-.1.8-.1.2 0 .5-.1.8-.1h.5c.5.2.7.2.8.1M85.4 269.7h1.7c.6 0 1 .2 1.2.5.2.2.3.5.3 1v5.5c0 .3 0 .6.1.8.2.5.5.9 1 1 .2 0 .4.1.5.1h2.1c.6 0 1.1 0 1.3.1.3.2.6.5.7.7.1.2.1.3.1.5v.6c0 .4 0 .8-.1 1.2 0 .4-.2.6-.4.8-.2.2-.5.3-1 .3h-2.6c-.4 0-.8.1-1.1.2-.3.1-.5.3-.6.6-.1.3-.2.6-.2 1v16.5c0 .9.1 1.7.5 2.2.2.3.4.5.7.6.3.1.7.2 1.1.3h1.5c.4 0 .7 0 1.1.1.3.1.6.2.7.4.1.1.1.3.2.6s.1.6.1.9v.9c0 .3-.1.5-.2.7-.2.3-.4.5-.9.6-.3.1-.7.1-1 .1h-3c-.2 0-.4-.1-.5-.1h-.5c-.8-.2-1.4-.4-2-.6-.6-.2-1-.6-1.4-1.2-.5-.8-.8-1.7-.9-2.9-.1-1.2-.1-2.4-.1-3.8v-15.1c-.1-.5-.2-.9-.3-1.1-.1-.2-.4-.4-.8-.6h-.5c-.2 0-.3 0-.5-.1h-.9c-.5 0-.9 0-1.2-.1-.3-.1-.5-.3-.7-.7-.1-.2-.1-.3-.1-.5v-.6c0-.5 0-1 .1-1.4s.3-.6.7-.8c.4-.2 1-.2 1.6-.1.7.1 1.2 0 1.7-.1.3-.2.6-.5.8-.8.1-.2.1-.5.1-.9v-5.6c0-.3 0-.6.1-.8.2-.3.4-.6.9-.7h.3c.1-.2.2-.2.3-.2M126.5 292.4c.1.4.1.8 0 1.3s-.2.8-.4 1c-.2.2-.5.3-.8.3-.4.1-.8.1-1.2.1H105.8c-.3 0-.6.1-.8.2-.2.1-.3.2-.5.5-.1.1-.2.3-.2.5-.1.2-.1.4 0 .6 0 .2.1.4.1.5 0 .2 0 .3.1.5.1.3.2.6.2 1 .1.3.2.6.3 1 .9 2.1 2.3 3.6 4.4 4.4.2.1.5.2.7.3.3.1.5.2.8.2.1 0 .3.1.6.1.5.2 1.2.2 2.1.2.9 0 1.6-.1 2.1-.2.5-.2 1-.3 1.5-.5.4-.2.9-.4 1.2-.7.4-.3.8-.6 1.1-1 .3-.4.6-.8.8-1.2l.6-1.2c.2-.4.5-.7.9-.9.2-.1.4-.1.7-.2h1c.3 0 .7 0 1 .1.3 0 .5.1.6.2.4.3.5.7.3 1.3-.3 1-.7 2-1.2 2.8-.8 1.2-1.6 2.2-2.6 3-1 .8-2.2 1.4-3.7 1.9-.4.2-.8.3-1.2.3-.4.1-.8.1-1.2.2-.2 0-.4.1-.5.1-.2 0-.4 0-.5.1h-.5c-.2 0-.4.1-.7.1-.3 0-.5 0-.6-.1h-.5c-.2 0-.4-.1-.5-.1-.2 0-.3 0-.5-.1-.2 0-.4-.1-.6-.1-.2 0-.4 0-.6-.1l-1-.3-1-.3c-.2-.1-.3-.1-.4-.1-.1 0-.3-.1-.4-.1-.6-.3-1.2-.6-1.8-1-1.1-.7-2.1-1.6-2.9-2.7-.8-1.1-1.5-2.2-2-3.6-.2-.4-.3-.9-.4-1.3-.1-.5-.2-.9-.4-1.4 0-.2-.1-.3-.1-.4 0-.1 0-.3-.1-.5-.1-.3-.1-.6-.2-1 0-.3-.1-.7-.2-1v-.8c0-.2-.1-.4-.1-.7V292.3c.1-.2.1-.4.1-.6v-.6c.2-.6.3-1.2.4-1.8.1-.6.3-1.2.5-1.7.2-.4.4-.9.5-1.3.2-.4.4-.9.6-1.3a14.35 14.35 0 0 1 6.9-6c.5-.2.9-.3 1.4-.4l1.5-.3c.2 0 .4-.1.5-.1h.8c.1 0 .2 0 .3-.1 1.6 0 3 .1 4.2.5 1.2.4 2.3.9 3.2 1.5.2.1.3.2.5.3.1.1.3.2.4.3.3.2.6.5 1 .8.3.3.6.6.8.9.6.8 1.1 1.6 1.6 2.3.3.4.5.9.6 1.4.2.5.3 1 .5 1.5s.3 1 .4 1.6c.1.5.2 1.1.4 1.6 0 .3.1.5.1.8.2.3.2.5.3.8m-5.6-2 .3-.6c.1-.2.1-.5 0-.8a10.18 10.18 0 0 0-2.8-4.7c-.7-.6-1.5-1.1-2.5-1.6-.3-.1-.5-.1-.8-.2-.3-.1-.6-.1-.9-.2-.3-.1-.6-.1-1-.1h-1c-.1.1-.2.1-.4.1h-.4c-.3.1-.6.1-.9.2-.3.1-.6.1-.8.2-1.1.5-2 1-2.7 1.7a10 10 0 0 0-1.8 2.6c-.1.2-.2.4-.3.7-.1.3-.2.6-.3 1-.1.3-.1.7-.1 1 0 .3.2.5.4.7.3.2.8.3 1.6.3h12.8c.8.2 1.3 0 1.6-.3M146.3 278c1.5 0 2.7.1 3.7.5 1 .3 2 .8 2.8 1.5.3.2.6.5.8.8.2.3.5.6.7.9l.3.3c.2.1.3.2.6.1.4-.1.7-.4 1-.7.3-.4.6-.6.9-.8.5-.4 1.1-.8 1.7-1.1.6-.3 1.2-.6 1.9-.8.3-.1.6-.2 1-.3.4-.1.7-.1 1.1-.2.2 0 .4-.1.5-.1h.5c.2-.1.5-.1.8-.1.3 0 .6 0 .7.1.2 0 .5.1.9.1.3.1.7.1 1 .2.3.1.6.1 1 .3.2.1.4.1.5.1.2 0 .4.1.5.1 1.9.8 3.3 2.2 4 3.9.2.3.3.6.3 1 .1.4.2.8.2 1.2.1.1.1.2.1.4V306.5c0 .8-.1 1.4-.5 1.7-.2.1-.4.2-.7.3-.3.1-.7.1-1.1.1-.4 0-.8 0-1.1-.1-.4 0-.6-.1-.8-.2-.2-.1-.4-.3-.5-.7-.1-.2-.1-.5-.1-.7 0-.3 0-.5-.1-.7V291c0-1.3 0-2.5-.1-3.6s-.3-2.1-.8-2.9a5.1 5.1 0 0 0-2.7-2c-.2-.1-.5-.1-.7-.1-.3 0-.5-.1-.8-.1h-.7c-.3 0-.6 0-.7.1-.2 0-.4.1-.6 0-.2 0-.4 0-.6.1-.5.1-1.1.3-1.6.5-2 .8-3.3 2.3-4 4.4-.2.7-.3 1.4-.3 2.2v17.2c0 .5-.1.9-.3 1.1-.2.3-.5.5-1 .5s-.9.1-1.4.1c-.7 0-1.1-.1-1.4-.2-.3-.2-.5-.5-.6-1-.1-.4-.1-.9-.1-1.5v-15c0-1.2 0-2.4-.1-3.4a5.38 5.38 0 0 0-2.2-4.2c-.5-.3-1.3-.6-2.2-.8-.2 0-.3-.1-.5-.1h-.5c-.8 0-1.6.1-2.2.3-.6.2-1.2.4-1.7.7-2 1.2-3.3 3-3.9 5.4-.2.5-.2 1.1-.2 1.7v16.3c0 .5-.1 1-.3 1.3-.2.3-.5.4-.9.5-.4 0-.8.1-1.2.1h-.9c-.2-.1-.5-.1-.7-.2-.2 0-.4-.2-.5-.3-.2-.2-.3-.5-.3-.9V280.3c0-.4.1-.7.2-.9.1-.2.3-.4.5-.5.3-.1.8-.2 1.5-.2s1.2.1 1.5.2c.3.2.5.3.6.6.1.2.1.4.1.7 0 .3 0 .5.1.7 0 .2.1.4.2.6.1.2.3.2.6.2.1-.1.2-.1.3-.1.1 0 .2 0 .3-.1.2-.2.5-.4.7-.6.2-.2.4-.4.7-.6.8-.6 1.8-1.2 2.9-1.6.4-.2.8-.3 1.2-.3.4-.1.8-.1 1.2-.3h.7c.3-.1.5-.1.8-.1M208.4 306.3c.1.6.1 1.1-.2 1.5-.2.4-.5.7-.9.9-.2.1-.4.1-.6.1-.2 0-.4 0-.7.1-.8.2-1.7.1-2.5-.1-.8-.3-1.4-.6-1.7-1.1-.2-.3-.4-.6-.5-1-.2-.4-.3-.7-.6-.9-.1-.1-.2-.2-.3-.2-.1-.1-.2-.1-.4-.1-.4.1-.8.3-1.2.6-.4.3-.7.6-1.1.8-.5.3-1 .6-1.6.8-.6.3-1.2.5-1.8.7-.4.1-.8.2-1.2.2-.4 0-.9.1-1.3.2-.2 0-.4.1-.5.1h-.4c-.4.1-.8.1-1.2 0h-.5c-.2 0-.4-.1-.6-.1-.2 0-.4 0-.5-.1-.2 0-.3-.1-.4 0h-.3c-.3-.1-.6-.1-.9-.2-.3-.1-.6-.1-.9-.3-1.2-.5-2.1-1.1-2.8-1.7-.7-.6-1.3-1.5-1.8-2.7-.3-.8-.5-1.9-.5-3.1v-1.2c0-.2.1-.4.1-.6 0-.2 0-.4.1-.7.2-.4.3-.8.5-1.3.2-.4.3-.8.6-1.2.7-1.1 1.6-1.9 2.8-2.5 1.2-.5 2.5-1 3.9-1.4.5-.2 1.1-.3 1.7-.3.6-.1 1.2-.2 1.7-.3.3-.1.5-.1.8-.1.2 0 .5 0 .8-.1.3-.1.5-.1.8-.1.3 0 .6-.1.9-.1 1-.2 1.9-.4 2.7-.6.8-.2 1.5-.6 2-1.3.2-.3.4-.7.6-1.2.2-.5.2-1 0-1.6-.2-.9-.6-1.7-1-2.2-.4-.5-1.1-1-1.9-1.3-.5-.2-1-.3-1.6-.4-.6-.1-1.3-.1-2-.1s-1.4 0-2 .1c-.7.1-1.2.2-1.7.3-.7.2-1.3.6-1.9 1-.3.2-.6.5-.8.9-.3.4-.5.8-.7 1.2-.1.3-.2.6-.3 1-.1.3-.3.6-.5.8-.2.1-.4.2-.8.3-.4.1-.7.1-1.1.1-.4 0-.8 0-1.1-.1-.4-.1-.6-.1-.8-.3-.2-.1-.3-.3-.3-.6-.1-.3-.1-.6 0-.9.1-.5.2-1 .4-1.4.1-.4.3-.9.5-1.3.7-1.3 1.7-2.4 2.8-3.1 1.1-.8 2.5-1.4 4.2-1.8.4-.1.8-.1 1.2-.2.4 0 .8-.1 1.2-.2h.7c.3 0 .6 0 .6-.1 2.7 0 5 .3 7 .9 2 .7 3.4 1.9 4.2 3.8.3.8.5 1.7.6 2.7.1 1 .1 2.1.1 3.2v12.8c0 .5 0 1.1.1 1.6 0 .5.2.9.3 1.2.2.3.4.5.8.6.3.2.7.3 1 .3.3.1.5.2.7.5.1.1.1.2.1.3-.2.3-.2.4-.1.6m-8.3-6.4c.2-.5.4-1.2.4-1.9v-2.2c0-.4 0-.8-.1-1.2 0-.3-.2-.6-.5-.8-.1-.1-.4-.1-.8-.1-.1.1-.2.1-.4.1s-.4 0-.5.1c-.3.1-.7.2-1 .2-.4.1-.8.2-1.2.2h-.8c-.6.2-1.2.2-1.9.3-.7 0-1.3.1-1.9.3-.3.1-.6.1-.8.2-.3.1-.5.1-.8.2-.6.2-1.2.4-1.7.7-.5.3-1 .6-1.4 1.1-.4.4-.7.9-.9 1.5-.2.6-.3 1.3-.2 2.2 0 .4.1.7.2 1.1.1.3.3.6.5.9.3.4.7.8 1.2 1.1.5.3 1 .5 1.6.7.2 0 .4.1.6.1.2 0 .4 0 .6.1.3.1.6.1 1 .1s.7 0 1-.1c.2-.1.5-.1.7-.1.2 0 .5 0 .7-.1.3-.1.6-.1.9-.2.3 0 .6-.1.8-.2 1.1-.5 2.1-1 2.9-1.7.8-.6 1.4-1.5 1.8-2.6M222.8 278c2.8 0 5.1.3 7 1 1.9.7 3.3 1.9 4.4 3.6.3.4.5.9.6 1.3.2.4.3.9.5 1.5.1.3.1.5.1.8 0 .3-.1.5-.2.7-.1.1-.2.1-.3.2-.1.1-.2.1-.3.2-.2.1-.4.1-.6.1h-.6c-.3.1-.7.1-1.2 0s-.8-.1-1-.3c-.3-.2-.5-.5-.6-.8-.1-.3-.2-.6-.4-1-.3-.6-.8-1.2-1.4-1.7-.4-.3-.9-.5-1.4-.7-.5-.2-1-.3-1.6-.5-.2-.1-.4-.1-.6-.1h-.6c-.2-.1-.5-.1-.9-.1-.3 0-.6 0-.9.1h-.3c-.2 0-.4.1-.6.1-.2 0-.4 0-.6.1-1 .2-1.8.6-2.5 1s-1.1 1.1-1.3 2.1c-.1.3-.1.5 0 .8.1.3.1.5.2.7.2.6.5 1 .8 1.2.3.3.7.5 1.2.8.6.4 1.3.7 2.1.8l2.3.6c.5.2 1 .3 1.5.3l1.5.3c.8.2 1.6.5 2.4.7.8.2 1.5.5 2.3.8.2.1.4.2.6.2l.6.3c.8.5 1.4 1 2 1.6.6.6 1.1 1.3 1.4 2.2.1.3.2.6.2 1.1.1.3.1.5.1.8v1.6c-.1.3-.1.5-.1.8 0 .3 0 .5-.1.8-.1.4-.3.8-.4 1.2-.2.4-.3.7-.5 1-.6 1-1.4 1.8-2.4 2.4-1 .6-2 1.1-3.2 1.5-.3.1-.7.2-1.1.3-.4.1-.7.1-1.1.3-.4.1-.8.1-1.2.1-.4 0-.8 0-1.2.1h-.4c-.2 0-.5.1-.8.1-.3 0-.6 0-.8-.1h-.6c-.2-.1-.5-.1-.8-.1-.3 0-.5 0-.7-.1-.2 0-.4-.1-.8-.1-.3-.1-.6-.1-.9-.2-.3-.1-.6-.1-.9-.3-1.2-.4-2.2-.9-3.1-1.4-.9-.6-1.7-1.3-2.3-2.2-.3-.5-.6-1-.9-1.6-.2-.5-.4-1.1-.6-1.8-.1-.2-.1-.5-.1-.8 0-.3.1-.6.1-.8.1-.2.3-.3.6-.5.2-.1.5-.1.8-.1h1c.3 0 .7.1 1 .1.3.1.5.1.7.2.3.2.5.5.5.8.1.4.2.7.4 1 .4.8.9 1.5 1.6 2 .5.3 1 .6 1.6.8l1.8.6 1.2.2h.3c.3.1.6.1 1.1.1.4 0 .8 0 1.1-.1.3 0 .5 0 .6-.1.2 0 .5-.1.7-.1.2 0 .4 0 .6-.1 1.1-.3 2-.7 2.7-1.2.7-.5 1.1-1.3 1.4-2.5.1-.2.1-.4.1-.6 0-.2-.1-.4-.1-.5-.2-.7-.5-1.3-.8-1.6-.3-.4-.8-.7-1.3-1-.3-.2-.7-.4-1.2-.6-.4-.2-.8-.3-1.3-.5-.1 0-.2-.1-.3-.1-.1 0-.2 0-.3-.1-1.3-.4-2.7-.7-4.1-1-1.4-.2-2.7-.6-4-1.1-.4-.2-.7-.3-1.1-.4-.3-.1-.7-.3-1-.5-.7-.4-1.4-.9-2-1.4-.6-.5-1.1-1.2-1.4-2-.1-.3-.2-.5-.3-.8-.1-.3-.1-.6-.2-.9-.1-.5-.2-1-.1-1.6 0-.6.1-1.1.2-1.5.1-.2.1-.4.1-.5 0-.1.1-.3.1-.4.3-.9.8-1.7 1.4-2.3.6-.7 1.3-1.2 2-1.7.6-.3 1.2-.6 1.9-.8.7-.2 1.4-.4 2.2-.6.3 0 .5-.1.8-.1.2 0 .5-.1.8-.1h.5c.5.2.6.2.7.1M288.1 292.8c0 .2.1.4.1.8 0 .3 0 .6-.1.7-.1.2-.1.4-.1.5v.5c0 .3 0 .5-.1.6-.1.3-.1.7-.1 1 0 .3-.1.7-.1 1-.1.3-.2.6-.2.9l-.3.9c-.5 1.4-1.1 2.7-1.9 3.9a7 7 0 0 1-.8 1l-.9.9-.3.3c-.3.2-.5.4-.7.6-.2.2-.5.4-.8.6-.4.3-.9.6-1.4.8-.5.2-1 .4-1.6.6-.3.1-.6.1-.9.2-.3 0-.6.1-.9.2h-.4c-.3.1-.9.1-1.5.1-.7 0-1.2 0-1.6-.1h-.3c-.3 0-.5-.1-.7-.1-.2 0-.5-.1-.7-.1-.7-.2-1.3-.4-1.8-.5-.6-.2-1.1-.4-1.6-.7-.6-.3-1.2-.7-1.6-1.1-.2-.1-.4-.3-.7-.5-.3-.2-.6-.2-.9 0-.2.1-.2.3-.2.5s0 .4-.1.6v.8c-.1.2-.1.5-.1.8v9.4c0 .6-.1 1-.3 1.3-.2.3-.5.4-.9.4h-2.2c-.3-.1-.5-.2-.7-.2-.2-.1-.3-.2-.4-.4-.2-.3-.3-.7-.3-1.3v-37.5c0-.5.1-.9.3-1.2.1-.2.4-.3.8-.4.4-.1.8-.1 1.3-.1s.9.1 1.3.2.7.2.8.4c.2.2.2.4.3.7 0 .3.1.5.2.8.1.1.1.2.2.3l.2.2c.4 0 .8-.1 1.1-.4.3-.3.6-.6.8-.7 1-.7 2.2-1.2 3.6-1.6.3-.1.7-.1 1.1-.2.4 0 .7-.1 1.1-.2h.6c.2 0 .4 0 .5-.1 1.7 0 3.1.1 4.4.5 1.3.4 2.4.9 3.4 1.5.2.2.4.3.6.4.2.1.4.3.6.4l.2.2.2.2.6.6c.2.2.4.5.6.7.5.7.9 1.4 1.4 2.1.3.5.6 1.1.8 1.7l.6 1.8c.1.3.1.6.2 1 .1.3.1.7.2 1v.8c.1.2.1.4.1.6 0 .2 0 .4.1.6v.8zm-5.2 1.6c.1-.2.1-.4.1-.7 0-.3-.1-.5-.1-.8 0-.7 0-1.3-.1-1.8-.1-.6-.2-1.1-.4-1.7-.1-.2-.1-.5-.2-.7-.1-.2-.1-.5-.3-.7-.4-1-1.1-2-2-3-.9-1-1.8-1.6-2.6-2-.3-.2-.6-.3-1-.3l-1-.3c-.3-.1-.7-.1-1.2-.1H273c-.1.1-.2.1-.4.1h-.5c-.3.1-.7.2-1 .2-.3.1-.6.2-1 .3-1.2.5-2.2 1.3-3 2.3-.8 1-1.4 2.2-1.8 3.5-.2.4-.3.8-.3 1.3-.1.4-.1.8-.2 1.3 0 .2-.1.3-.1.4 0 .1 0 .3-.1.4v.5c0 .2-.1.5-.1.8s0 .6.1.8v.5c0 .2.1.3.1.5s0 .3.1.4.1.2.1.3c0 .1 0 .3.1.4.1.3.1.6.2.9.1.3.1.6.2.9.4 1.3 1 2.5 1.8 3.4.8 1 1.7 1.7 3 2.3.7.3 1.5.5 2.2.7.2.1.3.1.5.1h1c.3.1.5.1.8 0h.5c.4-.1.8-.1 1.2-.2.4 0 .8-.1 1.2-.3 1.2-.5 2.2-1.2 2.9-2 .7-.8 1.4-1.8 1.9-3 .2-.5.3-1.1.4-1.6.1-.6.2-1.1.4-1.8 0-.2.1-.4.1-.5 0-.2 0-.3.1-.5v-.3zM320.8 306.3c.1.6.1 1.1-.2 1.5-.2.4-.5.7-.9.9-.2.1-.4.1-.6.1-.2 0-.4 0-.7.1-.8.2-1.7.1-2.5-.1-.8-.3-1.4-.6-1.7-1.1-.2-.3-.4-.6-.5-1-.2-.4-.3-.7-.6-.9-.1-.1-.2-.2-.3-.2-.1-.1-.2-.1-.4-.1-.4.1-.8.3-1.2.6-.4.3-.7.6-1.1.8-.5.3-1 .6-1.6.8-.6.3-1.2.5-1.8.7-.4.1-.8.2-1.2.2-.4 0-.9.1-1.3.2-.2 0-.4.1-.5.1h-.4c-.4.1-.8.1-1.2 0h-.5c-.2 0-.4-.1-.6-.1-.2 0-.4 0-.5-.1-.2 0-.3-.1-.4 0h-.3c-.3-.1-.6-.1-.9-.2-.3-.1-.6-.1-.9-.3-1.2-.5-2.1-1.1-2.8-1.7-.7-.6-1.3-1.5-1.8-2.7-.3-.8-.5-1.9-.5-3.1v-1.2c0-.2.1-.4.1-.6 0-.2 0-.4.1-.7.2-.4.3-.8.5-1.3.2-.4.3-.8.6-1.2.7-1.1 1.6-1.9 2.8-2.5 1.2-.5 2.5-1 3.9-1.4.5-.2 1.1-.3 1.7-.3.6-.1 1.2-.2 1.7-.3.3-.1.5-.1.8-.1.2 0 .5 0 .8-.1.3-.1.5-.1.8-.1.3 0 .6-.1.9-.1 1-.2 1.9-.4 2.7-.6.8-.2 1.5-.6 2-1.3.2-.3.4-.7.6-1.2.2-.5.2-1 0-1.6-.2-.9-.6-1.7-1-2.2-.4-.5-1.1-1-1.9-1.3-.5-.2-1-.3-1.6-.4-.6-.1-1.3-.1-2-.1s-1.4 0-2 .1c-.7.1-1.2.2-1.7.3-.7.2-1.3.6-1.9 1-.3.2-.6.5-.8.9-.3.4-.5.8-.7 1.2-.1.3-.2.6-.3 1-.1.3-.3.6-.6.8-.2.1-.4.2-.8.3-.4.1-.7.1-1.1.1-.4 0-.8 0-1.1-.1-.4-.1-.6-.1-.8-.3-.2-.1-.3-.3-.3-.6-.1-.3-.1-.6 0-.9.1-.5.2-1 .4-1.4.1-.4.3-.9.5-1.3.7-1.3 1.7-2.4 2.8-3.1 1.1-.8 2.5-1.4 4.2-1.8.4-.1.8-.1 1.2-.2.4 0 .8-.1 1.2-.2h.7c.3 0 .6 0 .6-.1 2.7 0 5 .3 7 .9 2 .7 3.4 1.9 4.2 3.8.3.8.5 1.7.6 2.7.1 1 .1 2.1.1 3.2v12.8c0 .5 0 1.1.1 1.6 0 .5.2.9.3 1.2.2.3.4.5.7.6.3.2.7.3 1 .3.3.1.5.2.7.5.1.1.1.2.1.3 0 .3 0 .4.1.6m-8.3-6.4c.2-.5.4-1.2.4-1.9v-2.2c0-.4 0-.8-.1-1.2 0-.3-.2-.6-.5-.8-.1-.1-.4-.1-.8-.1-.1.1-.2.1-.4.1s-.4 0-.5.1c-.3.1-.7.2-1 .2-.4.1-.8.2-1.2.2h-.8c-.6.2-1.2.2-1.9.3-.7 0-1.3.1-1.9.3-.3.1-.6.1-.8.2-.3.1-.5.1-.8.2-.6.2-1.2.4-1.7.7-.5.3-1 .6-1.4 1.1-.4.4-.7.9-.9 1.5-.2.6-.3 1.3-.2 2.2 0 .4.1.7.2 1.1.1.3.3.6.5.9.3.4.7.8 1.2 1.1.5.3 1 .5 1.6.7.2 0 .4.1.6.1.2 0 .4 0 .6.1.3.1.6.1 1 .1s.7 0 1-.1c.2-.1.5-.1.7-.1.2 0 .5 0 .7-.1.3-.1.6-.1.9-.2.3 0 .6-.1.8-.2 1.1-.5 2.1-1 2.9-1.7.8-.6 1.4-1.5 1.8-2.6M339.9 278c.9 0 1.4.2 1.5.7.1.4.2 1.1.2 1.9v1.1c0 .3-.1.6-.3.9-.2.3-.6.5-1 .5s-.8.1-1.3.2-1.1.2-1.5.3c-.5.1-.9.3-1.4.5-1.1.5-2 1.2-2.7 2-.7.9-1.3 1.9-1.8 3-.2.4-.3.9-.3 1.3-.1.4-.2.9-.3 1.4v1.2c-.1.5-.2 1-.1 1.6v10.1c0 .5 0 .9-.1 1.3 0 .4-.1.8 0 1.1 0 .3-.1.6-.3.8-.2.3-.5.4-.9.5-.4 0-.8.1-1.3.1h-1c-.2-.1-.4-.1-.5-.2-.2-.1-.3-.1-.4-.3-.2-.3-.3-.6-.3-1v-26.8c0-.4.1-.7.3-1 .1-.2.3-.3.6-.3.3-.1.6-.1 1-.1h1c.3 0 .6.1.8.2.3.1.5.3.6.7.1.3.1.7.1 1v1.2c0 .4.1.8.2 1.1 0 .1.1.1.1.2l.2.2c.4 0 .8-.2 1-.5.3-.4.5-.7.7-.9l.3-.3c.3-.4.8-.9 1.4-1.3.6-.5 1.2-.8 1.7-1 .3-.2.7-.3 1.1-.4l1.2-.3c.2 0 .5-.1.7-.1.4-.5.6-.5.8-.6M372.1 306.3c.1.6.1 1.1-.2 1.5-.2.4-.5.7-.9.9-.2.1-.4.1-.6.1-.2 0-.4 0-.7.1-.8.2-1.7.1-2.5-.1-.8-.3-1.4-.6-1.7-1.1-.2-.3-.4-.6-.5-1-.2-.4-.3-.7-.6-.9-.1-.1-.2-.2-.3-.2-.1-.1-.2-.1-.4-.1-.4.1-.8.3-1.2.6-.4.3-.7.6-1.1.8-.5.3-1 .6-1.6.8-.6.3-1.2.5-1.8.7-.4.1-.8.2-1.2.2-.4 0-.9.1-1.3.2-.2 0-.4.1-.5.1h-.4c-.4.1-.8.1-1.2 0h-.5c-.2 0-.4-.1-.6-.1-.2 0-.4 0-.5-.1-.2 0-.3-.1-.4 0h-.3c-.3-.1-.6-.1-.9-.2-.3-.1-.6-.1-.9-.3-1.2-.5-2.1-1.1-2.8-1.7-.7-.6-1.3-1.5-1.8-2.7-.3-.8-.5-1.9-.5-3.1v-1.2c0-.2.1-.4.1-.6 0-.2 0-.4.1-.7.2-.4.3-.8.5-1.3.2-.4.3-.8.6-1.2.7-1.1 1.6-1.9 2.8-2.5 1.2-.5 2.5-1 3.9-1.4.5-.2 1.1-.3 1.7-.3.6-.1 1.2-.2 1.7-.3.3-.1.5-.1.8-.1.2 0 .5 0 .8-.1.3-.1.5-.1.8-.1.3 0 .6-.1.9-.1 1-.2 1.9-.4 2.7-.6.8-.2 1.5-.6 2-1.3.2-.3.4-.7.6-1.2.2-.5.2-1 0-1.6-.2-.9-.6-1.7-1-2.2-.4-.5-1.1-1-1.9-1.3-.5-.2-1-.3-1.6-.4-.6-.1-1.3-.1-2-.1s-1.4 0-2 .1c-.7.1-1.2.2-1.7.3-.7.2-1.3.6-1.9 1-.3.2-.6.5-.8.9-.3.4-.5.8-.7 1.2-.1.3-.2.6-.3 1-.1.3-.3.6-.5.8-.2.1-.4.2-.8.3-.4.1-.7.1-1.1.1-.4 0-.8 0-1.1-.1-.4-.1-.6-.1-.8-.3-.2-.1-.3-.3-.3-.6-.1-.3-.1-.6 0-.9.1-.5.2-1 .4-1.4.1-.4.3-.9.5-1.3.7-1.3 1.7-2.4 2.8-3.1 1.1-.8 2.5-1.4 4.2-1.8.4-.1.8-.1 1.2-.2.4 0 .8-.1 1.2-.2h.7c.3 0 .6 0 .6-.1 2.7 0 5 .3 7 .9 2 .7 3.4 1.9 4.2 3.8.3.8.5 1.7.6 2.7.1 1 .1 2.1.1 3.2v12.8c0 .5 0 1.1.1 1.6 0 .5.2.9.3 1.2.2.3.4.5.8.6.3.2.7.3 1 .3.3.1.5.2.7.5.1.1.1.2.1.3-.1.3-.1.4-.1.6m-8.2-6.4c.2-.5.4-1.2.4-1.9v-2.2c0-.4 0-.8-.1-1.2 0-.3-.2-.6-.5-.8-.1-.1-.4-.1-.8-.1-.1.1-.2.1-.4.1s-.4 0-.5.1c-.3.1-.7.2-1 .2-.4.1-.8.2-1.2.2h-.8c-.6.2-1.2.2-1.9.3-.7 0-1.3.1-1.9.3-.3.1-.6.1-.8.2-.3.1-.5.1-.8.2-.6.2-1.2.4-1.7.7-.5.3-1 .6-1.4 1.1-.4.4-.7.9-.9 1.5-.2.6-.3 1.3-.2 2.2 0 .4.1.7.2 1.1.1.3.3.6.5.9.3.4.7.8 1.2 1.1.5.3 1 .5 1.6.7.2 0 .4.1.6.1.2 0 .4 0 .6.1.3.1.6.1 1 .1s.7 0 1-.1c.2-.1.5-.1.7-.1.2 0 .5 0 .7-.1.3-.1.6-.1.9-.2.3 0 .6-.1.8-.2 1.1-.5 2.1-1 2.9-1.7.8-.6 1.4-1.5 1.8-2.6M422.4 292.8c0 .2.1.4.1.8 0 .3 0 .6-.1.7-.1.2-.1.4-.1.5v.5c0 .3 0 .5-.1.6-.1.3-.1.7-.1 1 0 .3-.1.7-.1 1-.1.3-.2.6-.2.9l-.3.9c-.5 1.4-1.1 2.7-1.9 3.9a7 7 0 0 1-.8 1l-.9.9-.3.3c-.3.2-.5.4-.8.6-.2.2-.5.4-.8.6-.4.3-.9.6-1.4.8-.5.2-1 .4-1.6.6-.3.1-.6.1-.9.2-.3 0-.6.1-.9.2h-.4c-.3.1-.9.1-1.5.1-.7 0-1.2 0-1.6-.1h-.3c-.3 0-.5-.1-.7-.1-.2 0-.5-.1-.7-.1-.7-.2-1.3-.4-1.8-.5-.6-.2-1.1-.4-1.6-.7-.6-.3-1.2-.7-1.6-1.1-.2-.1-.4-.3-.7-.5-.3-.2-.6-.2-.9 0-.2.1-.2.3-.2.5s0 .4-.1.6v.8c-.1.2-.1.5-.1.8v9.4c0 .6-.1 1-.3 1.3-.2.3-.5.4-.9.4h-2.2c-.3-.1-.5-.2-.7-.2-.2-.1-.3-.2-.4-.4-.2-.3-.3-.7-.3-1.3v-37.5c0-.5.1-.9.3-1.2.1-.2.4-.3.8-.4.4-.1.8-.1 1.3-.1s.9.1 1.3.2.7.2.8.4c.2.2.2.4.3.7 0 .3.1.5.2.8.1.1.1.2.2.3l.2.2c.4 0 .8-.1 1.1-.4.3-.3.6-.6.8-.7 1-.7 2.2-1.2 3.6-1.6.3-.1.7-.1 1.1-.2.4 0 .7-.1 1.1-.2h.6c.2 0 .4 0 .5-.1 1.7 0 3.1.1 4.4.5 1.3.4 2.4.9 3.4 1.5.2.2.4.3.6.4.2.1.4.3.6.4l.2.2.2.2.6.6c.2.2.4.5.6.7.5.7.9 1.4 1.4 2.1.3.5.6 1.1.8 1.7l.6 1.8c.1.3.1.6.2 1 .1.3.1.7.2 1v.8c.1.2.1.4.1.6 0 .2 0 .4.1.6v.8zm-5.1 1.6c.1-.2.1-.4.1-.7 0-.3-.1-.5-.1-.8 0-.7 0-1.3-.1-1.8-.1-.6-.2-1.1-.4-1.7-.1-.2-.1-.5-.2-.7-.1-.2-.1-.5-.3-.7-.4-1-1.1-2-2-3-.9-1-1.8-1.6-2.6-2-.3-.2-.6-.3-1-.3l-1-.3c-.3-.1-.7-.1-1.2-.1h-1.3c-.1.1-.2.1-.4.1h-.5c-.3.1-.7.2-1 .2-.3.1-.6.2-1 .3-1.2.5-2.2 1.3-3 2.3-.8 1-1.4 2.2-1.8 3.5-.2.4-.3.8-.3 1.3-.1.4-.1.8-.2 1.3 0 .2-.1.3-.1.4 0 .1 0 .3-.1.4v.5c0 .2-.1.5-.1.8s0 .6.1.8v.5c0 .2.1.3.1.5s0 .3.1.4c0 .1.1.2.1.3 0 .1 0 .3.1.4.1.3.1.6.2.9.1.3.1.6.2.9.4 1.3 1 2.5 1.8 3.4.8 1 1.7 1.7 3 2.3.7.3 1.5.5 2.2.7.2.1.3.1.5.1h1c.3.1.5.1.8 0h.5c.4-.1.8-.1 1.2-.2.4 0 .8-.1 1.2-.3 1.2-.5 2.2-1.2 2.9-2 .7-.8 1.4-1.8 1.9-3 .2-.5.3-1.1.4-1.6.1-.6.2-1.1.4-1.8 0-.2.1-.4.1-.5 0-.2 0-.3.1-.5v-.3zM430.4 278.7h1.7c.6 0 1 .2 1.2.5.2.3.3.7.3 1.2v18.2c0 .9.1 1.7.3 2.3.6 1.7 1.8 2.9 3.5 3.6.8.3 1.9.5 3.1.4 1.2-.1 2.2-.3 2.9-.6 1.3-.5 2.3-1.2 3-2 .7-.8 1.3-1.9 1.8-3.3.1-.3.2-.6.2-.9 0-.3.1-.6.2-1v-.5c0-.2 0-.3.1-.5v-1.2c.1-.3.1-.7.1-1.1 0-.4-.1-.8-.1-1.1v-12.2c0-.5.1-.9.3-1.2.2-.2.3-.3.5-.4.2-.1.5-.1.8-.2h.9c.5 0 .9 0 1.2.1.4 0 .6.2.8.5.2.2.3.5.3.8v27c0 .4-.2.7-.4.9-.2.1-.4.2-.7.3-.3.1-.6.1-1 .1h-1c-.3 0-.6-.1-.7-.2-.2-.2-.4-.4-.5-.8 0-.2-.1-.4-.1-.6 0-.3 0-.5-.1-.8 0-.3-.1-.5-.2-.6-.1-.2-.3-.2-.5-.2-.3.1-.6.3-.9.7-.3.4-.6.6-.9.8-.8.6-1.8 1.2-2.9 1.6-.4.2-.9.3-1.3.4-.4.1-.9.1-1.4.3h-.6c-.2 0-.4 0-.6.1-.4.1-.7.1-1 0h-.6c-.2-.1-.4-.1-.7-.1-.3 0-.5 0-.7-.1-.2-.1-.3-.1-.4-.1-.1 0-.3 0-.5-.1-.3-.1-.6-.2-.9-.2l-.9-.3c-1-.4-1.8-1-2.5-1.7a7.6 7.6 0 0 1-1.6-2.6c-.2-.3-.3-.7-.3-1.1-.1-.4-.2-.7-.2-1.1-.1-.2-.1-.5-.1-.7 0-.2 0-.5-.1-.7 0-.1-.1-.2-.1-.3 0-.1 0-.3-.1-.4v-19.3c0-.3.1-.6.2-.9.2-.3.4-.5.9-.6h.2l.1-.1M487.3 292.4c.1.4.1.8 0 1.3s-.2.8-.4 1c-.2.2-.5.3-.8.3-.4.1-.8.1-1.2.1H466.6c-.3 0-.6.1-.7.2-.2.1-.3.2-.5.5-.1.1-.2.3-.2.5-.1.2-.1.4 0 .6 0 .2.1.4.1.5 0 .2 0 .3.1.5.1.3.2.6.2 1 .1.3.2.6.3 1 .9 2.1 2.3 3.6 4.4 4.4.2.1.5.2.7.3.3.1.5.2.8.2.1 0 .3.1.6.1.5.2 1.2.2 2.1.2.9 0 1.6-.1 2.1-.2.5-.2 1-.3 1.5-.5.4-.2.9-.4 1.2-.7.4-.3.8-.6 1.1-1 .3-.4.6-.8.8-1.2l.6-1.2c.2-.4.5-.7.9-.9.2-.1.4-.1.7-.2h1c.3 0 .7 0 1 .1.3 0 .5.1.6.2.4.3.5.7.3 1.3-.3 1-.7 2-1.2 2.8-.8 1.2-1.6 2.2-2.6 3-1 .8-2.2 1.4-3.7 1.9-.4.2-.8.3-1.2.3-.4.1-.8.1-1.2.2-.2 0-.4.1-.5.1-.2 0-.4 0-.5.1h-.6c-.2 0-.4.1-.7.1-.3 0-.5 0-.6-.1h-.5c-.2 0-.4-.1-.5-.1-.2 0-.3 0-.5-.1-.2 0-.4-.1-.6-.1-.2 0-.4 0-.6-.1l-1-.3-1-.3c-.2-.1-.3-.1-.4-.1-.1 0-.3-.1-.4-.1-.6-.3-1.2-.6-1.8-1-1.1-.7-2.1-1.6-2.9-2.7-.8-1.1-1.5-2.2-2-3.6-.2-.4-.3-.9-.4-1.3-.1-.5-.2-.9-.4-1.4 0-.2-.1-.3-.1-.4 0-.1 0-.3-.1-.5-.1-.3-.1-.6-.2-1 0-.3-.1-.7-.2-1v-.8c0-.2-.1-.4-.1-.7V292.3c.1-.2.1-.4.1-.6v-.6c.2-.6.3-1.2.4-1.8.1-.6.3-1.2.5-1.7.2-.4.4-.9.5-1.3.2-.4.4-.9.6-1.3a14.35 14.35 0 0 1 6.9-6c.5-.2.9-.3 1.4-.4l1.5-.3c.2 0 .4-.1.5-.1h.8c.1 0 .2 0 .3-.1 1.6 0 3 .1 4.2.5 1.2.4 2.3.9 3.2 1.5.2.1.3.2.5.3.1.1.3.2.4.3.3.2.6.5 1 .8.3.3.6.6.8.9.6.8 1.1 1.6 1.6 2.3.3.4.5.9.6 1.4.2.5.3 1 .5 1.5s.3 1 .4 1.6c.1.5.2 1.1.4 1.6 0 .3.1.5.1.8.2.3.2.5.3.8m-5.6-2 .3-.6c.1-.2.1-.5 0-.8a10.18 10.18 0 0 0-2.8-4.7c-.7-.6-1.5-1.1-2.5-1.6-.3-.1-.5-.1-.8-.2-.3-.1-.6-.1-.9-.2-.3-.1-.6-.1-1-.1h-1c-.1.1-.3.1-.4.1h-.4c-.3.1-.6.1-.9.2-.3.1-.6.1-.8.2-1.1.5-2 1-2.7 1.7a10 10 0 0 0-1.8 2.6c-.1.2-.2.4-.3.7-.1.3-.2.6-.3 1-.1.3-.1.7-.1 1 0 .3.2.5.4.7.3.2.8.3 1.6.3h12.8c.8.2 1.3 0 1.6-.3M506.9 278c.9 0 1.4.2 1.5.7.1.4.2 1.1.2 1.9v1.1c0 .3-.1.6-.3.9-.2.3-.6.5-1 .5s-.8.1-1.3.2l-1.5.3c-.5.1-.9.3-1.4.5-1.1.5-2 1.2-2.7 2-.7.9-1.3 1.9-1.8 3-.2.4-.3.9-.3 1.3-.1.4-.2.9-.3 1.4v1.2c-.1.5-.2 1-.1 1.6v10.1c0 .5 0 .9-.1 1.3 0 .4-.1.8 0 1.1 0 .3-.1.6-.3.8-.2.3-.5.4-.9.5-.4 0-.8.1-1.3.1h-1c-.2-.1-.4-.1-.5-.2-.2-.1-.3-.1-.4-.3-.2-.3-.3-.6-.3-1v-26.8c0-.4.1-.7.3-1 .1-.2.3-.3.6-.3.3-.1.6-.1 1-.1h1c.3 0 .6.1.8.2.3.1.5.3.6.7.1.3.1.7.1 1v1.2c0 .4.1.8.2 1.1 0 .1.1.1.1.2l.2.2c.4 0 .8-.2 1-.5.3-.4.5-.7.7-.9l.3-.3c.3-.4.8-.9 1.4-1.3.6-.5 1.2-.8 1.7-1 .3-.2.7-.3 1.1-.4l1.2-.3c.2 0 .5-.1.7-.1.4-.5.6-.5.8-.6M516.3 269.7h1.7c.6 0 1 .2 1.2.5.2.2.3.5.3 1v5.5c0 .3 0 .6.1.8.2.5.5.9 1 1 .2 0 .4.1.5.1h2.1c.6 0 1.1 0 1.3.1.3.2.6.5.7.7.1.2.1.3.1.5v.6c0 .4 0 .8-.1 1.2 0 .4-.2.6-.4.8-.2.2-.5.3-1 .3h-2.6c-.4 0-.8.1-1.1.2-.3.1-.5.3-.6.6-.1.3-.2.6-.2 1v16.5c0 .9.1 1.7.5 2.2.2.3.4.5.7.6.3.1.7.2 1.1.3h1.5c.4 0 .7 0 1.1.1.3.1.6.2.7.4.1.1.1.3.2.6s.1.6.1.9v.9c0 .3-.1.5-.2.7-.2.3-.4.5-.9.6-.3.1-.7.1-1 .1h-3c-.2 0-.4-.1-.5-.1h-.5c-.8-.2-1.4-.4-2-.6-.6-.2-1-.6-1.4-1.2-.5-.8-.8-1.7-.9-2.9-.1-1.2-.1-2.4-.1-3.8v-15.1c-.1-.5-.2-.9-.3-1.1-.1-.2-.4-.4-.8-.6h-.5c-.2 0-.3 0-.5-.1h-.9c-.5 0-.9 0-1.2-.1-.3-.1-.5-.3-.7-.7-.1-.2-.1-.3-.1-.5v-.6c0-.5 0-1 .1-1.4.1-.4.3-.6.7-.8.4-.2 1-.2 1.6-.1.7.1 1.2 0 1.7-.1.3-.2.6-.5.8-.8.1-.2.1-.5.1-.9v-5.6c0-.3 0-.6.1-.8.2-.3.4-.6.9-.7h.3c.1-.2.2-.2.3-.2M557.9 306.3c.1.6.1 1.1-.2 1.5-.2.4-.5.7-.9.9-.2.1-.4.1-.6.1-.2 0-.4 0-.7.1-.8.2-1.7.1-2.5-.1-.8-.3-1.4-.6-1.7-1.1-.2-.3-.4-.6-.5-1-.2-.4-.3-.7-.6-.9-.1-.1-.2-.2-.3-.2-.1-.1-.2-.1-.4-.1-.4.1-.8.3-1.2.6-.4.3-.7.6-1.1.8-.5.3-1 .6-1.6.8-.6.3-1.2.5-1.8.7-.4.1-.8.2-1.2.2-.4 0-.9.1-1.3.2-.2 0-.4.1-.5.1h-.4c-.4.1-.8.1-1.2 0h-.5c-.2 0-.4-.1-.6-.1-.2 0-.4 0-.5-.1-.2 0-.3-.1-.4 0h-.3c-.3-.1-.6-.1-.9-.2-.3-.1-.6-.1-.9-.3-1.2-.5-2.1-1.1-2.8-1.7-.7-.6-1.3-1.5-1.8-2.7-.3-.8-.5-1.9-.5-3.1v-1.2c0-.2.1-.4.1-.6 0-.2 0-.4.1-.7.2-.4.3-.8.5-1.3.2-.4.3-.8.6-1.2.7-1.1 1.6-1.9 2.8-2.5 1.2-.5 2.5-1 3.9-1.4.5-.2 1.1-.3 1.7-.3.6-.1 1.2-.2 1.7-.3.3-.1.5-.1.8-.1.2 0 .5 0 .8-.1.3-.1.5-.1.8-.1.3 0 .6-.1.9-.1 1-.2 1.9-.4 2.7-.6.8-.2 1.5-.6 2-1.3.2-.3.4-.7.6-1.2.2-.5.2-1 0-1.6-.2-.9-.6-1.7-1-2.2-.4-.5-1.1-1-1.9-1.3-.5-.2-1-.3-1.6-.4-.6-.1-1.3-.1-2-.1s-1.4 0-2 .1c-.7.1-1.2.2-1.7.3-.7.2-1.3.6-1.9 1-.3.2-.6.5-.8.9-.3.4-.5.8-.7 1.2-.1.3-.2.6-.3 1-.1.3-.3.6-.6.8-.2.1-.4.2-.8.3-.4.1-.7.1-1.1.1-.4 0-.8 0-1.1-.1-.4-.1-.6-.1-.8-.3-.2-.1-.3-.3-.3-.6-.1-.3-.1-.6 0-.9.1-.5.2-1 .4-1.4.1-.4.3-.9.5-1.3.7-1.3 1.7-2.4 2.8-3.1 1.1-.8 2.5-1.4 4.2-1.8.4-.1.8-.1 1.2-.2.4 0 .8-.1 1.2-.2h.7c.3 0 .6 0 .6-.1 2.7 0 5 .3 7 .9 2 .7 3.4 1.9 4.2 3.8.3.8.5 1.7.6 2.7.1 1 .1 2.1.1 3.2v12.8c0 .5 0 1.1.1 1.6 0 .5.2.9.3 1.2.2.3.4.5.7.6.3.2.7.3 1 .3.3.1.5.2.7.5.1.1.1.2.1.3.1.3.1.4.1.6m-8.2-6.4c.2-.5.4-1.2.4-1.9v-2.2c0-.4 0-.8-.1-1.2 0-.3-.2-.6-.5-.8-.1-.1-.4-.1-.8-.1-.1.1-.2.1-.4.1s-.4 0-.5.1c-.3.1-.7.2-1 .2-.4.1-.8.2-1.2.2h-.8c-.6.2-1.2.2-1.9.3-.7 0-1.3.1-1.9.3-.3.1-.6.1-.8.2-.3.1-.5.1-.8.2-.6.2-1.2.4-1.7.7-.5.3-1 .6-1.4 1.1-.4.4-.7.9-.9 1.5-.2.6-.3 1.3-.2 2.2 0 .4.1.7.2 1.1.1.3.3.6.5.9.3.4.7.8 1.2 1.1.5.3 1 .5 1.6.7.2 0 .4.1.6.1.2 0 .4 0 .6.1.3.1.6.1 1 .1s.7 0 1-.1c.2-.1.5-.1.7-.1.2 0 .5 0 .7-.1.3-.1.6-.1.9-.2.3 0 .6-.1.8-.2 1.1-.5 2.1-1 2.9-1.7.7-.6 1.3-1.5 1.8-2.6M572.3 278c2.8 0 5.1.3 7 1 1.9.7 3.3 1.9 4.4 3.6.3.4.5.9.6 1.3.2.4.3.9.5 1.5.1.3.1.5.1.8 0 .3-.1.5-.2.7-.1.1-.2.1-.3.2-.1.1-.2.1-.3.2-.2.1-.4.1-.6.1h-.6c-.3.1-.7.1-1.2 0s-.8-.1-1-.3c-.3-.2-.5-.5-.6-.8-.1-.3-.2-.6-.4-1-.3-.6-.8-1.2-1.4-1.7-.4-.3-.9-.5-1.4-.7-.5-.2-1-.3-1.6-.5-.2-.1-.4-.1-.6-.1h-.6c-.2-.1-.5-.1-.9-.1-.3 0-.6 0-.9.1h-.3c-.2 0-.4.1-.6.1-.2 0-.4 0-.6.1-1 .2-1.8.6-2.5 1s-1.1 1.1-1.3 2.1c-.1.3-.1.5 0 .8.1.3.1.5.2.7.2.6.5 1 .8 1.2.3.3.7.5 1.2.8.6.4 1.3.7 2.1.8l2.3.6c.5.2 1 .3 1.5.3l1.5.3c.8.2 1.6.5 2.4.7.8.2 1.5.5 2.3.8.2.1.4.2.6.2l.6.3c.8.5 1.4 1 2 1.6.6.6 1.1 1.3 1.4 2.2.1.3.2.6.2 1.1.1.3.1.5.1.8v1.6c-.1.3-.1.5-.1.8 0 .3 0 .5-.1.8-.1.4-.3.8-.4 1.2-.2.4-.3.7-.5 1-.6 1-1.4 1.8-2.4 2.4-1 .6-2 1.1-3.2 1.5-.3.1-.7.2-1.1.3-.4.1-.7.1-1.1.3-.4.1-.8.1-1.2.1-.4 0-.8 0-1.2.1h-.6c-.2 0-.5.1-.8.1-.3 0-.6 0-.8-.1h-.6c-.2-.1-.5-.1-.7-.1-.3 0-.5 0-.7-.1-.2 0-.4-.1-.8-.1-.3-.1-.6-.1-.9-.2-.3-.1-.6-.1-.9-.3-1.2-.4-2.2-.9-3.1-1.4-.9-.6-1.7-1.3-2.3-2.2-.3-.5-.6-1-.9-1.6-.2-.5-.4-1.1-.6-1.8-.1-.2-.1-.5-.1-.8 0-.3.1-.6.1-.8.1-.2.3-.3.6-.5.2-.1.5-.1.8-.1h1c.3 0 .7.1 1 .1.3.1.6.1.7.2.3.2.5.5.5.8.1.4.2.7.4 1 .4.8.9 1.5 1.6 2 .5.3 1 .6 1.6.8l1.8.6 1.2.2h.3c.3.1.6.1 1.1.1.4 0 .8 0 1.1-.1.3 0 .5 0 .6-.1.2 0 .5-.1.7-.1.2 0 .4 0 .6-.1 1.1-.3 2-.7 2.7-1.2.7-.5 1.1-1.3 1.4-2.5.1-.2.1-.4.1-.6 0-.2-.1-.4-.1-.5-.2-.7-.5-1.3-.8-1.6-.3-.4-.8-.7-1.3-1-.3-.2-.7-.4-1.2-.6-.4-.2-.8-.3-1.3-.5-.1 0-.2-.1-.3-.1-.1 0-.2 0-.3-.1-1.3-.4-2.7-.7-4.1-1-1.4-.2-2.7-.6-4-1.1-.4-.2-.7-.3-1.1-.4-.3-.1-.7-.3-1-.5-.7-.4-1.4-.9-2-1.4-.6-.5-1.1-1.2-1.4-2-.1-.3-.2-.5-.3-.8-.1-.3-.1-.6-.2-.9-.1-.5-.2-1-.1-1.6 0-.6.1-1.1.2-1.5.1-.2.1-.4.1-.5 0-.1.1-.3.1-.4.3-.9.8-1.7 1.4-2.3.6-.7 1.3-1.2 2-1.7.6-.3 1.2-.6 1.9-.8.7-.2 1.4-.4 2.2-.6.3 0 .5-.1.8-.1.2 0 .5-.1.8-.1h.5c.6.2.8.2.8.1M621.1 278c2.8 0 5.2.4 7.1 1.2a10.68 10.68 0 0 1 5.8 6.7c.1.2.1.4.2.8 0 .3 0 .6-.1.8-.1.2-.3.4-.6.5-.1.1-.2.1-.3.1H630.6c-.4 0-.7-.1-1-.3-.3-.2-.5-.6-.6-1-.1-.4-.3-.8-.5-1.1a6.62 6.62 0 0 0-3.3-2.9c-.3-.1-.7-.3-1.1-.4-.5-.2-1.3-.2-2.1-.3-.9 0-1.6.1-2.2.3-.3.1-.5.1-.7.2-.2 0-.5.1-.7.2-1 .4-1.9 1-2.7 1.7-.8.7-1.4 1.6-1.8 2.6-.2.3-.3.7-.4 1.1l-.3 1.2-.3 1.6v.6c0 .2 0 .4-.1.6v.5c0 .2-.1.4-.1.8 0 .3 0 .6.1.7v1.2c0 .2.1.4.1.8.1.3.1.6.2 1 .1.3.1.7.2 1 .4 1.2.9 2.3 1.5 3.2.6.9 1.3 1.7 2.3 2.3.3.2.7.4 1.1.5.4.2.8.3 1.2.5.2 0 .3.1.5.1.1 0 .3 0 .5.1.1 0 .3.1.6.1h.6s.1.1.2.1h.6c.3-.1.5-.1.8-.1.3 0 .5 0 .8-.1 1-.3 1.9-.7 2.6-1.2a6.56 6.56 0 0 0 2.3-2.9c.2-.3.3-.7.5-1l.3-.9c.1-.3.3-.5.5-.7.1-.1.3-.2.7-.3.3-.1.7-.1 1.1-.1h1.2c.4 0 .6.1.8.2.2.2.4.4.4.7.1.3 0 .6 0 1-.2.6-.4 1.1-.5 1.6-.2.5-.4 1-.7 1.5-.6 1.2-1.3 2.2-2.2 3.1-.9.9-1.9 1.6-3.1 2.1a3 3 0 0 1-1 .4c-.3.1-.7.2-1.1.3-.4.2-.8.2-1.3.3-.4 0-.8.1-1.3.1-.2.1-.3.1-.5.1h-1.9c-.3 0-.5 0-.8-.1h-.3l-1.4-.2c-.5-.2-1-.3-1.4-.4-.5-.1-.9-.3-1.3-.5-1.4-.6-2.5-1.3-3.4-2.2-.9-.8-1.7-1.9-2.5-3.1-.2-.3-.4-.7-.5-1-.2-.4-.3-.8-.5-1.2-.2-.4-.3-.9-.4-1.3l-.3-1.4c0-.2-.1-.3-.1-.5s0-.3-.1-.5-.1-.5-.1-.7c0-.3 0-.5-.1-.7v-.6c0-.2-.1-.5-.1-.8 0-.3 0-.6.1-.8v-1c.1-.3.1-.5.1-.8s0-.5.1-.7c.2-.7.3-1.3.4-2 .1-.7.3-1.3.5-1.8.8-2 1.8-3.6 2.9-4.8 1.2-1.2 2.7-2.3 4.7-3.1.4-.2.9-.3 1.4-.4.5-.1 1-.2 1.6-.3.3 0 .5-.1.8-.1.4-.1.7-.1 1-.2M668 292.3c.1.2.1.6.1 1.1 0 .5 0 .8-.1 1v.6c0 .3-.1.6-.1.8 0 .3 0 .5-.1.8-.1.2-.1.5-.1.7 0 .2-.1.5-.1.7-.2.5-.3 1-.4 1.5a14.03 14.03 0 0 1-3.7 6c-1.3 1.3-3 2.2-5 2.9-.4.2-.9.3-1.4.3-.5.1-1 .2-1.5.2-.2 0-.5.1-.7.1h-.7c-.2 0-.4.1-.7.1-.3 0-.5 0-.6-.1h-1.2l-1.4-.2c-.5-.2-1.1-.3-1.6-.5s-1-.3-1.4-.5c-1.7-.8-3.2-1.8-4.3-3-1.1-1.2-2-2.7-2.8-4.5-.2-.4-.3-.8-.4-1.2l-.3-1.2c-.1-.2-.1-.3-.1-.4v-.4c-.1-.3-.1-.6-.1-1 0-.3-.1-.6-.1-1v-.5c0-.1 0-.3-.1-.5 0-.2-.1-.5-.1-1s0-.8.1-1.1c.1-.3.1-.5.1-.8 0-.3 0-.5.1-.8 0-.2.1-.4.1-.5 0-.1 0-.3.1-.5l.3-1.4c.1-.5.2-.9.4-1.3.6-1.4 1.3-2.7 2.1-3.8.8-1.1 1.8-2.1 3-2.9.5-.3.9-.6 1.4-.8.5-.2 1-.4 1.6-.7.5-.2 1-.3 1.5-.4l1.6-.3h.8c.3 0 .5 0 .7-.1 3.4 0 6.3.7 8.5 2.1 2.3 1.5 3.9 3.4 4.9 5.7.2.4.3.8.5 1.2.1.4.2.8.4 1.2.1.4.2.9.3 1.4l.3 1.5v.6c.2.5.2.7.2.9m-5.1 3.3c.1-.3.1-.6.1-.9v-1c0-1.5-.1-2.8-.4-3.8l-.3-.9-.3-.9a9.63 9.63 0 0 0-5.1-5.2l-.9-.3c-.3-.1-.6-.1-.9-.2-.3-.1-.6-.1-1-.1h-1l-1 .2-1.1.3c-.3.1-.6.2-1 .4-.3.1-.5.2-.7.3-.2.2-.4.3-.6.5-.9.7-1.7 1.4-2.3 2.4-.6.9-1.1 2-1.5 3.2-.1.4-.2.8-.2 1.2 0 .4-.1.8-.2 1.2 0 .2-.1.4-.1.7v2.1c0 .4 0 .7.1 1l.1.7c.1.4.1.8.2 1.1.1.4.2.7.3 1 .4.9.8 1.8 1.4 2.6.5.8 1.2 1.5 1.9 2 .2.1.4.2.5.3.2.1.3.2.5.3.3.2.6.4 1 .5.4.1.8.3 1.2.4.2.1.4.1.5.1h.5c.1 0 .4.1.7.1.4 0 .6 0 .8-.1h.5c.2 0 .3 0 .5-.1.3-.1.6-.1.9-.2.3-.1.6-.1.9-.3 1.3-.5 2.4-1.3 3.2-2.3.8-1 1.5-2.1 2-3.4.2-.5.3-1 .4-1.5.1-.4.2-.9.4-1.4M688.3 278c.9 0 1.4.2 1.5.7.1.4.2 1.1.2 1.9v1.1c0 .3-.1.6-.3.9-.2.3-.6.5-1 .5s-.8.1-1.3.2-1.1.2-1.5.3c-.5.1-.9.3-1.4.5-1.1.5-2 1.2-2.7 2-.7.9-1.3 1.9-1.8 3-.2.4-.3.9-.3 1.3-.1.4-.2.9-.3 1.4v1.2c-.1.5-.2 1-.1 1.6v10.1c0 .5 0 .9-.1 1.3v1.1c0 .3-.1.6-.3.8-.2.3-.5.4-.9.5-.4 0-.8.1-1.3.1h-1c-.2-.1-.4-.1-.5-.2-.2-.1-.3-.1-.4-.3-.2-.3-.3-.6-.3-1v-26.8c0-.4.1-.7.3-1 .1-.2.3-.3.6-.3.3-.1.6-.1 1-.1h1c.3 0 .6.1.8.2.3.1.5.3.6.7.1.3.1.7.1 1v1.2c0 .4.1.8.2 1.1 0 .1.1.1.1.2l.2.2c.4 0 .8-.2 1-.5.3-.4.5-.7.7-.9l.3-.3c.3-.4.8-.9 1.4-1.3.6-.5 1.2-.8 1.7-1 .3-.2.7-.3 1.1-.4l1.2-.3c.2 0 .5-.1.7-.1.4-.5.6-.5.8-.6M708.1 278c.9 0 1.4.2 1.5.7.1.4.2 1.1.2 1.9v1.1c0 .3-.1.6-.3.9-.2.3-.6.5-1 .5s-.8.1-1.3.2l-1.5.3c-.5.1-.9.3-1.4.5-1.1.5-2 1.2-2.7 2-.7.9-1.3 1.9-1.8 3-.2.4-.3.9-.3 1.3-.1.4-.2.9-.3 1.4v1.2c-.1.5-.2 1-.1 1.6v10.1c0 .5 0 .9-.1 1.3 0 .4-.1.8 0 1.1 0 .3-.1.6-.3.8-.2.3-.5.4-.9.5-.4 0-.8.1-1.3.1h-1c-.2-.1-.4-.1-.5-.2-.2-.1-.3-.1-.4-.3-.2-.3-.3-.6-.3-1v-26.8c0-.4.1-.7.3-1 .1-.2.3-.3.6-.3.3-.1.6-.1 1-.1h1c.3 0 .6.1.8.2.3.1.5.3.6.7.1.3.1.7.1 1v1.2c0 .4.1.8.2 1.1 0 .1.1.1.1.2l.2.2c.4 0 .8-.2 1-.5.3-.4.5-.7.7-.9l.3-.3c.3-.4.8-.9 1.4-1.3.6-.5 1.2-.8 1.7-1 .3-.2.7-.3 1.1-.4l1.2-.3c.2 0 .5-.1.7-.1.4-.5.6-.5.8-.6M739.9 292.4c.1.4.1.8 0 1.3s-.2.8-.4 1c-.2.2-.5.3-.8.3-.4.1-.8.1-1.2.1H719.2c-.3 0-.6.1-.7.2-.2.1-.3.2-.5.5-.1.1-.2.3-.2.5-.1.2-.1.4 0 .6 0 .2.1.4.1.5 0 .2 0 .3.1.5.1.3.2.6.2 1 .1.3.2.6.3 1 .9 2.1 2.3 3.6 4.4 4.4.2.1.5.2.7.3.3.1.5.2.8.2.1 0 .3.1.6.1.5.2 1.2.2 2.1.2.9 0 1.6-.1 2.1-.2.5-.2 1-.3 1.5-.5.4-.2.9-.4 1.2-.7.4-.3.8-.6 1.1-1 .3-.4.6-.8.8-1.2l.6-1.2c.2-.4.5-.7.9-.9.2-.1.4-.1.7-.2h1c.3 0 .7 0 1 .1.3 0 .5.1.6.2.4.3.5.7.3 1.3-.3 1-.7 2-1.2 2.8-.8 1.2-1.6 2.2-2.6 3-1 .8-2.2 1.4-3.7 1.9-.4.2-.8.3-1.2.3-.4.1-.8.1-1.2.2-.2 0-.4.1-.5.1-.2 0-.4 0-.5.1h-.6c-.2 0-.4.1-.7.1-.3 0-.5 0-.6-.1h-.5c-.2 0-.4-.1-.5-.1-.2 0-.3 0-.5-.1-.2 0-.4-.1-.6-.1-.2 0-.4 0-.6-.1l-1-.3-1-.3c-.2-.1-.3-.1-.4-.1-.1 0-.3-.1-.4-.1-.6-.3-1.2-.6-1.8-1-1.1-.7-2.1-1.6-2.9-2.7-.8-1.1-1.5-2.2-2-3.6-.2-.4-.3-.9-.4-1.3-.1-.5-.2-.9-.4-1.4 0-.2-.1-.3-.1-.4 0-.1 0-.3-.1-.5-.1-.3-.1-.6-.2-1 0-.3-.1-.7-.2-1v-.8c0-.2-.1-.4-.1-.7V292.3c.1-.2.1-.4.1-.6v-.6c.2-.6.3-1.2.4-1.8.1-.6.3-1.2.5-1.7.2-.4.4-.9.5-1.3.2-.4.4-.9.6-1.3a14.35 14.35 0 0 1 6.9-6c.5-.2.9-.3 1.4-.4l1.5-.3c.2 0 .4-.1.5-.1h.8c.1 0 .2 0 .3-.1 1.6 0 3 .1 4.2.5 1.2.4 2.3.9 3.2 1.5.2.1.3.2.5.3.1.1.3.2.4.3.3.2.6.5 1 .8.3.3.6.6.8.9.6.8 1.1 1.6 1.6 2.3.3.4.5.9.6 1.4.2.5.3 1 .5 1.5s.3 1 .4 1.6c.1.5.2 1.1.4 1.6 0 .3.1.5.1.8.2.3.2.5.3.8m-5.6-2 .3-.6c.1-.2.1-.5 0-.8a10.18 10.18 0 0 0-2.8-4.7c-.7-.6-1.5-1.1-2.5-1.6-.3-.1-.5-.1-.8-.2-.3-.1-.6-.1-.9-.2-.3-.1-.6-.1-1-.1h-1c-.1.1-.3.1-.4.1h-.4c-.3.1-.6.1-.9.2-.3.1-.6.1-.8.2-1.1.5-2 1-2.7 1.7a10 10 0 0 0-1.8 2.6c-.1.2-.2.4-.3.7-.1.3-.2.6-.3 1-.1.3-.1.7-.1 1 0 .3.2.5.4.7.3.2.8.3 1.6.3h12.8c.8.2 1.3 0 1.6-.3M772.2 305.3v1.5c0 .5-.1.9-.3 1.2-.2.3-.5.4-1 .4H768.8c-.2 0-.4 0-.5-.1-.3-.1-.6-.2-.7-.5-.2-.2-.2-.4-.3-.7 0-.3-.1-.5-.2-.8 0-.1-.1-.1-.1-.2l-.2-.2c-.4 0-.7 0-.9.2-.2.2-.4.4-.7.6-.8.6-1.5 1-2.3 1.3-.7.3-1.5.5-2.4.7-.9.2-1.8.2-2.8.3-.9 0-1.9 0-2.8-.2-.9-.1-1.7-.4-2.4-.7-2-.8-3.6-2-4.8-3.4a15.4 15.4 0 0 1-2.9-5.4c-.2-.3-.3-.7-.3-1.1-.1-.4-.1-.7-.3-1.1 0-.2-.1-.4-.1-.6 0-.2 0-.4-.1-.6-.1-.2-.1-.4-.1-.6v-1.2c-.1-.2-.1-.4-.1-.7 0-.3 0-.6.1-.8v-.6c.1-.3.1-.5.1-.8 0-.3 0-.6.1-.8 0-.2.1-.4.1-.5 0-.2 0-.3.1-.5.1-.4.2-.8.3-1.1l.3-1.1c.5-1.5 1.1-2.8 1.9-4 .8-1.2 1.7-2.1 2.9-2.9.7-.5 1.3-.8 2.1-1.2.7-.3 1.5-.6 2.3-.8.3 0 .5-.1.8-.1.2 0 .5-.1.8-.2h.6c.3-.1.8-.1 1.4-.1.6 0 1 0 1.4.1.2 0 .4.1.6.1.4.1.8.2 1.3.3.4.1.8.2 1.2.4.6.2 1.1.5 1.6.7l1.5.9c.2.2.5.4.7.6.2.2.6.3 1 .2.1-.1.1-.2.2-.3.1-.1.1-.2.1-.3.1-.3.2-.8.1-1.3v-9.8c0-.7.1-1.2.3-1.5.2-.3.4-.4.7-.5h2.3c.6 0 1 .2 1.2.5.2.3.3.7.3 1.2v36.1zm-4.6-10.9c.1-.2.1-.5.1-.8 0-.3 0-.6-.1-.8v-.8c-.1-.3-.1-.7-.2-1.1 0-.4-.1-.7-.2-1-.1-.3-.1-.6-.2-.9-.1-.3-.1-.5-.3-.8-.5-1.2-1.1-2.2-1.8-3.1a7.4 7.4 0 0 0-2.8-2.1c-.4-.2-.8-.3-1.2-.4-.4-.1-.8-.2-1.3-.3-.3-.1-.6-.1-1-.1h-1.1c-.2 0-.4.1-.5.1h-.5c-.3.1-.6.2-1 .2-.3.1-.6.2-1 .3-1.2.5-2.2 1.3-3 2.3-.7 1-1.4 2.2-1.8 3.5-.2.4-.3.9-.3 1.3-.1.4-.1.9-.2 1.3v.8c-.1.2-.1.4-.1.6V294.4c0 .4 0 .8.1 1.1 0 .1.1.3.1.6.1.3.1.5.2.8.1.3.1.5.2.8.4 1.3 1 2.5 1.7 3.5s1.7 1.8 2.8 2.4c.3.2.7.3 1 .5.3.1.7.2 1.2.3.2.1.4.1.6.1.2 0 .4 0 .6.1.2 0 .3.1.5.1h1c.1 0 .3-.1.6-.1.3-.1.6-.1.9-.2.3-.1.6-.1.9-.3a8.75 8.75 0 0 0 5.1-5.1c.2-.4.3-.8.4-1.3.1-.4.2-.8.3-1.3.1-.2.1-.3.1-.4 0-.1 0-.3.1-.4v-.7s0-.3.1-.5M806.2 292.4c.1.4.1.8 0 1.3s-.2.8-.4 1c-.2.2-.5.3-.8.3-.4.1-.8.1-1.2.1H785.5c-.3 0-.6.1-.8.2-.2.1-.3.2-.5.5-.1.1-.2.3-.2.5-.1.2-.1.4 0 .6 0 .2.1.4.1.5 0 .2 0 .3.1.5.1.3.2.6.2 1 .1.3.2.6.3 1 .9 2.1 2.3 3.6 4.4 4.4.2.1.5.2.7.3.3.1.5.2.8.2.1 0 .3.1.6.1.5.2 1.2.2 2.1.2.9 0 1.6-.1 2.1-.2.5-.2 1-.3 1.5-.5.4-.2.9-.4 1.2-.7.4-.3.8-.6 1.1-1 .3-.4.6-.8.8-1.2l.6-1.2c.2-.4.5-.7.9-.9.2-.1.4-.1.7-.2h1c.3 0 .7 0 1 .1.3 0 .5.1.6.2.4.3.5.7.3 1.3-.3 1-.7 2-1.2 2.8-.8 1.2-1.6 2.2-2.6 3-1 .8-2.2 1.4-3.7 1.9-.4.2-.8.3-1.2.3-.4.1-.8.1-1.2.2-.2 0-.4.1-.5.1-.2 0-.4 0-.5.1h-.6c-.2 0-.4.1-.7.1-.3 0-.5 0-.6-.1h-.3c-.2 0-.4-.1-.5-.1-.2 0-.3 0-.5-.1-.2 0-.4-.1-.6-.1-.2 0-.4 0-.6-.1l-1-.3-1-.3c-.2-.1-.3-.1-.4-.1-.1 0-.3-.1-.4-.1-.6-.3-1.2-.6-1.8-1-1.1-.7-2.1-1.6-2.9-2.7-.8-1.1-1.5-2.2-2-3.6-.2-.4-.3-.9-.4-1.3-.1-.5-.2-.9-.4-1.4 0-.2-.1-.3-.1-.4 0-.1 0-.3-.1-.5-.1-.3-.1-.6-.2-1 0-.3-.1-.7-.2-1v-.8c0-.2-.1-.4-.1-.7V292.3c.1-.2.1-.4.1-.6v-.6c.2-.6.3-1.2.4-1.8.1-.6.3-1.2.5-1.7.2-.4.4-.9.5-1.3.2-.4.4-.9.6-1.3a14.35 14.35 0 0 1 6.9-6c.5-.2.9-.3 1.4-.4l1.5-.3c.2 0 .4-.1.5-.1h.8c.1 0 .2 0 .3-.1 1.6 0 3 .1 4.2.5 1.2.4 2.3.9 3.2 1.5.2.1.3.2.5.3.1.1.3.2.4.3.3.2.6.5 1 .8.3.3.6.6.8.9.6.8 1.1 1.6 1.6 2.3.3.4.5.9.6 1.4.2.5.3 1 .5 1.5s.3 1 .4 1.6c.1.5.2 1.1.4 1.6 0 .3.1.5.1.8.2.3.2.5.2.8m-5.6-2 .3-.6c.1-.2.1-.5 0-.8a10.18 10.18 0 0 0-2.8-4.7c-.7-.6-1.5-1.1-2.5-1.6-.3-.1-.5-.1-.8-.2-.3-.1-.6-.1-.9-.2-.3-.1-.6-.1-1-.1h-1c-.1.1-.2.1-.4.1h-.4c-.3.1-.6.1-.9.2-.3.1-.6.1-.8.2-1.1.5-2 1-2.7 1.7a10 10 0 0 0-1.8 2.6c-.1.2-.2.4-.3.7-.1.3-.2.6-.3 1-.1.3-.1.7-.1 1 0 .3.2.5.4.7.3.2.8.3 1.6.3H799c.8.2 1.4 0 1.6-.3M825.9 278c.9 0 1.4.2 1.5.7.1.4.2 1.1.2 1.9v1.1c0 .3-.1.6-.3.9-.2.3-.6.5-1 .5s-.8.1-1.3.2l-1.5.3c-.5.1-.9.3-1.4.5-1.1.5-2 1.2-2.7 2-.7.9-1.3 1.9-1.8 3-.2.4-.3.9-.3 1.3-.1.4-.2.9-.3 1.4v1.2c-.1.5-.2 1-.1 1.6v10.1c0 .5 0 .9-.1 1.3 0 .4-.1.8 0 1.1 0 .3-.1.6-.3.8-.2.3-.5.4-.9.5-.4 0-.8.1-1.3.1h-1c-.2-.1-.4-.1-.5-.2-.2-.1-.3-.1-.4-.3-.2-.3-.3-.6-.3-1v-26.8c0-.4.1-.7.3-1 .1-.2.3-.3.6-.3.3-.1.6-.1 1-.1h1c.3 0 .6.1.8.2.3.1.5.3.6.7.1.3.1.7.1 1v1.2c0 .4.1.8.2 1.1 0 .1.1.1.1.2l.2.2c.4 0 .8-.2 1-.5.3-.4.5-.7.7-.9l.3-.3c.3-.4.8-.9 1.4-1.3.6-.5 1.2-.8 1.7-1 .3-.2.7-.3 1.1-.4l1.2-.3c.2 0 .5-.1.7-.1.4-.5.6-.5.8-.6M858.1 306.3c.1.6.1 1.1-.2 1.5-.2.4-.5.7-.9.9-.2.1-.4.1-.6.1-.2 0-.4 0-.7.1-.8.2-1.7.1-2.5-.1-.8-.3-1.4-.6-1.7-1.1-.2-.3-.4-.6-.5-1-.2-.4-.3-.7-.6-.9-.1-.1-.2-.2-.3-.2-.1-.1-.2-.1-.4-.1-.4.1-.8.3-1.2.6-.4.3-.7.6-1.1.8-.5.3-1 .6-1.6.8-.6.3-1.2.5-1.8.7-.4.1-.8.2-1.2.2-.4 0-.9.1-1.3.2-.2 0-.4.1-.5.1h-.4c-.4.1-.8.1-1.2 0h-.5c-.2 0-.4-.1-.6-.1-.2 0-.4 0-.5-.1-.2 0-.3-.1-.4 0h-.3c-.3-.1-.6-.1-.9-.2-.3-.1-.6-.1-.9-.3-1.2-.5-2.1-1.1-2.8-1.7-.7-.6-1.3-1.5-1.8-2.7-.3-.8-.5-1.9-.5-3.1v-1.2c0-.2.1-.4.1-.6 0-.2 0-.4.1-.7.2-.4.3-.8.5-1.3.2-.4.3-.8.6-1.2.7-1.1 1.6-1.9 2.8-2.5 1.2-.5 2.5-1 3.9-1.4.5-.2 1.1-.3 1.7-.3.6-.1 1.2-.2 1.7-.3.3-.1.5-.1.8-.1.2 0 .5 0 .8-.1.3-.1.5-.1.8-.1.3 0 .6-.1.9-.1 1-.2 1.9-.4 2.7-.6.8-.2 1.5-.6 2-1.3.2-.3.4-.7.6-1.2.2-.5.2-1 0-1.6-.2-.9-.6-1.7-1-2.2-.4-.5-1.1-1-1.9-1.3-.5-.2-1-.3-1.6-.4-.6-.1-1.3-.1-2-.1s-1.4 0-2 .1c-.7.1-1.2.2-1.7.3-.7.2-1.3.6-1.9 1-.3.2-.6.5-.8.9-.3.4-.5.8-.7 1.2-.1.3-.2.6-.3 1-.1.3-.3.6-.6.8-.2.1-.4.2-.8.3-.4.1-.7.1-1.1.1-.4 0-.8 0-1.1-.1-.4-.1-.6-.1-.8-.3-.2-.1-.3-.3-.3-.6-.1-.3-.1-.6 0-.9.1-.5.2-1 .4-1.4.1-.4.3-.9.5-1.3.7-1.3 1.7-2.4 2.8-3.1 1.1-.8 2.5-1.4 4.2-1.8.4-.1.8-.1 1.2-.2.4 0 .8-.1 1.2-.2h.7c.3 0 .6 0 .6-.1 2.7 0 5 .3 7 .9 2 .7 3.4 1.9 4.2 3.8.3.8.5 1.7.6 2.7.1 1 .1 2.1.1 3.2v12.8c0 .5 0 1.1.1 1.6 0 .5.2.9.3 1.2.2.3.4.5.7.6.3.2.7.3 1 .3.3.1.5.2.7.5.1.1.1.2.1.3.1.3.1.4.1.6m-8.2-6.4c.2-.5.4-1.2.4-1.9v-2.2c0-.4 0-.8-.1-1.2 0-.3-.2-.6-.5-.8-.1-.1-.4-.1-.8-.1-.1.1-.2.1-.4.1s-.4 0-.5.1c-.3.1-.7.2-1 .2-.4.1-.8.2-1.2.2h-.8c-.6.2-1.2.2-1.9.3-.7 0-1.3.1-1.9.3-.3.1-.6.1-.8.2-.3.1-.5.1-.8.2-.6.2-1.2.4-1.7.7-.5.3-1 .6-1.4 1.1-.4.4-.7.9-.9 1.5-.2.6-.3 1.3-.2 2.2 0 .4.1.7.2 1.1.1.3.3.6.5.9.3.4.7.8 1.2 1.1.5.3 1 .5 1.6.7.2 0 .4.1.6.1.2 0 .4 0 .6.1.3.1.6.1 1 .1s.7 0 1-.1c.2-.1.5-.1.7-.1.2 0 .5 0 .7-.1.3-.1.6-.1.9-.2.3 0 .6-.1.8-.2 1.1-.5 2.1-1 2.9-1.7.7-.6 1.3-1.5 1.8-2.6M872.5 278c2.8 0 5.1.3 7 1 1.9.7 3.3 1.9 4.4 3.6.3.4.5.9.6 1.3.2.4.3.9.5 1.5.1.3.1.5.1.8 0 .3-.1.5-.2.7-.1.1-.2.1-.3.2-.1.1-.2.1-.3.2-.2.1-.4.1-.6.1h-.6c-.3.1-.7.1-1.2 0s-.8-.1-1-.3c-.3-.2-.5-.5-.6-.8-.1-.3-.2-.6-.4-1-.3-.6-.8-1.2-1.4-1.7-.4-.3-.9-.5-1.4-.7-.5-.2-1-.3-1.6-.5-.2-.1-.4-.1-.6-.1h-.6c-.2-.1-.5-.1-.9-.1-.3 0-.6 0-.9.1h-.3c-.2 0-.4.1-.6.1-.2 0-.4 0-.6.1-1 .2-1.8.6-2.5 1s-1.1 1.1-1.3 2.1c-.1.3-.1.5 0 .8.1.3.1.5.2.7.2.6.5 1 .8 1.2.3.3.7.5 1.2.8.6.4 1.3.7 2.1.8l2.3.6c.5.2 1 .3 1.5.3l1.5.3c.8.2 1.6.5 2.4.7.8.2 1.5.5 2.3.8.2.1.4.2.6.2l.6.3c.8.5 1.4 1 2 1.6.6.6 1.1 1.3 1.4 2.2.1.3.2.6.2 1.1.1.3.1.5.1.8v1.6c-.1.3-.1.5-.1.8 0 .3 0 .5-.1.8-.1.4-.3.8-.4 1.2-.2.4-.3.7-.5 1-.6 1-1.4 1.8-2.4 2.4-1 .6-2 1.1-3.2 1.5-.3.1-.7.2-1.1.3-.4.1-.7.1-1.1.3-.4.1-.8.1-1.2.1-.4 0-.8 0-1.2.1h-.6c-.2 0-.5.1-.8.1-.3 0-.6 0-.8-.1h-.6c-.2-.1-.5-.1-.7-.1-.3 0-.5 0-.7-.1-.2 0-.4-.1-.8-.1-.3-.1-.6-.1-.9-.2-.3-.1-.6-.1-.9-.3-1.2-.4-2.2-.9-3.1-1.4-.9-.6-1.7-1.3-2.3-2.2-.3-.5-.6-1-.9-1.6-.2-.5-.4-1.1-.6-1.8-.1-.2-.1-.5-.1-.8 0-.3.1-.6.1-.8.1-.2.3-.3.6-.5.2-.1.5-.1.8-.1h1c.3 0 .7.1 1 .1.3.1.6.1.7.2.3.2.5.5.5.8.1.4.2.7.4 1 .4.8.9 1.5 1.6 2 .5.3 1 .6 1.6.8l1.8.6 1.2.2h.3c.3.1.6.1 1.1.1.4 0 .8 0 1.1-.1.3 0 .5 0 .6-.1.2 0 .5-.1.7-.1.2 0 .4 0 .6-.1 1.1-.3 2-.7 2.7-1.2.7-.5 1.1-1.3 1.4-2.5.1-.2.1-.4.1-.6 0-.2-.1-.4-.1-.5-.2-.7-.5-1.3-.8-1.6-.3-.4-.8-.7-1.3-1-.3-.2-.7-.4-1.2-.6-.4-.2-.8-.3-1.3-.5-.1 0-.2-.1-.3-.1-.1 0-.2 0-.3-.1-1.3-.4-2.7-.7-4.1-1-1.4-.2-2.7-.6-4-1.1-.4-.2-.7-.3-1.1-.4-.3-.1-.7-.3-1-.5-.7-.4-1.4-.9-2-1.4-.6-.5-1.1-1.2-1.4-2-.1-.3-.2-.5-.3-.8-.1-.3-.1-.6-.2-.9-.1-.5-.2-1-.1-1.6 0-.6.1-1.1.2-1.5.1-.2.1-.4.1-.5 0-.1.1-.3.1-.4.3-.9.8-1.7 1.4-2.3.6-.7 1.3-1.2 2-1.7.6-.3 1.2-.6 1.9-.8.7-.2 1.4-.4 2.2-.6.3 0 .5-.1.8-.1.2 0 .5-.1.8-.1h.5c.6.2.8.2.8.1"/></g></svg>