<svg xmlns="http://www.w3.org/2000/svg" viewBox="0 0 212.97 60.16"><path d="m79.59,46.5h-13.34l-2.14,12.61h-6.42L68.3,1.12h9.15l10.69,58h-6.42l-2.14-12.61Zm-.94-5.44l-5.73-33.64-5.73,33.64h11.46Z"></path><path d="m119.3,6.56h-10.09v52.56h-6.42V6.56h-10.09V1.12h26.6v5.44Z"></path><path d="m154.73,6.56h-10.09v52.56h-6.42V6.56h-10.09V1.12h26.6v5.44Z"></path><path d="m184.74.22c-16.4,0-28.31,12.55-28.31,29.83,0,8.13,2.69,15.61,7.59,21.08,5.21,5.82,12.37,8.9,20.72,8.9,16.62,0,28.23-12.33,28.23-29.97S201.36.22,184.74.22Zm22.44,29.83c0,14.55-9.02,24.32-22.44,24.32s-22.51-10-22.51-24.32,9.26-24.25,22.51-24.25,22.44,9.75,22.44,24.25Z"></path><path d="m25.82,26.86l-1.55-.32c-10.1-2.14-17.39-3.69-17.39-11.03,0-6.83,5.84-10.29,17.35-10.29,12.96,0,19.61,4.71,19.77,13.99h4.34C48.18,7.11,39.85.72,24.23.72,10.04.72,2.54,5.83,2.54,15.51c0,10.89,9.52,12.9,20.55,15.23,1.31.28,2.58.54,3.8.79,10.33,2.12,17.79,3.65,17.79,12.82,0,7.37-5.25,10.51-17.55,10.51-14.07,0-21.89-5.79-22.07-16.31H.72c.16,13.47,9.53,20.88,26.41,20.88,14.93,0,21.89-4.86,21.89-15.3,0-12.56-9.73-14.54-23.2-17.28Z"></path><path d="m25.96,26.16l-1.55-.32c-10.13-2.15-16.82-3.57-16.82-10.33,0-6.35,5.6-9.57,16.63-9.57,12.65,0,19.06,4.59,19.06,13.63v.36h5.78v-.36C49.06,6.95,40.24,0,24.23,0,9.78,0,1.82,5.51,1.82,15.51c0,11.47,9.79,13.54,21.12,15.94,1.31.28,2.58.54,3.81.8,10.37,2.13,17.21,3.53,17.21,12.12,0,4.84-2,9.79-16.83,9.79-13.97,0-21.35-5.52-21.35-15.95v-.36H0v.36c0,13.96,9.89,21.96,27.13,21.96,15.42,0,22.61-5.09,22.61-16.02,0-13.14-10.49-15.28-23.77-17.99Zm1.17,33.29C10.25,59.45.88,52.03.72,38.56h4.34c.17,10.52,7.99,16.31,22.07,16.31,12.3,0,17.55-3.14,17.55-10.51,0-9.18-7.46-10.71-17.79-12.82-1.22-.25-2.49-.51-3.8-.79C12.06,28.42,2.54,26.4,2.54,15.51,2.54,5.83,10.04.72,24.23.72c15.62,0,23.95,6.39,24.11,18.49h-4.34c-.17-9.28-6.82-13.99-19.77-13.99-11.51,0-17.35,3.46-17.35,10.29,0,7.34,7.29,8.89,17.39,11.03l1.55.32c13.47,2.74,23.2,4.73,23.2,17.28,0,10.44-6.96,15.3-21.89,15.3Z"></path></svg>