<svg xmlns="http://www.w3.org/2000/svg" width="1024" height="167" viewBox="0 0 10240 1670"><path fill="#00a9e2" d="M6921 1649c-32-10-64-22-71-26-9-4-20-8-25-8-28 0-154-105-303-253-204-202-218-218-258-301a484 484 0 0 1-37-378c46-119 78-162 272-358 231-234 296-279 439-308 80-18 110-18 182-2 159 34 212 72 460 323 167 168 181 186 214 254 52 109 57 133 57 243 1 102-5 132-43 212-42 91-27 73-234 283-251 255-263 264-402 311-94 31-167 34-251 8zm183-311c40-15 71-42 221-193 187-189 203-207 219-266 12-41 5-85-23-148-20-46-352-373-403-397-53-24-116-25-165-2-50 24-395 364-421 414-25 50-25 111 0 165 13 29 66 90 184 208 91 93 181 179 201 193 64 45 117 52 187 26zM24 1618c-27-21-29-34-16-77 7-24 16-62 20-86a7047 7047 0 0 0 35-195l26-135c23-109 32-164 43-225 3-23 17-94 29-156 28-134 39-192 50-256 21-113 37-172 60-221 45-94 124-161 231-197 56-19 72-20 298-20 257 0 271 2 369 49 46 22 142 107 142 125 0 3 7 16 16 28 16 23 20 32 37 97 8 31 39 176 52 252a10370 10370 0 0 0 86 455c15 81 24 130 44 225 20 101 27 141 41 226 5 28 11 59 15 67 3 8-1 20-12 32-17 16-28 18-147 18-91 0-132-4-144-11-10-8-20-45-36-128l-43-217H384l-4 20c-7 32-33 163-40 210-10 60-23 109-30 115-8 9-276 13-286 5zm1128-702c-8-52-19-116-30-172-28-139-47-239-52-273-16-101-36-109-261-109-188 0-211 3-242 30-18 16-44 115-71 283-14 87-31 172-48 254l-5 27h715zM2087 1616a403 403 0 0 1-276-204c-49-99-49-93-49-746 0-586 1-603 17-611 21-12 252-12 269 0 12 7 14 86 18 601l4 595 29 28 27 28 307 5c244 3 309 7 321 16 12 11 14 30 12 143-2 129-2 131-24 142-17 8-95 10-316 9-163 0-315-3-339-6zM3323 1616c-69-9-97-17-173-55a569 569 0 0 1-215-215c-65-134-63-115-63-728 0-484 2-546 14-558 11-11 36-14 140-14 71 0 134 4 141 9 11 7 14 81 17 556 4 500 6 552 19 579 22 43 50 73 89 97 35 20 37 20 304 20 258 0 270 0 303-19 45-23 67-48 95-103l22-45V602c0-523 1-539 17-547 9-5 71-9 137-9 94 0 124 3 139 14l19 13v530c0 591 0 603-54 717a531 531 0 0 1-249 254c-92 42-96 43-377 46-147 1-294 0-325-4zM4970 1616a516 516 0 0 1-425-429c-11-69-11-636 1-704a583 583 0 0 1 77-206c0-21 109-126 166-160 117-68 100-67 502-67 350 0 360 1 406 19 78 32 142 74 198 130 89 91 109 150 57 177l-78 45c-30 18-58 32-63 32-4 0-9 3-9 7 0 12-51 30-69 24-10-3-17-9-17-12 0-4-14-23-32-43-27-33-54-50-103-67-21-7-561-6-582 1-73 25-123 73-140 137-7 28-10 129-10 338 0 364 3 379 104 449l30 20h607l39-23c80-47 104-101 104-229v-90h-214c-121 0-221-4-228-9-11-6-14-34-16-138-2-121-2-130 15-147 18-18 26-18 368-18 321 0 352 1 369 15 19 15 19 18 15 267-3 238-6 288-22 329a529 529 0 0 1-326 334c-50 19-62 20-364 22-172 1-334 0-360-4zM7986 1618c-9-2-16-11-19-19-2-8 4-97 13-197l24-277 17-190c4-52 15-164 21-247 26-287 58-381 165-489 62-61 64-62 122-94 97-51 115-55 317-55 174 0 190 2 242 21 79 29 112 50 184 112l33 29 36-36c41-39 119-86 185-110 37-13 72-16 230-16 175 0 190 1 243 21a483 483 0 0 1 110 53c17 0 109 91 140 138 38 57 47 77 66 135 26 77 30 108 57 421 11 136 21 255 43 485l23 244c7 72-4 77-153 77-144 0-152-4-159-76l-33-346c-39-473-57-667-67-703-15-49-44-88-86-113-40-24-42-24-192-24-129 0-157 3-180 16-41 22-72 56-93 101-18 39-18 50-20 581-2 499-3 543-17 553-10 7-53 11-139 11-112 0-125-2-141-17-17-18-17-29-17-563V499l-19-38c-24-42-73-82-123-95-20-5-89-8-165-6-120 2-135 4-168 23-36 21-80 76-80 100 0 7-4 15-8 17-3 3-10 33-12 68l-41 453c-21 223-32 351-39 460-10 148-4 143-163 142-68-1-129-3-137-5z"/></svg>