<svg xmlns="http://www.w3.org/2000/svg" viewBox="0 0 512 106"><g fill="#303030"><path d="M259.7,69a17.1,17.1,0,0,1-1.1,1.4c-5.4,5.9-12.2,8.3-20.1,7.6-11.5-1-20.7-9.6-23.1-22.3-1.5-7.6-1-15.2,2.4-22.3,6.9-14.5,21.9-17,32.5-13a20.1,20.1,0,0,1,8.9,6.5l.6.7V19.8h14.8v1.1c0,18.9-.1,37.8,0,56.7a31.4,31.4,0,0,1-1.9,11A23.8,23.8,0,0,1,256.5,104a37.3,37.3,0,0,1-25.5-1.4c-7.5-3.2-12.3-8.7-13.7-16.9a6.6,6.6,0,0,1-.1-1.4h13.6a1.1,1.1,0,0,1,.9.6c1.8,4.4,5.2,6.6,9.6,7.5a16.7,16.7,0,0,0,11.8-1.2c4.3-2.3,6.3-6.1,6.6-10.7S259.7,72.9,259.7,69Zm.2-20.6c-.1-.9-.1-1.9-.2-2.8a13.6,13.6,0,0,0-.6-2.9,14.7,14.7,0,0,0-13-11.1,14.2,14.2,0,0,0-14.5,7.9c-3.3,6.7-3,13.4,1.2,19.6a14.7,14.7,0,0,0,24.1-.1A18.2,18.2,0,0,0,259.9,48.4Z"/><path d="M466.3,104.5H451.8V19.8h14.5v7.7l.4.2.2-.5c8.6-10.6,23.6-10.4,32.7-4.2a25.3,25.3,0,0,1,9.9,12.9c3.2,9.4,3,18.7-1.3,27.7s-9.9,12.7-18.5,14.1-16.7-1-22.8-7.9l-.3-.4h-.3Zm30.6-56.2a42.3,42.3,0,0,0-1.1-6.2c-2.1-6.1-6.3-9.8-12.8-10.4A13.8,13.8,0,0,0,468.8,39a18.3,18.3,0,0,0-.3,18.4,14.5,14.5,0,0,0,22.9,4C495.2,57.9,496.7,53.4,496.9,48.3Z"/><path d="M125.9.4h14.7V77.1H125.9V69l-.5.4c-4.2,5.7-10.1,8.3-17,8.7-13,.6-23.5-7.8-26.6-21.1-1.9-8.1-1.5-16.2,2.2-23.8,6.7-13.7,23.3-18.7,36.1-10.7a50.9,50.9,0,0,1,5.8,4.6Zm.1,48.1h.3c-.5-2.2-.6-4.5-1.4-6.7-2.1-6-6.5-9.6-12.9-10.1s-11.2,2.1-14.1,7.6S94.6,52.8,99,59.1a14.5,14.5,0,0,0,21.7,2.5C124.6,58.1,126,53.6,126,48.5Z"/><path d="M151.5.4H166V27.8c.3-.2.4-.3.4-.4,5.1-6.4,12-9,20-8.6,12.1.5,21.4,9,24,21.4a35.1,35.1,0,0,1-2.9,24.2c-7.6,14.3-23,16-32.9,11.6a22.2,22.2,0,0,1-7.9-6l-.7-.8v7.9H151.5Zm45,47.9a45.1,45.1,0,0,0-.8-5.3,14.8,14.8,0,0,0-13-11.4A14.6,14.6,0,0,0,168,39.7a19.1,19.1,0,0,0-.9,15.5,14.8,14.8,0,0,0,23.2,6.9C194.7,58.5,196.3,53.8,196.5,48.3Z"/><path d="M349.9,18.8c10,.2,18.5,3.7,24.4,12.2,4.3,6.1,5.6,13.1,4.9,20.4-.8,9.7-5.2,17.3-13.5,22.4-10.3,6.3-24.7,5.7-34.2-1.3-6.4-4.7-9.9-11.3-11-19.1s-.2-13.5,3.1-19.6c4.5-8.5,11.7-13.1,21-14.7,1.2-.2,2.4-.2,3.6-.3A9.7,9.7,0,0,1,349.9,18.8Zm14.6,29.6c-.2-1.3-.2-2.7-.4-4.1a19.8,19.8,0,0,0-.6-2.6,14.1,14.1,0,0,0-13.2-10.2,13.8,13.8,0,0,0-14,8.9,23.8,23.8,0,0,0-.8,13.2c1.1,5.7,4.3,9.8,10,11.3a14.2,14.2,0,0,0,15-4.5C363.5,57,364.4,52.8,364.5,48.4Z"/><path d="M426.3,77.1V70.2l-.5.3c-5,5.8-11.5,7.8-18.9,7.3-5.9-.4-11-2.5-15-7a24.2,24.2,0,0,1-5.7-14.1c-.1-1.6-.1-3.2-.1-4.8V19.8h14.6v1.3c0,9.9-.1,19.8,0,29.7a24.8,24.8,0,0,0,.7,6.1,11.1,11.1,0,0,0,10.4,8.5,13.8,13.8,0,0,0,8-1.3c3.9-2,5.7-5.5,6.2-9.7a21.7,21.7,0,0,0,.2-3.6c.1-9.9.1-19.8.1-29.7V19.8h14.6v1.1c0,18.4,0,36.7.1,55.1,0,.9-.2,1.2-1.2,1.2-4.1-.1-8.2,0-12.3,0Z"/><path d="M40.4,1.2a10.1,10.1,0,0,1-1.8.9L28.8,5.6l-16,5.7c-3.6,1.3-4.9,3.9-3.6,7.6q9.5,26.3,18.7,52.5a1.4,1.4,0,0,1,.2.6c1.1,3.1-.4,5.2-3.7,5.2H5.7A5.3,5.3,0,0,1,0,71.6V6A5.3,5.3,0,0,1,5.7.4H38a18.1,18.1,0,0,1,2.3.3Z"/><path d="M30.9,76.6l2.1-1,25.5-9.1a5.5,5.5,0,0,0,3.7-3.4,5.3,5.3,0,0,0-.1-4.1C56.9,44.4,51.7,29.7,46.4,15.1c-1-3-2.1-6.1-3.2-9.1S43.6.6,47.1.6H65.5a5.3,5.3,0,0,1,5.7,5.7V71.7a5.3,5.3,0,0,1-5.7,5.7H33.4a19.7,19.7,0,0,1-2.4-.3Z"/><path d="M299.9,77.1H285.4V19.8h14.4v8.3h.2c4.2-6.1,9.9-9.3,17.5-9.3V34.1h-3.4a42,42,0,0,0-5.1.5c-5.2,1.1-8,4.1-8.7,9.3a32.3,32.3,0,0,0-.4,5.3c-.1,8.9,0,17.7,0,26.6Z"/><path d="M294.9,89c-1,3-1.8,5.8-2.6,8.5-.1.2-.1.4-.2.6a1.6,1.6,0,0,1-2.3,1.2c-.2-.1-.5-.3-.5-.6-1.3-4-2.6-8.1-3.8-12.1-.1-.1-.1-.2-.1-.4a9.6,9.6,0,0,1,1.7,0,1.4,1.4,0,0,1,.7.8c.9,3,1.7,6,2.5,9a4.3,4.3,0,0,0,.3,1l1-3.3c.7-2.2,1.3-4.4,1.9-6.6s.8-.9,1.5-1a1.2,1.2,0,0,1,1.4,1.1l2.4,8.5.5,1.3c.9-3.2,1.7-6.2,2.5-9.2s.4-1.8,2.5-1.6c-.1.3-.1.6-.2.8-1.1,3.8-2.4,7.6-3.5,11.5-.3.9-.8.8-1.5.8s-1.2,0-1.4-.9c-.7-2.6-1.5-5.1-2.3-7.7C295.3,90.2,295.1,89.8,294.9,89Z"/><path d="M335.6,88.1a11.5,11.5,0,0,0,.1-1.9h2.2v13h-2.2a12.8,12.8,0,0,0-.1-1.9c-3.3,2.8-6.7,3-9.2.4s-2.5-7.3-.1-9.8S332.3,85.3,335.6,88.1Zm.1,4.6a4.5,4.5,0,1,0-8.9,0,4.5,4.5,0,1,0,8.9,0Z"/><path d="M378.9,88V86.2h2.2v13c-2,.4-2,.4-2.3-1.8l-.3.2A6.1,6.1,0,0,1,368,94.5a7.4,7.4,0,0,1,.4-4.9,6.1,6.1,0,0,1,9.9-1.9c.2.1.2.3.3.5Zm0,4.1a4.2,4.2,0,0,0-2.3-3.7,4.3,4.3,0,0,0-4.5.2c-2.8,1.7-2.7,6.8.2,8.4a3.4,3.4,0,0,0,1.7.5C376.9,97.8,378.9,95.8,378.9,92.1Z"/><path d="M360.6,95.3a5.7,5.7,0,0,1-5.5,4.2,6.3,6.3,0,0,1-6.4-3.7,7.6,7.6,0,0,1,1.5-8.3,7,7,0,0,1,7.6-.8,6.2,6.2,0,0,1,3.1,6.3c-.1.7-.5.6-1,.6h-9.4a3.9,3.9,0,0,0,2.6,3.8c1.6.6,3.7.3,4.5-1S359.3,95.1,360.6,95.3Zm-2.1-3.6a3.6,3.6,0,0,0-3.7-3.9,4,4,0,0,0-4.3,3.9Z"/><path d="M440.7,93.6H430.6c-.3,2.3,1.8,4.2,4.3,4.1a3.1,3.1,0,0,0,2.7-1.4c.7-1.4,1.8-1.1,3-1a5.1,5.1,0,0,1-2.6,3.4c-3.6,2-9.7.6-9.9-5.7-.1-2.5.6-4.7,2.9-6.1a7,7,0,0,1,7-.1A6,6,0,0,1,440.7,93.6Zm-2.1-1.9a3.9,3.9,0,0,0-4.4-3.9,3.8,3.8,0,0,0-3.6,3.9Z"/><path d="M307.3,93.6a3.8,3.8,0,0,0,2.6,3.8c1.7.6,3.8.2,4.6-1.1s1.7-1.1,2.9-1a5,5,0,0,1-2.8,3.5,6.8,6.8,0,0,1-7-.4,6.7,6.7,0,0,1-2.6-6.8,6.4,6.4,0,0,1,9.3-5,6,6,0,0,1,3.4,6.4,1.3,1.3,0,0,1-.9.5h-9.5Zm8-1.9c.2-2.2-1.4-3.8-3.8-3.9a4,4,0,0,0-4.2,3.9Z"/><path d="M399,92.7a6.7,6.7,0,1,1,6.6,6.8C401.7,99.6,399,96.8,399,92.7Zm11,.1v-.6a4.3,4.3,0,0,0-4.3-4.3c-2.4-.1-4.1,1.5-4.4,4.1a12.7,12.7,0,0,0,.1,2,4.2,4.2,0,0,0,5.5,3.4A4.5,4.5,0,0,0,410,92.8Z"/><path d="M414.4,86.2h2.1v1.4a16.4,16.4,0,0,1,3-1.4,5,5,0,0,1,6.5,4.7q.1,3.9,0,7.8a.9.9,0,0,1-.6.7,7.4,7.4,0,0,1-1.5,0V93.1a10.9,10.9,0,0,0-.1-1.8,3.3,3.3,0,0,0-3.3-3.4,3.3,3.3,0,0,0-3.9,3c-.2,2.1-.1,4.2-.1,6.2v2.2h-2.2Z"/><path d="M504.7,20.4a7,7,0,0,1-7.2-7.4,7,7,0,0,1,7.4-7.2,7,7,0,0,1,7.1,7.4A7,7,0,0,1,504.7,20.4Zm5.9-7.3c0-3.6-2.3-6-5.8-6a5.6,5.6,0,0,0-5.9,5.9c0,3.7,2.3,6.2,5.9,6.2S510.6,16.7,510.6,13.1Z"/><path d="M386.2,99.2c-2.2.4-2.2.4-2.2-1.7V81.6h2.2Z"/><path d="M342.9,99.2h-.1c-2,.2-2,.2-2-1.8v-10c0-1.4,0-1.4,1.4-1.4h.8a12.1,12.1,0,0,0,.1,1.8,4.5,4.5,0,0,1,4.1-2v2.1H347c-3.2.3-4,1.2-4,4.4v6.6Z"/><path d="M391.3,99.3h-2.1V81.6h2.1Z"/><path d="M502,9.2h4a2,2,0,0,1,1.9,1.8,2.2,2.2,0,0,1-1.1,2.5l-.7.4,2.1,3c-1.1.2-2,.3-2.5-.9a9.1,9.1,0,0,0-1.1-1.6c-.2-.3-.5-.4-1.1-.7v3.2H502Zm1.5,1.4c0,.7.1,1.3.1,1.9h1.9a2,2,0,0,0,.8-1c0-.3-.5-.7-.9-.8A5.6,5.6,0,0,0,503.5,10.6Z"/></g></svg>