<svg xmlns="http://www.w3.org/2000/svg" viewBox="0 0 512 131.8"><path d="M209.01 86.54c0-.13.2-.58.43-1 .24-.44 1.99-9.78 3.9-20.76 1.9-10.99 3.62-20.43 3.82-20.98.36-1 .47-1.01 8.45-1.01 4.45 0 8.1.15 8.1.34 0 .2-1.22 7.16-2.7 15.48-1.48 8.32-2.7 15.63-2.7 16.26V76h16.16c15.09 0 16.16.05 16.17.79 0 .43-.34 2.85-.76 5.38l-.78 4.6h-25.04c-13.78 0-25.05-.1-25.05-.23zm52.52-.3c0-.55 6.39-36.9 7.22-41.1l.47-2.35h7.75c4.26 0 7.85.1 7.97.21.12.12-1.06 7.35-2.61 16.05a817.96 817.96 0 0 0-2.84 16.39c0 .44 3.41.56 15.63.56 8.6 0 15.73.1 15.84.21.12.12-.19 2.54-.67 5.39l-.89 5.17h-23.94c-18.2 0-23.93-.13-23.93-.53zm50.27-.25c0-.44 1.3-8.02 2.9-16.86 1.89-10.56 3.2-16.75 3.84-18.05 1.27-2.63 5.26-6.22 7.91-7.12 1.85-.64 5.53-.73 29.42-.73h27.31l-.22 1.01c-.34 1.48-7.43 41.8-7.43 42.2 0 .18-3.53.33-7.86.33h-7.86l.22-1c.66-3 2.04-11.03 2.04-11.9v-1.01H330.3l-.23 1c-.13.56-.7 3.7-1.25 6.96l-1.02 5.95h-8c-7.32 0-8-.06-8-.78zm52.72-26.48c.42-2.41.86-4.73.98-5.17.2-.73-.75-.78-15.7-.78H333.9l-.74 4.15c-.4 2.28-.83 4.6-.95 5.16l-.22 1.01h31.78zm13.26 26.7c0-.56 1.13-6.86 1.57-8.74.64-2.72 6.36-7.05 14.36-10.88 2.47-1.18 9.06-3.99 14.65-6.23 12.86-5.17 12.5-5 12.5-5.98 0-.78-.83-.82-18.62-.82-10.58 0-18.63-.17-18.63-.4 0-.42 1.2-7.18 1.6-8.92l.22-1h60.45l-.82 4.37c-.44 2.4-.82 4.63-.83 4.95-.03.81-3.39 4.35-5.81 6.12-3.49 2.54-10 5.93-20.4 10.64-10.96 4.96-11.96 5.5-11.96 6.47 0 .57 2.3.66 16.96.66H440l-.89 5.16-.88 5.16H408c-23.88 0-30.22-.12-30.22-.56zm62.84-.22c0-.44 1.3-8.02 2.9-16.86 1.87-10.46 3.2-16.76 3.82-18.03 1.2-2.49 4.33-5.38 7.33-6.77l2.33-1.09h55l-.23 1c-.33 1.48-7.42 41.8-7.42 42.2 0 .18-3.55.33-7.88.33-7.3 0-7.87-.06-7.66-.78a157.3 157.3 0 0 0 2.08-12.21c0-.91-.18-.92-15.89-.92h-15.88l-.23 1c-.13.56-.7 3.7-1.25 6.97l-1.02 5.94h-8c-7.32 0-8-.06-8-.78zm52.72-26.48c.42-2.41.86-4.73.98-5.17.2-.73-.75-.78-15.7-.78H462.7l-.73 4.15c-.4 2.28-.83 4.6-.95 5.16l-.22 1.01h31.78z" fill="#828186"/><path d="M97.38 131.38c-6.12-1.42-11.77-4.04-18.7-8.66-18.49-12.36-36.5-34.3-40.98-49.92-1-3.47-1.11-4.5-.94-8.39.11-2.43.09-4.43-.05-4.43s-3.22-.29-6.84-.64c-3.63-.35-11.77-.82-18.1-1.05-6.34-.23-11.62-.44-11.73-.47-.52-.1 4.6-1.38 10.86-2.72 7.1-1.5 16.72-2.96 22.58-3.4 6.48-.5 6.86-.59 7.43-1.85 2.89-6.37 11-17.38 18.53-25.14C71.64 12.1 84.14 3.94 95.76.93c3.5-.9 4.8-1.05 8.01-.86 11.56.69 24.71 8.22 38.79 22.21 8 7.96 15.07 16.87 19.8 24.94l1.62 2.78 7.37.54c9.01.67 17.86 2.1 27.42 4.46l7.25 1.8-2.99.26c-1.64.14-5.66.3-8.94.33-5.68.06-15 .53-22.73 1.16l-3.55.28.26 1.11c.7 2.96.74 8.44.07 11.26-.37 1.6-.68 3.05-.68 3.23 0 .18.82.57 1.81.87 3.26.96 10.73 3.96 11.93 4.8 1.61 1.13 1.47 1.83-.54 2.63-2.66 1.06-8.86 2.04-9.8 1.54-.43-.24-2.19-.72-3.9-1.09-2.95-.62-3.15-.61-3.66.11-.3.42-1.66 2.5-3.03 4.6-8.75 13.54-23.63 28.26-37.15 36.78-3.78 2.38-10.26 5.4-13.38 6.23-3.66.98-9.28 1.2-12.36.48zm9.82-6.43c13.28-3.4 34.99-21.57 46.92-39.3 1.2-1.8 2.09-3.45 1.95-3.67-.6-.99-25.3.42-40.58 2.3-18.83 2.34-32.71 1.9-48.06-1.53-5.31-1.19-13.27-3.71-17.12-5.44l-2.35-1.04 1.5-.23c12.48-1.9 17.51-3.3 36.1-10.03 16.5-6 23.84-8.42 31.63-10.46a176.83 176.83 0 0 1 34-5.2c4.16-.23 5.19-.41 5.01-.87-.5-1.32-5.16-7.95-8.65-12.3C133.82 20 116.07 7.42 104.2 6.46c-13.13-1.06-35 13.91-50.16 34.35-2.16 2.91-6.29 9.4-6.29 9.9 0 .1 4.36.3 9.7.45 10.66.27 18.62 1.09 26.06 2.66 5.09 1.07 14.94 3.99 14.93 4.42 0 .13-2.25 1.05-5 2.02-2.75.98-8.55 3.06-12.89 4.63l-7.88 2.85L68 66.22c-7.37-2.4-23.75-5.84-24.46-5.14-.14.14-.32 1.93-.4 3.97-.12 3.13.03 4.24.99 7.1 5.92 17.74 29.54 42.8 47.76 50.67 6.45 2.79 10.5 3.35 15.32 2.13zm54.52-54.5c.79-2.92.72-7.49-.14-9.66l-.45-1.12-3.97.61c-6.06.93-14.45 3.02-20.52 5.13-7.25 2.5-14.29 5.54-13.48 5.8.35.13 6.96.33 14.7.46 8.55.14 15.55.46 17.89.82 2.1.32 4.14.6 4.53.64.51.05.9-.66 1.44-2.69z" fill="#ff730b"/></svg>