<svg xmlns="http://www.w3.org/2000/svg" viewBox="0 0 512 137.87"><path d="M170.9 137.58c-7.55-1.75-13.21-9.09-13.21-17.1 0-3.1.57-5.56 1.96-8.43 1-2.05 1.54-2.8 3.4-4.64 2.7-2.71 5.33-4.14 8.74-4.75 2.77-.5 4.74-.32 7.63.7 2.5.9 3.95 1.02 4.64.39.25-.23.66-.42.9-.42.38 0 .42.48.42 4.76 0 5.3-.19 5.77-1.14 2.78-1.65-5.22-4.36-7.48-9.24-7.74-6.3-.33-10.13 3.12-11.4 10.28-.45 2.58-.6 8.1-.3 11.09.67 6.52 2.41 10 5.86 11.7 1.7.83 1.79.85 5.19.85 3.28 0 3.55-.04 5.06-.74a10.27 10.27 0 0 0 4.25-3.9c.21-.41.7-1.76 1.08-3 .39-1.23.8-2.23.93-2.23.12 0 .22 2.25.22 5 0 4.07-.06 5-.35 5-.2 0-.5-.18-.67-.38-.6-.73-1.83-.7-4.62.13-3.24.95-6.94 1.21-9.36.65zM205.75 121a894.5 894.5 0 0 0-10.18-16.04c-.11-.07-.2 6.75-.2 15.15v15.27h2.7c2.21 0 2.68.07 2.68.38 0 .33-.8.39-5.64.39s-5.64-.06-5.64-.39c0-.31.47-.38 2.7-.38h2.69v-32.56h-2.7c-2.22 0-2.69-.07-2.69-.39 0-.33.74-.38 5.07-.38h5.08l8.03 12.95a679.33 679.33 0 0 0 8.13 12.94c.06 0 .1-5.65.1-12.56v-12.56h-2.71c-2.06 0-2.69-.08-2.6-.32.07-.25 1.45-.32 5.7-.32s5.62.07 5.7.32c.08.24-.55.32-2.6.32h-2.72v17.05c0 16.17-.02 17.05-.45 17.05-.33 0-3.33-4.57-10.45-15.92zm122.25 15.66c-5.07-1.07-8.21-5.78-6.9-10.32.6-2.03 2-3.66 4.6-5.32a18.69 18.69 0 0 0 2.22-1.54c0-.07-.5-.4-1.12-.73-3-1.59-4.65-4.4-4.45-7.6.39-6.05 7.17-9.72 13.1-7.1 2.67 1.18 4.13 3.29 4.13 5.95 0 2.58-.89 3.99-4.33 6.8l-1.26 1.05 1.44.82a12.73 12.73 0 0 1 4.69 4.44c.7 1.25.76 1.59.76 3.81 0 2.24-.07 2.59-.84 4.15-1.07 2.17-3.31 4.3-5.31 5.06-1.63.6-5.09.88-6.73.53zm5.7-1.4a8.18 8.18 0 0 0 3.72-6.68c0-2.97-3.84-7.43-7.16-8.32-.98-.27-1.18-.23-2.19.35-3.92 2.3-4.7 10.7-1.3 13.99a5.87 5.87 0 0 0 6.92.67zm1.02-19.3c1.58-1.58 1.94-7.06.64-9.68-1.84-3.72-7.47-3.1-9.39 1.02-.7 1.49-.8 3.62-.24 4.7.82 1.6 4.07 4.04 6.02 4.54 1.43.37 2.16.23 2.97-.59zm18.15 20.69c-2.9-.57-5.1-2.14-6.23-4.46-1.58-3.2-1.25-6.41.9-8.8 1.05-1.17 1.75-1.69 4.44-3.31l.85-.51-1.66-1.07c-2.94-1.9-4.1-3.82-4.1-6.85 0-3.34 1.86-6.08 5.18-7.63 1.5-.7 1.96-.8 3.89-.78 4.8.03 8.2 2.83 8.2 6.74 0 2.51-1.34 4.51-4.68 7.04l-.96.73 2.24 1.49c3.6 2.38 4.8 4.36 4.8 7.8 0 1.77-.12 2.3-.8 3.77a9.8 9.8 0 0 1-4.54 4.83 11.6 11.6 0 0 1-7.53 1zm4.66-.86c3.77-1.58 5.78-7.23 3.75-10.52-1.1-1.78-4.76-4.49-6.6-4.88-3.2-.68-6.1 4.75-5.22 9.79.5 2.9 1.85 4.88 3.86 5.68.94.38 3.22.34 4.2-.07zm1.28-19.4c2.27-2 2.88-7.85 1.1-10.54-1.77-2.65-6.45-2.6-8.4.1-.84 1.16-1.4 3.42-1.13 4.63.65 3.03 4.33 6.57 6.84 6.59.41 0 1.05-.3 1.59-.78zm19.38 20.19c-3.92-.92-6.24-3.57-7.5-8.57-.8-3.15-.79-9.01.01-11.93 1.22-4.45 3.9-8.92 6.49-10.83 2-1.48 3.7-2.03 6.25-2.03 1.79 0 2.23.09 3.4.74 2.2 1.2 3.15 3.44 2.26 5.32-.57 1.22-1.42 1.64-2.65 1.34-.95-.24-.96-.25-.93-1.52.02-.7.12-1.77.23-2.36.1-.59.12-1.35.04-1.7-.22-.84-1.42-1.31-2.78-1.1-1.5.25-3.94 1.61-4.85 2.7-1.08 1.3-2.15 3.65-2.76 6.05-.58 2.28-.98 5.51-.68 5.51.1 0 .9-.34 1.79-.76 4.5-2.15 8.31-1.6 11.37 1.63 3.23 3.41 3.83 7.58 1.72 11.86-2.17 4.41-6.83 6.71-11.41 5.65zm4.85-.93a4.48 4.48 0 0 0 2.5-3.28c.34-1.97.23-11.06-.15-12.36-.93-3.22-4.86-4.29-8.25-2.24-2 1.2-2.59 2.47-2.68 5.88-.2 6.79 1.06 11.04 3.59 12.14 1.2.52 3.82.45 4.99-.14zm-147.41.54c0-.42.27-.51 1.85-.66 1.03-.1 2.07-.24 2.31-.3.42-.13.45-1.09.45-15.35v-15.21l-1.22-.17-2.3-.31c-.7-.1-1.1-.28-1.1-.5 0-.3 3.89-.36 25.15-.36 20 0 25.13.07 25.05.32-.1.32-1.03.55-3.34.84l-1.21.15v15.23c0 14.27.02 15.23.44 15.35.25.07 1.3.2 2.33.3 1.54.14 1.85.24 1.79.6-.08.37-1.03.42-9.9.48-8.67.06-9.82.02-9.96-.33-.08-.22-.1-.45-.05-.5.06-.06 1.06-.2 2.22-.29 1.86-.15 2.13-.24 2.24-.72.08-.3.1-4.75.06-9.9-.07-9.11-.09-9.39-.67-10.83-.8-1.97-2.97-4.31-4.87-5.24-1.3-.64-1.72-.71-4.15-.72-2.38 0-2.86.08-4.15.69-1.94.9-3.65 2.67-4.65 4.77l-.81 1.72-.08 9.92c-.07 9.35-.05 9.92.39 10.04.25.07 1.3.21 2.33.3 1.54.15 1.86.25 1.8.6-.08.38-1.05.43-10.02.5-9.58.06-9.93.04-9.93-.42zm69.29.14 2.24-.26V121.6c0-11.48-.06-14.45-.32-14.35-.17.07-1.65.89-3.27 1.8-1.62.93-2.99 1.57-3.04 1.43-.05-.14-.05-.3 0-.33.58-.46 10.47-7.08 10.58-7.08.09 0 .15 7.45.15 16.54v16.54l1.22.02c.67.01 1.8.11 2.5.22.78.13-1.36.2-5.51.2-5.86 0-6.49-.04-4.55-.26zm-173.33-.1c-5.05-.08-5.96-.15-5.96-.47 0-.31.48-.38 2.69-.38h2.7v-32.56h-2.7c-2.22 0-2.7-.07-2.7-.39 0-.33 1.09-.38 8.17-.38 8.62 0 10.23.15 12.54 1.17 1.97.87 3.18 1.91 4.05 3.49.65 1.17.76 1.64.76 3.29 0 2.24-.47 3.42-2 4.94a11.64 11.64 0 0 1-5.13 2.63l-1.05.18 1.9.48c3.47.89 5.7 2.4 7.13 4.83.62 1.04.69 1.42.69 3.6 0 2-.1 2.67-.6 3.72-1.16 2.55-3.75 4.48-7.19 5.38-1.87.48-5.12.6-13.3.47zm11.99-1.27c2.65-1.2 3.7-3.55 3.69-8.3-.01-3.47-.55-5.23-2.08-6.76-1.3-1.3-2.82-1.7-6.53-1.7h-3.03v8.55c0 4.7.08 8.63.19 8.74.1.11 1.63.15 3.4.1 2.5-.09 3.45-.22 4.36-.63zm-.9-17.77c2.2-.87 3.3-3.11 3.3-6.8 0-2.72-.33-4.04-1.35-5.44-1.17-1.62-2.2-2-5.86-2.09l-3.14-.09v7.3c0 4 .08 7.37.19 7.48.28.29 5.96 0 6.86-.36zM66.4 87.5a44 44 0 0 1-6.79-1.47c-2.97-1.24-8.53-6.34-10.2-9.38-3.08-5.55-5.19-14.35-6.07-25.25-.28-3.53-.63-6.99-.76-7.7-1-5.14-3.92-8.54-8.26-9.61-.62-.16-4.1-.35-7.73-.43l-6.6-.15v34.43h10.51v1.28H0v-1.28h10.51V3.08H0v-1.2l16.09-.18c19.93-.22 21.98-.06 25.97 2.04 4.52 2.38 7.3 5.76 8.47 10.3 1.28 5 .06 9.27-3.73 13.04-2.97 2.95-6.06 4.39-11.54 5.37-.96.17-.85.22 1.8.75 4.8.96 7.58 2.1 10.55 4.34 3.77 2.84 4.9 5.77 5.45 14.25.61 9.31 1.38 15.14 2.72 20.46.94 3.77 1.44 4.78 3.55 7.21 4.09 4.7 8.9 7.2 12.33 6.44 1.31-.3 3.07-1.12 3.35-1.56.11-.18.33-.13.66.17.44.4.45.48.09.88-.78.86-3.3 1.76-5.65 2.03-1.26.15-2.4.25-2.55.23-.14-.03-.66-.09-1.15-.14zM32.65 31.92c4.2-1.1 6.47-3.72 7.46-8.64.52-2.55.53-8.42.02-10.82-1.1-5.18-4.17-8.34-9-9.27-1.95-.37-9.39-.52-10.55-.2l-.58.15V32.3h5.59c4.13 0 5.97-.1 7.06-.39zM164.28 70.5c-9.6-1.1-17.99-6.6-23.84-15.63-4.04-6.25-5.6-11.58-5.6-19.14 0-4.47.5-7.66 1.85-11.75 2.97-8.96 9.08-16.25 17.06-20.32 5.24-2.68 8.69-3.5 14.7-3.51 4.5 0 5.17.13 10.71 2.18 4.67 1.73 7.07 1.73 8.63 0 .28-.3.8-.54 1.22-.54h.73v9.49c0 9-.02 9.49-.47 9.49-.37 0-.6-.51-1.16-2.46-1.61-5.7-3.2-8.76-6.06-11.65a17.76 17.76 0 0 0-8.13-4.65c-2.68-.72-9.04-.8-11.74-.13a21.68 21.68 0 0 0-7.43 3.68c-5.93 4.8-8.6 12.86-9.02 27.13-.58 20.34 4 32.18 13.7 35.36 3 .98 4.98 1.26 8.77 1.23 6.78-.03 11.27-1.63 15.03-5.35 2.28-2.25 3.73-4.88 5.2-9.45a94.52 94.52 0 0 0 1.43-4.68c.12-.58.32-.83.67-.83.48 0 .5.31.5 10.13v10.13h-.74c-.41 0-.94-.23-1.22-.54-1.52-1.7-3.89-1.76-8.69-.25-6.14 1.94-11.36 2.6-16.1 2.06zm128.4.1c-2.54-.22-6.18-1-9.48-2.07-5.49-1.75-7.3-1.74-8.13.07-.2.45-.5.63-1.01.63h-.73V59.1c0-9.9 0-10.13.5-10.13.38 0 .57.27.78 1.1 2.22 8.85 5.93 14.57 11.15 17.18 3.42 1.7 9.1 2.5 14.14 1.97 3.23-.33 4.16-.6 6.58-1.85 4.92-2.55 7.62-7.3 7.62-13.42 0-4.08-1.16-6.68-4.26-9.58-2.44-2.28-5.04-3.42-14.08-6.17-8.16-2.48-11.71-3.94-14.61-6.01-4.2-3-6.02-6.73-6.02-12.4 0-3.44.52-5.74 2.04-8.9 3.47-7.2 10.96-11.25 20-10.8 3.42.16 5.58.7 9.38 2.36 2.15.94 2.9 1.14 4.18 1.14 1.5 0 1.59-.04 2.14-.9.43-.66.77-.9 1.29-.9h.7V19l-.54-.07c-.45-.07-.64-.48-1.15-2.52a22.5 22.5 0 0 0-5.6-10.37c-3.63-3.62-8.58-5.22-14.05-4.53-6.12.76-10.28 3.36-12.35 7.72-.75 1.59-.8 1.82-.8 4.88 0 3.1.04 3.26.84 4.9 1.81 3.67 5.33 5.97 12.89 8.38 19.47 6.24 19.65 6.31 22.97 9.66 3.92 3.95 5.29 9.34 3.97 15.64a21.17 21.17 0 0 1-4.5 9.64c-2.39 3.02-7.52 6.28-11.68 7.4-3.26.87-8.02 1.21-12.17.86zm190.51 0c-2.53-.22-6.18-1-9.48-2.06-5.37-1.72-7.09-1.74-8.03-.09-.32.57-.63.78-1.14.78h-.7V59.1c0-9.89 0-10.13.5-10.13.38 0 .57.27.77 1.1 2.2 8.77 5.9 14.52 11.02 17.1 3.53 1.78 9.14 2.59 14.28 2.05 3.04-.31 4.13-.6 6.1-1.57 5.6-2.77 8.33-7.71 8.04-14.54-.15-3.66-.98-5.47-3.77-8.27-2.69-2.7-4.89-3.71-14-6.49-7.97-2.43-9.08-2.82-11.74-4.16-6.67-3.33-9.4-7.5-9.4-14.4-.01-3.44.52-5.74 2.04-8.9 3.47-7.2 10.96-11.25 20-10.8 3.42.16 5.58.7 9.4 2.37 2.36 1.02 2.83 1.14 4.25 1.08 1.49-.07 1.64-.14 2.12-.9.37-.6.7-.83 1.22-.84h.7V19l-.54-.07c-.45-.07-.64-.48-1.15-2.52-1.15-4.57-3.8-9.06-6.72-11.41a16.95 16.95 0 0 0-13.27-3.46c-5.94.83-9.99 3.43-12.01 7.69-.76 1.59-.8 1.82-.8 4.88 0 3.1.03 3.26.84 4.9 1.78 3.61 5.36 5.98 12.5 8.26 19.64 6.27 20.06 6.44 23.33 9.76 3.35 3.38 4.7 7.2 4.41 12.45a21.67 21.67 0 0 1-12.36 18.6c-4.49 2.2-9.99 3.05-16.4 2.51zm-36.45-1.18-19.9-31.73a13408.89 13408.89 0 0 0-19.32-30.75c-.05-.06-.1 13.65-.1 30.45v30.56h10.52v1.28h-22.56v-1.28h10.51V3.08h-10.51V1.79h10.19l10.19.01 15.7 25.33a4189.55 4189.55 0 0 0 16.09 25.83c.33.44.37-2.5.38-24.7V3.09h-10.5V1.79h22.56v1.29h-10.51V70.5h-1.03c-.92 0-1.08-.1-1.7-1.09zm-378.02-.83v-.64h10.51V3.08H68.72V1.79h54.1V10c0 7.8-.03 8.21-.47 8.21-.34 0-.57-.32-.8-1.09a38.08 38.08 0 0 0-3.52-7.5c-1.34-1.96-3.5-4-5.1-4.81-3.02-1.53-3.25-1.56-14.15-1.66l-10.06-.1v29.32l5.32-.11c4.78-.1 5.47-.18 6.84-.7 1.82-.72 3.69-2.38 4.75-4.23.7-1.23 2.15-5.22 2.82-7.77.21-.82.41-1.09.79-1.09.5 0 .5.27.5 14.74 0 14.48 0 14.75-.5 14.75-.38 0-.57-.28-.78-1.1-2-7.83-3.43-10.34-6.81-12-1.99-.99-3.87-1.25-8.9-1.26h-4.03v34.4l10.83-.1c10.33-.09 10.91-.12 12.52-.66 4.59-1.53 9.18-6.1 11.4-11.34.38-.92 1.02-2.93 1.4-4.48.6-2.31.8-2.82 1.2-2.82.44 0 .47.48.53 10.32l.07 10.32H68.72Zm126.92 0v-.64h8.35l12.81-33.98L229.61 0H231.92l12.86 33.91 12.87 33.9 4.25.08 4.25.07v1.27H236.92v-1.28h5.25c2.9 0 5.26-.03 5.25-.07 0-.03-2.23-5.95-4.95-13.14l-4.94-13.08-11.02-.06-11.03-.07-4.92 13.04a842.41 842.41 0 0 0-4.92 13.2c0 .1 2.36.18 5.25.18h5.26v1.28H195.64zm40.62-30.07c-5.93-15.82-9.73-25.66-9.87-25.5-.17.2-10.24 26.84-10.24 27.09 0 .08 4.67.14 10.38.14h10.38zm92.96 30.07v-.64h10.52V3.08h-10.52V1.79h54.36V10c0 8.08 0 8.21-.52 8.21-.29 0-.59-.2-.67-.45-3.04-8.96-6.67-13.03-12.7-14.27-1.6-.32-3.82-.4-11.23-.4h-9.24v29.28l5.32-.12c6.08-.13 7.23-.37 9.23-1.96.7-.54 1.63-1.57 2.1-2.29.88-1.38 2.3-5.13 3-7.87.36-1.46.49-1.66 1.03-1.66h.6l-.06 14.68c-.06 14.46-.07 14.68-.58 14.75-.45.07-.6-.3-1.36-3.2-1.06-4.07-2.2-6.5-3.8-8.1-2.44-2.43-5.03-3.09-11.63-2.95l-3.72.08-.07 17.11-.06 17.12h10.06c11.27-.01 12.38-.13 15.45-1.66 5.55-2.75 9.57-8.65 11.15-16.36.24-1.18.4-1.47.8-1.47.48 0 .5.3.5 10.38v10.39h-57.96v-.64z"/></svg>