<svg xmlns="http://www.w3.org/2000/svg" viewBox="0 0 630.9 198.7"><g fill="#b8213c"><path d="m45 28.1 64.3 111.5 1.6-2.9L48.4 28.1H45zm9.7 0h-3.4l61.3 106 1.7-3-59.6-103zm-15.9 0L106.2 145l1.7-2.8L42.1 28.1h-3.3zm-6.4 0L103 150.6l1.7-2.9L35.8 28.1h-3.4z"/><path d="M173.7 28 103 150.6l1.7 2.9L177 28h-3.3zm6.3 0-73.8 128.1 1.7 2.8L183.3 28H180zm6.3 0-77 133.6 1.7 2.8L189.6 28h-3.3zm6.3 0-80.1 139.1 1.7 2.8 81.7-142-3.3.1zM160.9 28l-53.1 92.1 1.7 2.9 54.7-95h-3.3zm6.3 0L111 125.7l1.7 2.9L170.5 28h-3.3zm-12.6 0-49.9 86.7 1.7 2.8L158 28h-3.4zm-6.3 0-46.9 81.1 1.7 2.9 48.5-84h-3.3z"/><path d="M79.9 28.1h-3.3l35.8 62 1.7-2.9-34.2-59.1zm-9.6 0 39 67.5 1.7-2.9-37.3-64.6h-3.4zm-12.6 0 45.2 78.5 1.7-2.9L61 28.1h-3.3zm6.3 0 42.1 73 1.7-2.9-40.4-70.1H64z"/></g><path d="m234.5 132.8-24.9-65.2h7.5l17.5 46.9 17.5-46.9h7.3zM275 129.1V67.6h31.8V74h-25v18.3h24.4v6.4h-24.4v24.1h25v6.3zM353.6 129.1 335 102.2h-1.7v26.9h-6.8V67.6h9.9c5.1 0 10.4.5 14.8 3.4 4.5 3.1 6.8 8.4 6.8 13.8 0 9.3-6.2 16-15.4 16.8l19.5 27.5h-8.5zM337.4 74h-4.1v22h4.3c7.4 0 13.6-3 13.6-11.3-.1-8.3-6.6-10.7-13.8-10.7M394.5 74v55.1h-6.8V74h-14.9v-6.4h36.7V74zM425.7 67.6h6.8v61.5h-6.8zM455.5 129.1V67.6h6.8v55.2h17v6.3zM535.2 121.7c-4.1 5.4-11.2 8.5-17.9 8.5-6.8 0-13.7-3-17.9-8.5-3.4-4.3-4-9.2-4-14.6V67.6h6.8v37.7c0 4-.1 8.3 2.1 11.8 2.6 4.3 8 6.6 12.9 6.6s10.4-2.4 13-6.6c2.1-3.5 2-7.8 2-11.8V67.6h6.9v39.6c.1 5.4-.5 10.1-3.9 14.5M591.5 129.1l-14.1-25.3-14.3 25.3h-7.7l18.2-31.8-16.5-29.7h7.7l12.7 23.2 13-23.2h7.9l-16.9 29.7 17.8 31.8z"/><path d="M251.4 157.1h1v13.8h-1zM269.6 169.6c-.8.8-2 1.2-3.4 1.2h-4.6V157h4.6c1.4 0 2.6.4 3.4 1.2 1.4 1.4 1.3 3.6 1.3 5.4.1 2 .1 4.6-1.3 6m-.7-10.6c-.8-.8-1.9-1.1-3-1.1h-3.3v11.9h3.3c1.1 0 2.1-.3 3-1.1 1.1-1.1 1-3.6 1-5.1 0-1.4.1-3.4-1-4.6M279.5 170.8v-13.7h8.4v.9h-7.4v5.4h6.3v1h-6.3v5.5h7.4v.9zM304 170.8l-1.2-3.3h-6.4l-1.2 3.3h-1.1l5.1-13.8h.9l5 13.8H304zm-4.4-12.4-2.9 8.1h5.8l-2.9-8.1zM315.9 170.9c-2.1 0-3.3-.6-4.6-1.8l.7-.7a4.8 4.8 0 0 0 3.9 1.6c2.2 0 3.5-1.1 3.5-2.8 0-.8-.2-1.5-.7-1.9s-.9-.6-2-.8l-1.6-.2c-1-.2-1.9-.5-2.5-1-.7-.6-1.1-1.5-1.1-2.5 0-2.3 1.7-3.8 4.3-3.8 1.7 0 2.8.5 4 1.5l-.7.7a4.2 4.2 0 0 0-3.3-1.3c-2 0-3.2 1.1-3.2 2.8 0 .8.2 1.4.7 1.8.5.4 1.3.7 2 .8l1.5.2c1.3.2 1.9.4 2.4.9.8.6 1.2 1.6 1.2 2.7.1 2.4-1.7 3.8-4.5 3.8M343.4 165h-4v5.8h-1V157h5.1c2.4 0 4.1 1.4 4.1 4 0 2.5-1.8 4-4.2 4m-.1-7h-3.9v6.1h3.9c1.9 0 3.2-1 3.2-3 0-2.2-1.3-3.1-3.2-3.1M362.6 170.8l-1.2-3.3H355l-1.2 3.3h-1.1l5.1-13.8h.9l5.1 13.8h-1.2zm-4.4-12.4-2.9 8.1h5.8l-2.9-8.1zM379.1 170.8l-3.3-6.3H372v6.3h-1V157h5.2c2.3 0 3.9 1.3 3.9 3.7 0 2.1-1.2 3.4-3.2 3.7l3.3 6.3h-1.1v.1zm-3-12.8H372v5.6h4.1c1.8 0 3-.9 3-2.8s-1.3-2.8-3-2.8M396.6 170.8l-1.2-3.3H389l-1.2 3.3h-1.1l5.1-13.8h.9l5.1 13.8h-1.2zm-4.4-12.4-2.9 8.1h5.8l-2.9-8.1zM418.4 158v12.8h-1.1V158h-4.1v-.9h9.3v.9zM434.6 170.9c-2.8 0-4.7-1.9-4.7-4.6V157h1v9.2c0 2.3 1.5 3.8 3.7 3.8s3.7-1.5 3.7-3.8V157h1.1v9.3c-.1 2.8-2.1 4.6-4.8 4.6M458 170.8v-13.7h8.3v.9H459v5.4h6.2v1H459v5.5h7.3v.9zM477.8 170.9c-2.1 0-3.3-.6-4.6-1.8l.7-.7a4.8 4.8 0 0 0 3.9 1.6c2.2 0 3.5-1.1 3.5-2.8 0-.8-.3-1.5-.8-1.9s-.9-.6-2-.8l-1.6-.2c-1-.2-1.9-.5-2.4-1-.7-.6-1.1-1.5-1.1-2.5 0-2.3 1.6-3.8 4.3-3.8 1.7 0 2.8.5 4 1.5l-.7.7a4.2 4.2 0 0 0-3.3-1.3c-2 0-3.2 1.1-3.2 2.8 0 .8.2 1.4.7 1.8.5.4 1.3.7 2 .8l1.5.2c1.3.2 1.9.4 2.5.9.8.6 1.2 1.6 1.2 2.7.1 2.4-1.7 3.8-4.6 3.8M495.6 165h-4v5.8h-1V157h5c2.4 0 4.1 1.4 4.1 4 .1 2.5-1.7 4-4.1 4m-.1-7h-3.9v6.1h3.9c1.9 0 3.2-1 3.2-3 0-2.2-1.3-3.1-3.2-3.1M514.8 170.8l-1.2-3.3h-6.4l-1.2 3.3h-1.1L510 157h.9l5.1 13.8h-1.2zm-4.5-12.4-2.9 8.1h5.8l-2.9-8.1zM527.1 170.9c-1.3 0-2.5-.5-3.4-1.4-1.3-1.3-1.3-2.5-1.3-5.6s0-4.3 1.3-5.6c.9-.9 2.1-1.4 3.4-1.4 1.7 0 2.8.7 3.9 1.7l-.7.7c-1-.9-1.8-1.5-3.2-1.5-1 0-1.9.4-2.6 1.1-1 1-1.1 2-1.1 5s.1 4 1.1 5c.7.7 1.6 1.1 2.6 1.1 1.4 0 2.2-.6 3.2-1.5l.7.7a5.07 5.07 0 0 1-3.9 1.7M539.3 157.1h1v13.8h-1zM557.1 169.5c-.9.9-2.1 1.4-3.4 1.4-1.3 0-2.5-.5-3.4-1.4-1.2-1.3-1.3-2.5-1.3-5.6s0-4.3 1.3-5.6c.9-.9 2.2-1.4 3.4-1.4 1.3 0 2.5.5 3.4 1.4 1.2 1.3 1.3 2.5 1.3 5.6 0 3.2-.1 4.4-1.3 5.6m-.9-10.6a3.63 3.63 0 0 0-5.2 0c-1 1-1 2-1 5s.1 4 1 5a3.63 3.63 0 0 0 5.2 0c1-1 1.1-2 1.1-5 0-2.9-.1-4-1.1-5"/></svg>